<svg width="753" height="321" viewBox="0 0 753 321" fill="none" xmlns="http://www.w3.org/2000/svg">
<mask id="path-1-inside-1_2811_1324" fill="white">
<path fill-rule="evenodd" clip-rule="evenodd" d="M0 30C0 13.4315 13.4315 0 30 0H427C443.569 0 457 13.4315 457 30V126C457 142.569 443.569 156 427 156H338C325.85 156 316 165.85 316 178C316 190.15 325.85 200 338 200H723C739.569 200 753 213.431 753 230V291C753 307.569 739.569 321 723 321H30C13.4315 321 0 307.569 0 291V206V200V156V149V30Z"/>
</mask>
<path d="M427 -6H30V6H427V-6ZM463 126V30H451V126H463ZM338 162H427V150H338V162ZM723 194H338V206H723V194ZM759 291V230H747V291H759ZM30 327H723V315H30V327ZM-6 206V291H6V206H-6ZM6 206V200H-6V206H6ZM6 200V156H-6V200H6ZM6 156V149H-6V156H6ZM-6 30V149H6V30H-6ZM30 315C16.7452 315 6 304.255 6 291H-6C-6 310.882 10.1178 327 30 327V315ZM747 291C747 304.255 736.255 315 723 315V327C742.882 327 759 310.882 759 291H747ZM723 206C736.255 206 747 216.745 747 230H759C759 210.118 742.882 194 723 194V206ZM310 178C310 193.464 322.536 206 338 206V194C329.163 194 322 186.837 322 178H310ZM338 150C322.536 150 310 162.536 310 178H322C322 169.163 329.163 162 338 162V150ZM451 126C451 139.255 440.255 150 427 150V162C446.882 162 463 145.882 463 126H451ZM30 -6C10.1178 -6 -6 10.1178 -6 30H6C6 16.7452 16.7452 6 30 6V-6ZM427 6C440.255 6 451 16.7452 451 30H463C463 10.1178 446.882 -6 427 -6V6Z" fill="url(#paint0_linear_2811_1324)" mask="url(#path-1-inside-1_2811_1324)"/>
<defs>
<linearGradient id="paint0_linear_2811_1324" x1="0" y1="160.5" x2="753" y2="160.5" gradientUnits="userSpaceOnUse">
<stop stop-color="#77BBE8"/>
<stop offset="0.525459" stop-color="#C7A4EB"/>
<stop offset="1" stop-color="#FF5238"/>
</linearGradient>
</defs>
</svg>
