<svg width="387" height="83" viewBox="0 0 387 83" fill="none" xmlns="http://www.w3.org/2000/svg">
<rect x="0.970703" y="43.8276" width="384" height="39" rx="19.5" transform="rotate(-6.42776 0.970703 43.8276)" fill="url(#paint0_linear_2830_1215)"/>
<path d="M61.7123 54.9578L61.5541 52.661L54.9311 61.7597L55.0892 64.0564L61.7123 54.9578ZM55.5709 54.0395L53.9809 54.2186L55.0892 64.0564L56.4329 61.6911L55.5709 54.0395ZM61.5541 52.661L60.2105 55.0263L61.0725 62.6779L62.6625 62.4988L61.5541 52.661ZM68.4659 57.2159C69.5127 57.098 70.3029 56.7875 70.8366 56.2846C71.3836 55.7802 71.6197 55.1968 71.5451 54.5343C71.4944 54.0838 71.309 53.6888 70.9889 53.3491C70.6821 53.008 70.2776 52.7517 69.7752 52.5802C69.2729 52.4087 68.7236 52.3565 68.1273 52.4237C67.4914 52.4953 66.9366 52.692 66.4629 53.0137C65.9878 53.3222 65.6291 53.7114 65.3869 54.1815C65.1447 54.6516 65.0527 55.145 65.1109 55.6617L66.7207 55.4803C66.6968 55.2684 66.7325 55.0496 66.8279 54.8242C66.9218 54.5855 67.0864 54.3792 67.3217 54.205C67.5688 54.0162 67.8911 53.8994 68.2885 53.8546C68.7655 53.8009 69.1484 53.8651 69.4373 54.0472C69.7247 54.2161 69.8885 54.4794 69.9288 54.8371C69.9662 55.1684 69.8658 55.4682 69.6276 55.7365C69.388 55.9916 68.9635 56.1535 68.354 56.2222L68.4659 57.2159ZM69.1623 61.9678C69.8115 61.8946 70.3951 61.7149 70.9129 61.4284C71.4293 61.1287 71.8226 60.749 72.0928 60.2892C72.3748 59.8146 72.4822 59.2792 72.415 58.683C72.318 57.8218 71.9092 57.2305 71.1887 56.9091C70.4682 56.5878 69.5382 56.4913 68.3988 56.6196L68.5107 57.6134C68.9745 57.5611 69.372 57.5767 69.7035 57.6601C70.0481 57.7421 70.3127 57.8867 70.497 58.094C70.6946 58.2999 70.8114 58.5618 70.8472 58.8798C70.88 59.1712 70.8296 59.4386 70.696 59.6817C70.5624 59.9249 70.3499 60.1232 70.0586 60.2768C69.7806 60.4289 69.4296 60.5288 69.0056 60.5766C68.3166 60.6542 67.8003 60.5379 67.4568 60.2278C67.1132 59.9176 66.8705 59.5492 66.7285 59.1224L65.1186 59.3037C65.3246 60.1795 65.7785 60.8731 66.4801 61.3844C67.195 61.8942 68.0891 62.0887 69.1623 61.9678ZM73.7864 56.6165C73.8893 57.5307 74.1873 58.329 74.6801 59.0115C75.1847 59.6792 75.8179 60.1781 76.5796 60.5082C77.3413 60.8384 78.1661 60.9534 79.0538 60.8534C79.9548 60.7519 80.7332 60.4563 81.3892 59.9664C82.0584 59.4751 82.558 58.8485 82.8882 58.0868C83.2301 57.3103 83.3495 56.4649 83.2465 55.5507C83.142 54.6233 82.8375 53.8257 82.3329 53.158C81.8416 52.4888 81.215 51.9891 80.4533 51.659C79.7048 51.3273 78.88 51.2123 77.9791 51.3138C77.0914 51.4138 76.3129 51.7095 75.6437 52.2008C74.9745 52.6921 74.4682 53.3194 74.1248 54.0827C73.7947 54.8444 73.6819 55.689 73.7864 56.6165ZM75.3962 56.4351C75.3245 55.7991 75.3936 55.2211 75.6033 54.701C75.8249 54.1662 76.1518 53.7335 76.5842 53.4031C77.0298 53.0711 77.5508 52.8715 78.147 52.8043C78.7432 52.7372 79.2889 52.8166 79.784 53.0426C80.2923 53.2671 80.7073 53.6162 81.029 54.0898C81.3625 54.5487 81.565 55.0961 81.6367 55.7321C81.7083 56.3681 81.6327 56.9468 81.4097 57.4684C81.1999 57.9885 80.8729 58.4212 80.4288 58.7664C79.9964 59.0969 79.4821 59.2957 78.8859 59.3629C78.2896 59.43 77.7374 59.3514 77.229 59.1269C76.7325 58.8876 76.3174 58.5385 75.984 58.0797C75.6638 57.6193 75.4678 57.0711 75.3962 56.4351ZM88.9963 51.5821C89.5926 51.5149 90.1382 51.5943 90.6333 51.8203C91.1416 52.0448 91.5566 52.3939 91.8784 52.8675C92.2118 53.3264 92.4144 53.8738 92.486 54.5098C92.5577 55.1458 92.482 55.7246 92.259 56.2461C92.0492 56.7662 91.7223 57.1989 91.2781 57.5441C90.8457 57.8746 90.3314 58.0734 89.7352 58.1406C89.139 58.2078 88.5867 58.1291 88.0784 57.9046C87.5818 57.6653 87.1668 57.3163 86.8333 56.8574C86.4998 56.3985 86.2973 55.8511 86.2256 55.2151L84.5014 54.2018C84.6491 55.5135 84.9784 56.59 85.4891 57.4315C86.0131 58.2714 86.6582 58.8763 87.4245 59.2462C88.1892 59.6029 89.0154 59.7312 89.9031 59.6312C90.8041 59.5297 91.5826 59.234 92.2385 58.7441C92.9077 58.2528 93.4074 57.6263 93.7375 56.8645C94.0794 56.088 94.1988 55.2427 94.0958 54.3284C93.9914 53.401 93.6868 52.6034 93.1822 51.9357C92.6909 51.2665 92.0644 50.7668 91.3026 50.4367C90.5541 50.1051 89.7294 49.99 88.8284 50.0915L88.9963 51.5821ZM85.5102 55.2957L86.2256 55.2151C86.1659 54.6851 86.2064 54.2109 86.3471 53.7925C86.4996 53.3594 86.7125 52.9866 86.9859 52.674C87.2726 52.3599 87.5932 52.1091 87.9478 51.9216C88.3023 51.7341 88.6518 51.6209 88.9963 51.5821L88.8284 50.0915C88.2587 50.1557 87.748 50.3273 87.2964 50.6062C86.8566 50.8705 86.4875 51.2274 86.1893 51.6769C85.8911 52.1265 85.6828 52.6598 85.5645 53.2769C85.4447 53.8808 85.4266 54.5537 85.5102 55.2957ZM84.5014 54.2018L86.0112 55.0984L85.7806 53.0513C85.706 52.3888 85.7175 51.7167 85.8151 51.0348C85.9112 50.3396 86.1546 49.7017 86.5454 49.121C86.9494 48.5388 87.5473 48.0689 88.3389 47.7113C89.0407 47.3908 89.6564 47.0195 90.1858 46.5976C90.7285 46.1742 91.1518 45.7038 91.4558 45.1865C91.7583 44.656 91.9099 44.0955 91.9104 43.5051L90.3404 43.6819C90.3013 44.1694 90.0812 44.6571 89.68 45.1451C89.2905 45.6183 88.6625 46.0581 87.7958 46.4643C86.7762 46.9414 85.9997 47.5522 85.4663 48.2966C84.9447 49.0263 84.6184 49.8815 84.4874 50.8623C84.3564 51.8432 84.361 52.9563 84.5014 54.2018ZM98.7781 62.8579L97.2556 49.3434L95.6657 49.5225L97.1882 63.037L98.7781 62.8579ZM105.422 53.0524C105.31 52.0587 105.009 51.2339 104.519 50.5779C104.028 49.9087 103.416 49.4208 102.684 49.1142C101.965 48.8061 101.188 48.6991 100.353 48.7931C99.5982 48.8782 98.9508 49.1457 98.4111 49.5956C97.8847 50.044 97.4961 50.6446 97.2455 51.3974C97.0066 52.1355 96.9431 53.0013 97.0551 53.9951C97.1656 54.9755 97.4201 55.8056 97.8187 56.4852C98.2305 57.1634 98.7429 57.6625 99.356 57.9825C99.9822 58.3011 100.673 58.4178 101.428 58.3328C102.263 58.2387 102.996 57.9615 103.629 57.5012C104.275 57.0393 104.763 56.4275 105.093 55.6658C105.423 54.904 105.533 54.0329 105.422 53.0524ZM103.812 53.2338C103.891 53.936 103.813 54.5487 103.577 55.0717C103.354 55.5933 103.018 56.0068 102.569 56.3123C102.134 56.6163 101.631 56.8004 101.062 56.8646C100.598 56.9168 100.127 56.8424 99.6477 56.6415C99.1688 56.4405 98.756 56.1113 98.4093 55.6539C98.0626 55.1965 97.8497 54.6167 97.7706 53.9145C97.6915 53.2122 97.77 52.5996 98.0063 52.0765C98.2426 51.5534 98.5717 51.1407 98.9939 50.8382C99.416 50.5357 99.8589 50.3583 100.323 50.3061C100.892 50.2419 101.423 50.3095 101.915 50.509C102.421 50.707 102.84 51.0355 103.174 51.4944C103.52 51.9518 103.733 52.5316 103.812 53.2338ZM108.543 54.6129C108.501 54.2419 108.551 53.9142 108.694 53.6298C108.836 53.3454 109.071 53.111 109.399 52.9264C109.741 52.7404 110.176 52.6175 110.706 52.5578C111.289 52.4921 111.822 52.5126 112.303 52.6194C112.783 52.7129 113.267 52.8933 113.753 53.1605L113.648 52.2264C113.541 52.1176 113.352 51.9846 113.079 51.8275C112.805 51.6571 112.448 51.5229 112.008 51.425C111.579 51.3122 111.073 51.2887 110.49 51.3544C109.695 51.444 109.02 51.6474 108.466 51.9649C107.91 52.269 107.498 52.6643 107.231 53.1506C106.964 53.6369 106.866 54.2047 106.94 54.8539C107.01 55.4766 107.208 55.9843 107.534 56.3769C107.872 56.7548 108.291 57.0229 108.792 57.1812C109.293 57.3394 109.828 57.3865 110.398 57.3223C111.034 57.2506 111.598 57.0797 112.091 56.8095C112.582 56.526 112.957 56.1618 113.216 55.7167C113.486 55.2569 113.588 54.7355 113.522 54.1525L113.093 53.1946C113.157 53.7644 113.089 54.2349 112.889 54.6063C112.703 54.9761 112.413 55.2637 112.02 55.469C111.628 55.6742 111.166 55.8067 110.636 55.8664C110.278 55.9067 109.948 55.8903 109.644 55.8171C109.34 55.7307 109.089 55.5912 108.893 55.3986C108.695 55.1928 108.579 54.9309 108.543 54.6129ZM108.057 50.3002C108.191 50.1778 108.375 50.0295 108.611 49.8554C108.858 49.6666 109.154 49.499 109.5 49.3527C109.844 49.1931 110.235 49.0887 110.672 49.0395C111.176 48.9828 111.633 49.052 112.044 49.2472C112.467 49.4277 112.704 49.7498 112.757 50.2135L113.496 56.772L115.086 56.5929L114.347 50.0344C114.279 49.4381 114.07 48.9518 113.719 48.5754C113.382 48.1975 112.936 47.9324 112.382 47.7801C111.84 47.6131 111.218 47.5692 110.515 47.6483C109.694 47.7408 109.006 47.9458 108.451 48.2632C107.897 48.5806 107.461 48.8846 107.145 49.1752L108.057 50.3002ZM126.285 46.0729L122.736 50.2969L127.713 55.1703L129.7 54.9464L124.547 50.2941L128.273 45.849L126.285 46.0729ZM122.708 46.476L121.217 46.6439L122.247 55.7861L123.738 55.6181L122.708 46.476ZM117.64 47.0469L115.653 47.2708L120.274 50.7755L116.285 56.4578L118.272 56.2339L122.04 50.3752L117.64 47.0469ZM130.644 50.6135L138.455 49.7336C138.459 49.6526 138.457 49.5723 138.448 49.4928C138.439 49.4133 138.43 49.3339 138.421 49.2544C138.312 48.2871 138.04 47.4792 137.604 46.8305C137.167 46.1686 136.603 45.6821 135.91 45.371C135.218 45.0599 134.441 44.9529 133.58 45.0499C132.798 45.138 132.107 45.3768 131.507 45.7664C130.92 46.1546 130.46 46.6559 130.127 47.2704C129.793 47.8849 129.603 48.5773 129.555 49.3474C129.547 49.5094 129.545 49.6706 129.55 49.8311C129.554 49.9916 129.566 50.158 129.586 50.3302C129.689 51.2444 129.967 52.045 130.42 52.7319C130.885 53.4041 131.465 53.909 132.16 54.2466C132.869 54.5827 133.634 54.7045 134.456 54.6119C135.251 54.5224 135.903 54.355 136.412 54.1098C136.919 53.8513 137.339 53.529 137.671 53.1427C138.002 52.7432 138.294 52.2944 138.546 51.7963L137.163 51.127C137.001 51.4806 136.795 51.799 136.546 52.0821C136.294 52.3519 135.998 52.5798 135.657 52.7659C135.327 52.9372 134.937 53.0482 134.486 53.099C133.89 53.1661 133.359 53.0985 132.894 52.896C132.428 52.6935 132.048 52.3606 131.755 51.8972C131.461 51.4339 131.275 50.8511 131.196 50.1488L131.168 49.5481C131.104 48.9784 131.175 48.474 131.38 48.0349C131.597 47.5811 131.912 47.2169 132.324 46.9424C132.736 46.6679 133.206 46.5008 133.736 46.4411C134.266 46.3814 134.722 46.4374 135.104 46.6091C135.497 46.766 135.814 47.0188 136.055 47.3674C136.307 47.7012 136.486 48.1037 136.593 48.5747L130.492 49.2621L130.644 50.6135ZM141.599 49.48L148.356 48.7187L148.188 47.2281L141.431 47.9894L141.599 49.48ZM146.752 43.7672L147.782 52.9094L149.372 52.7302L148.342 43.5881L146.752 43.7672ZM140.094 44.5173L141.124 53.6594L142.714 53.4803L141.684 44.3381L140.094 44.5173ZM159.162 43.9792L159.004 41.6824L152.381 50.7811L152.539 53.0778L159.162 43.9792ZM153.021 43.0609L151.431 43.2401L152.539 53.0778L153.883 50.7125L153.021 43.0609ZM159.004 41.6824L157.66 44.0477L158.522 51.6993L160.112 51.5202L159.004 41.6824ZM164.503 51.0256L167.344 45.8751L165.595 46.0721L162.754 51.2226L164.503 51.0256ZM170.306 50.3718L169.276 41.2296L167.686 41.4087L168.716 50.5509L170.306 50.3718ZM168.804 45.4289L165.962 45.7491C165.577 45.7924 165.247 45.7826 164.972 45.7197C164.708 45.6421 164.499 45.5114 164.344 45.3275C164.189 45.1437 164.095 44.8994 164.06 44.5947C164.026 44.29 164.064 44.0308 164.174 43.8171C164.284 43.6034 164.46 43.436 164.701 43.3149C164.954 43.1791 165.273 43.0895 165.657 43.0462L168.499 42.726L168.342 41.3348L165.5 41.655C164.878 41.7252 164.318 41.8821 163.822 42.1258C163.34 42.368 162.975 42.7043 162.729 43.1346C162.482 43.565 162.396 44.1114 162.47 44.7738C162.544 45.4231 162.749 45.9366 163.087 46.3145C163.423 46.6792 163.853 46.9259 164.378 47.0546C164.915 47.1819 165.496 47.2105 166.118 47.1403L168.96 46.8201L168.804 45.4289ZM178.957 44.7681C178.886 44.1321 178.955 43.5541 179.165 43.034C179.386 42.4991 179.713 42.0665 180.145 41.736C180.591 41.404 181.112 41.2044 181.708 41.1373C182.199 41.0821 182.665 41.1101 183.106 41.2213C183.56 41.3178 183.96 41.474 184.306 41.6899C184.653 41.9058 184.909 42.1587 185.076 42.4485L184.852 40.461C184.493 40.1259 184.003 39.8925 183.385 39.7609C182.778 39.6146 182.163 39.5766 181.54 39.6467C180.653 39.7467 179.874 40.0424 179.205 40.5337C178.536 41.0251 178.029 41.6524 177.686 42.4156C177.356 43.1773 177.243 44.022 177.348 44.9494C177.451 45.8636 177.749 46.662 178.241 47.3444C178.746 48.0121 179.379 48.511 180.141 48.8412C180.903 49.1713 181.727 49.2864 182.615 49.1864C183.238 49.1162 183.829 48.9489 184.39 48.6845C184.962 48.4053 185.387 48.0623 185.663 47.6555L185.439 45.6681C185.339 45.9745 185.145 46.2781 184.857 46.579C184.568 46.8665 184.213 47.1144 183.794 47.3227C183.386 47.5162 182.937 47.6406 182.447 47.6958C181.851 47.763 181.299 47.6843 180.79 47.4598C180.294 47.2205 179.879 46.8715 179.545 46.4126C179.225 45.9522 179.029 45.404 178.957 44.7681ZM186.938 43.869C187.041 44.7832 187.339 45.5816 187.831 46.264C188.336 46.9317 188.969 47.4306 189.731 47.7608C190.493 48.0909 191.317 48.206 192.205 48.106C193.106 48.0045 193.885 47.7088 194.541 47.2189C195.21 46.7276 195.709 46.101 196.04 45.3393C196.381 44.5628 196.501 43.7175 196.398 42.8032C196.293 41.8758 195.989 41.0782 195.484 40.4105C194.993 39.7413 194.366 39.2416 193.605 38.9115C192.856 38.5799 192.031 38.4648 191.13 38.5663C190.243 38.6663 189.464 38.962 188.795 39.4533C188.126 39.9447 187.62 40.572 187.276 41.3352C186.946 42.0969 186.833 42.9415 186.938 43.869ZM188.548 43.6877C188.476 43.0517 188.545 42.4736 188.755 41.9536C188.976 41.4187 189.303 40.9861 189.736 40.6556C190.181 40.3236 190.702 40.124 191.298 40.0569C191.895 39.9897 192.44 40.0691 192.935 40.2951C193.444 40.5196 193.859 40.8687 194.18 41.3423C194.514 41.8012 194.716 42.3486 194.788 42.9846C194.86 43.6206 194.784 44.1994 194.561 44.7209C194.351 45.241 194.024 45.6737 193.58 46.0189C193.148 46.3494 192.633 46.5482 192.037 46.6154C191.441 46.6826 190.889 46.6039 190.38 46.3794C189.884 46.1401 189.469 45.7911 189.135 45.3322C188.815 44.8718 188.619 44.3236 188.548 43.6877ZM201.822 42.1922C202.868 42.0743 203.658 41.7639 204.192 41.261C204.739 40.7566 204.975 40.1731 204.901 39.5107C204.85 39.0602 204.665 38.6651 204.345 38.3255C204.038 37.9843 203.633 37.728 203.131 37.5565C202.628 37.385 202.079 37.3328 201.483 37.4C200.847 37.4717 200.292 37.6683 199.819 37.99C199.343 38.2985 198.985 38.6878 198.743 39.1578C198.5 39.6279 198.408 40.1213 198.466 40.6381L200.076 40.4567C200.052 40.2447 200.088 40.026 200.184 39.8006C200.277 39.5619 200.442 39.3555 200.677 39.1814C200.924 38.9925 201.247 38.8757 201.644 38.831C202.121 38.7772 202.504 38.8414 202.793 39.0236C203.08 39.1924 203.244 39.4558 203.284 39.8135C203.322 40.1447 203.221 40.4445 202.983 40.7129C202.744 40.968 202.319 41.1298 201.71 41.1985L201.822 42.1922ZM202.518 46.9441C203.167 46.871 203.751 46.6912 204.269 46.4048C204.785 46.1051 205.178 45.7253 205.448 45.2655C205.73 44.791 205.838 44.2556 205.771 43.6593C205.674 42.7981 205.265 42.2068 204.544 41.8855C203.824 41.5641 202.894 41.4676 201.754 41.596L201.866 42.5897C202.33 42.5375 202.728 42.5531 203.059 42.6365C203.404 42.7184 203.668 42.863 203.853 43.0704C204.05 43.2762 204.167 43.5381 204.203 43.8561C204.236 44.1476 204.185 44.4149 204.052 44.6581C203.918 44.9012 203.706 45.0996 203.414 45.2532C203.136 45.4052 202.785 45.5052 202.361 45.5529C201.672 45.6306 201.156 45.5143 200.812 45.2041C200.469 44.894 200.226 44.5255 200.084 44.0987L198.474 44.2801C198.68 45.1559 199.134 45.8494 199.836 46.3607C200.551 46.8706 201.445 47.065 202.518 46.9441ZM212.7 39.1151L216.036 44.6161L217.825 44.4146L212.312 35.6768L208.882 45.4222L210.67 45.2206L212.7 39.1151ZM217.495 45.0556L217.696 46.8443L219.286 46.6652L218.917 43.3859L207.588 44.6621L207.958 47.9414L209.647 47.7511L209.446 45.9624L217.495 45.0556ZM221.888 41.8436C221.846 41.4726 221.897 41.1449 222.039 40.8605C222.181 40.5761 222.417 40.3416 222.745 40.1571C223.086 39.971 223.522 39.8481 224.052 39.7884C224.635 39.7228 225.167 39.7433 225.649 39.85C226.129 39.9435 226.612 40.1239 227.098 40.3912L226.993 39.4571C226.887 39.3483 226.698 39.2153 226.425 39.0582C226.151 38.8878 225.794 38.7536 225.353 38.6556C224.924 38.5429 224.419 38.5194 223.836 38.5851C223.041 38.6746 222.366 38.8781 221.811 39.1955C221.255 39.4997 220.843 39.8949 220.576 40.3812C220.309 40.8675 220.212 41.4353 220.285 42.0845C220.355 42.7073 220.553 43.215 220.879 43.6076C221.217 43.9855 221.636 44.2536 222.137 44.4118C222.638 44.5701 223.173 44.6171 223.743 44.5529C224.379 44.4813 224.944 44.3104 225.436 44.0401C225.928 43.7567 226.303 43.3924 226.561 42.9474C226.831 42.4876 226.934 41.9662 226.868 41.3832L226.438 40.4253C226.502 40.995 226.434 41.4656 226.235 41.8369C226.048 42.2068 225.759 42.4943 225.366 42.6996C224.973 42.9049 224.512 43.0374 223.982 43.0971C223.624 43.1374 223.293 43.1209 222.99 43.0478C222.685 42.9614 222.434 42.8219 222.238 42.6293C222.041 42.4235 221.924 42.1615 221.888 41.8436ZM221.402 37.5308C221.536 37.4084 221.721 37.2602 221.956 37.0861C222.203 36.8972 222.5 36.7296 222.845 36.5833C223.19 36.4238 223.58 36.3194 224.018 36.2701C224.521 36.2134 224.978 36.2827 225.39 36.4779C225.812 36.6583 226.05 36.9804 226.102 37.4441L226.841 44.0027L228.431 43.8235L227.692 37.265C227.625 36.6688 227.416 36.1825 227.065 35.8061C226.727 35.4282 226.281 35.1631 225.727 35.0108C225.185 34.8438 224.563 34.7998 223.861 34.8789C223.039 34.9715 222.351 35.1765 221.797 35.4939C221.242 35.8113 220.807 36.1153 220.491 36.4058L221.402 37.5308ZM231.596 39.341L238.353 38.5798L238.185 37.0892L231.428 37.8505L231.596 39.341ZM236.749 33.6283L237.779 42.7704L239.369 42.5913L238.339 33.4491L236.749 33.6283ZM230.091 34.3783L231.121 43.5205L232.711 43.3414L231.681 34.1992L230.091 34.3783ZM249.576 32.1831L250.606 41.3253L252.196 41.1462L251.166 32.004L249.576 32.1831ZM241.329 33.1123L242.359 42.2545L243.948 42.0754L242.919 32.9332L241.329 33.1123ZM242.809 37.8564L245.651 37.5362C246.234 37.4706 246.685 37.5472 247.005 37.7661C247.325 37.985 247.511 38.3263 247.563 38.79C247.598 39.0948 247.561 39.3672 247.454 39.6074C247.346 39.8343 247.166 40.0223 246.914 40.1714C246.674 40.3058 246.362 40.3946 245.978 40.4379L243.136 40.7581L243.293 42.1493L246.135 41.8291C246.771 41.7574 247.329 41.5939 247.81 41.3384C248.291 41.0829 248.654 40.7268 248.897 40.27C249.141 39.8131 249.226 39.2601 249.153 38.6109C249.043 37.6304 248.638 36.9515 247.938 36.5742C247.249 36.1821 246.435 36.0391 245.494 36.145L242.652 36.4652L242.809 37.8564ZM261.602 35.9606L268.359 35.1994L268.191 33.7088L261.434 34.4701L261.602 35.9606ZM266.754 30.2479L267.784 39.39L269.374 39.2109L268.344 30.0688L266.754 30.2479ZM260.097 30.9979L261.127 40.1401L262.716 39.961L261.687 30.8188L260.097 30.9979ZM272.112 34.6759L279.923 33.796C279.927 33.715 279.925 33.6347 279.916 33.5552C279.907 33.4757 279.898 33.3962 279.889 33.3167C279.78 32.3495 279.508 31.5416 279.073 30.8929C278.636 30.231 278.071 29.7445 277.379 29.4334C276.686 29.1223 275.909 29.0152 275.048 29.1123C274.266 29.2003 273.575 29.4392 272.975 29.8288C272.388 30.217 271.928 30.7183 271.595 31.3328C271.262 31.9473 271.071 32.6396 271.024 33.4098C271.015 33.5718 271.013 33.733 271.018 33.8935C271.023 34.054 271.035 34.2203 271.054 34.3926C271.157 35.3068 271.435 36.1074 271.888 36.7943C272.353 37.4665 272.933 37.9714 273.629 38.309C274.337 38.6451 275.103 38.7669 275.924 38.6743C276.719 38.5847 277.371 38.4174 277.88 38.1722C278.388 37.9137 278.808 37.5914 279.14 37.2051C279.47 36.8055 279.762 36.3567 280.015 35.8587L278.631 35.1894C278.469 35.543 278.264 35.8614 278.014 36.1444C277.763 36.4143 277.466 36.6422 277.125 36.8283C276.795 36.9996 276.405 37.1106 275.955 37.1613C275.359 37.2285 274.828 37.1609 274.362 36.9584C273.897 36.7559 273.517 36.423 273.223 35.9596C272.929 35.4962 272.743 34.9134 272.664 34.2112L272.636 33.6105C272.572 33.0408 272.643 32.5364 272.848 32.0973C273.066 31.6434 273.38 31.2793 273.792 31.0048C274.204 30.7303 274.675 30.5632 275.205 30.5035C275.735 30.4438 276.191 30.4997 276.572 30.6714C276.966 30.8284 277.283 31.0812 277.523 31.4298C277.775 31.7636 277.955 32.166 278.062 32.6371L271.96 33.3244L272.112 34.6759ZM289.393 29.3076L289.235 27.0108L282.612 36.1095L282.77 38.4062L289.393 29.3076ZM283.252 28.3893L281.662 28.5684L282.77 38.4062L284.114 36.0409L283.252 28.3893ZM289.235 27.0108L287.891 29.3761L288.753 37.0277L290.343 36.8486L289.235 27.0108ZM281.871 23.8151C281.922 24.2656 282.084 24.6968 282.359 25.1087C282.645 25.5058 283.036 25.8173 283.531 26.0433C284.038 26.2546 284.636 26.3214 285.324 26.2438C286.027 26.1647 286.595 25.9665 287.029 25.6493C287.461 25.3188 287.766 24.9289 287.943 24.4795C288.133 24.0154 288.202 23.5581 288.151 23.1076L286.74 23.2666C286.759 23.4388 286.736 23.6494 286.67 23.8984C286.603 24.1341 286.454 24.3588 286.223 24.5727C285.991 24.7733 285.643 24.8997 285.179 24.952C284.715 25.0042 284.348 24.9584 284.077 24.8145C283.804 24.6574 283.609 24.4714 283.49 24.2566C283.371 24.0286 283.301 23.8284 283.282 23.6562L281.871 23.8151ZM295.405 40.7061L293.883 27.1916L292.293 27.3708L293.815 40.8853L295.405 40.7061ZM302.049 30.9007C301.937 29.907 301.637 29.0821 301.147 28.4262C300.655 27.757 300.044 27.2691 299.311 26.9625C298.592 26.6544 297.815 26.5473 296.981 26.6414C296.225 26.7264 295.578 26.9939 295.038 27.4439C294.512 27.8923 294.123 28.4929 293.873 29.2457C293.634 29.9837 293.57 30.8496 293.682 31.8433C293.793 32.8238 294.047 33.6538 294.446 34.3335C294.858 35.0116 295.37 35.5107 295.983 35.8308C296.609 36.1494 297.3 36.2661 298.055 36.181C298.89 36.087 299.624 35.8098 300.256 35.3494C300.902 34.8876 301.39 34.2758 301.72 33.514C302.05 32.7523 302.16 31.8812 302.049 30.9007ZM300.44 31.0821C300.519 31.7843 300.44 32.3969 300.204 32.92C299.981 33.4416 299.645 33.8551 299.196 34.1606C298.761 34.4646 298.258 34.6486 297.689 34.7128C297.225 34.7651 296.754 34.6907 296.275 34.4897C295.796 34.2887 295.383 33.9595 295.037 33.5021C294.69 33.0447 294.477 32.4649 294.398 31.7627C294.319 31.0605 294.397 30.4478 294.634 29.9248C294.87 29.4017 295.199 28.9889 295.621 28.6864C296.043 28.3839 296.486 28.2066 296.95 28.1543C297.52 28.0901 298.051 28.1578 298.543 28.3573C299.048 28.5553 299.467 28.8837 299.801 29.3426C300.148 29.8 300.36 30.3798 300.44 31.0821ZM303.447 30.7433C303.55 31.6575 303.848 32.4558 304.341 33.1383C304.845 33.806 305.478 34.3049 306.24 34.635C307.002 34.9652 307.827 35.0802 308.714 34.9802C309.615 34.8787 310.394 34.583 311.05 34.0932C311.719 33.6018 312.218 32.9753 312.549 32.2136C312.891 31.4371 313.01 30.5917 312.907 29.6775C312.802 28.75 312.498 27.9524 311.993 27.2847C311.502 26.6155 310.875 26.1159 310.114 25.7857C309.365 25.4541 308.54 25.3391 307.64 25.4406C306.752 25.5406 305.973 25.8362 305.304 26.3276C304.635 26.8189 304.129 27.4462 303.785 28.2094C303.455 28.9712 303.342 29.8158 303.447 30.7433ZM305.057 30.5619C304.985 29.9259 305.054 29.3479 305.264 28.8278C305.485 28.293 305.812 27.8603 306.245 27.5298C306.69 27.1979 307.211 26.9983 307.807 26.9311C308.404 26.864 308.949 26.9434 309.444 27.1694C309.953 27.3939 310.368 27.7429 310.689 28.2166C311.023 28.6754 311.226 29.2229 311.297 29.8589C311.369 30.4948 311.293 31.0736 311.07 31.5952C310.86 32.1153 310.533 32.5479 310.089 32.8932C309.657 33.2236 309.143 33.4225 308.546 33.4896C307.95 33.5568 307.398 33.4781 306.889 33.2536C306.393 33.0144 305.978 32.6653 305.644 32.2064C305.324 31.7461 305.128 31.1979 305.057 30.5619ZM315.807 29.3508C315.735 28.7149 315.804 28.1368 316.014 27.6167C316.235 27.0819 316.562 26.6493 316.995 26.3188C317.44 25.9868 317.961 25.7872 318.557 25.72C319.048 25.6648 319.514 25.6928 319.956 25.804C320.409 25.9005 320.809 26.0567 321.156 26.2727C321.502 26.4886 321.759 26.7414 321.925 27.0312L321.701 25.0438C321.342 24.7087 320.852 24.4753 320.234 24.3437C319.627 24.1974 319.012 24.1593 318.389 24.2295C317.502 24.3295 316.723 24.6252 316.054 25.1165C315.385 25.6078 314.879 26.2351 314.535 26.9984C314.205 27.7601 314.092 28.6047 314.197 29.5322C314.3 30.4464 314.598 31.2447 315.091 31.9272C315.595 32.5949 316.228 33.0938 316.99 33.4239C317.752 33.7541 318.576 33.8691 319.464 33.7691C320.087 33.699 320.679 33.5317 321.239 33.2673C321.812 32.9881 322.236 32.6451 322.512 32.2383L322.288 30.2509C322.188 30.5573 321.995 30.8609 321.706 31.1617C321.417 31.4493 321.062 31.6972 320.643 31.9055C320.235 32.099 319.787 32.2233 319.296 32.2786C318.7 32.3457 318.148 32.2671 317.639 32.0426C317.143 31.8033 316.728 31.4542 316.394 30.9954C316.074 30.535 315.878 29.9868 315.807 29.3508ZM324.845 28.7351L332.656 27.8551C332.66 27.7742 332.658 27.6939 332.649 27.6144C332.64 27.5349 332.631 27.4554 332.622 27.3759C332.513 26.4087 332.241 25.6008 331.806 24.9521C331.369 24.2902 330.804 23.8037 330.111 23.4926C329.419 23.1815 328.642 23.0744 327.781 23.1715C326.999 23.2595 326.308 23.4984 325.708 23.888C325.121 24.2762 324.661 24.7775 324.328 25.392C323.994 26.0065 323.804 26.6988 323.757 27.469C323.748 27.631 323.746 27.7922 323.751 27.9527C323.755 28.1132 323.767 28.2795 323.787 28.4518C323.89 29.366 324.168 30.1666 324.621 30.8535C325.086 31.5257 325.666 32.0306 326.362 32.3682C327.07 32.7043 327.835 32.826 328.657 32.7335C329.452 32.6439 330.104 32.4766 330.613 32.2314C331.121 31.9729 331.54 31.6505 331.873 31.2643C332.203 30.8647 332.495 30.4159 332.747 29.9179L331.364 29.2486C331.202 29.6022 330.997 29.9205 330.747 30.2036C330.495 30.4735 330.199 30.7014 329.858 30.8875C329.528 31.0588 329.138 31.1698 328.688 31.2205C328.091 31.2877 327.561 31.2201 327.095 31.0176C326.629 30.8151 326.25 30.4822 325.956 30.0188C325.662 29.5554 325.476 28.9726 325.397 28.2704L325.369 27.6697C325.305 27.1 325.376 26.5956 325.581 26.1565C325.798 25.7026 326.113 25.3385 326.525 25.064C326.937 24.7895 327.408 24.6224 327.938 24.5627C328.468 24.503 328.923 24.5589 329.305 24.7306C329.698 24.8876 330.015 25.1404 330.256 25.489C330.508 25.8228 330.688 26.2252 330.794 26.6963L324.693 27.3836L324.845 28.7351ZM332.904 22.7956L333.072 24.2861L338.438 23.6816L338.27 22.191L332.904 22.7956ZM334.837 22.9803L335.822 31.725L337.412 31.5459L336.427 22.8012L334.837 22.9803ZM339.865 22.0113L340.895 31.1535L342.485 30.9743L341.455 21.8322L339.865 22.0113ZM341.346 26.7554L344.188 26.4352C344.771 26.3695 345.222 26.4461 345.542 26.665C345.862 26.884 346.048 27.2253 346.1 27.689C346.135 27.9937 346.098 28.2662 345.991 28.5064C345.882 28.7333 345.702 28.9213 345.451 29.0704C345.211 29.2047 344.899 29.2936 344.515 29.3369L341.673 29.657L341.829 31.0482L344.671 30.7281C345.307 30.6564 345.866 30.4929 346.347 30.2374C346.828 29.9819 347.191 29.6258 347.434 29.169C347.678 28.7121 347.763 28.1591 347.69 27.5099C347.58 26.5294 347.174 25.8505 346.474 25.4732C345.786 25.0811 344.972 24.938 344.031 25.044L341.189 25.3642L341.346 26.7554ZM350.978 25.8917L354.356 25.511L354.188 24.0205L350.81 24.4011L350.978 25.8917ZM349.473 20.929L350.503 30.0711L352.092 29.892L351.063 20.7498L349.473 20.929ZM353.167 25.1418C353.27 26.056 353.568 26.8544 354.061 27.5368C354.566 28.2045 355.199 28.7034 355.961 29.0336C356.722 29.3637 357.547 29.4788 358.435 29.3788C359.336 29.2773 360.114 28.9816 360.77 28.4917C361.439 28.0004 361.939 27.3738 362.269 26.6121C362.611 25.8356 362.731 24.9903 362.628 24.076C362.523 23.1486 362.219 22.351 361.714 21.6833C361.223 21.0141 360.596 20.5144 359.834 20.1843C359.086 19.8527 358.261 19.7376 357.36 19.8391C356.472 19.9391 355.694 20.2348 355.025 20.7261C354.356 21.2175 353.849 21.8448 353.506 22.608C353.176 23.3697 353.063 24.2143 353.167 25.1418ZM354.777 24.9605C354.706 24.3245 354.775 23.7464 354.984 23.2264C355.206 22.6915 355.533 22.2589 355.965 21.9284C356.411 21.5964 356.932 21.3968 357.528 21.3297C358.124 21.2625 358.67 21.3419 359.165 21.5679C359.673 21.7924 360.088 22.1415 360.41 22.6151C360.744 23.074 360.946 23.6214 361.018 24.2574C361.089 24.8934 361.014 25.4722 360.791 25.9937C360.581 26.5138 360.254 26.9465 359.81 27.2917C359.377 27.6222 358.863 27.821 358.267 27.8882C357.671 27.9554 357.118 27.8767 356.61 27.6522C356.114 27.4129 355.699 27.0639 355.365 26.605C355.045 26.1446 354.849 25.5964 354.777 24.9605Z" fill="black"/>
<path d="M42.0531 54.8735C42.1309 53.9078 41.9942 52.9329 41.6624 52.0262C41.3291 51.1135 40.7993 50.2886 40.1107 49.599C39.0869 48.5495 37.7545 47.8573 36.2963 47.6096C34.8397 47.3678 33.3434 47.5804 32.016 48.2329C31.2034 47.6889 30.2878 47.3232 29.3207 47.161C28.3537 46.9987 27.3607 47.0399 26.413 47.2854C24.9785 47.6412 23.6948 48.4414 22.7434 49.564C21.7919 50.6867 21.2302 52.0792 21.1278 53.5336C20.2449 53.9596 19.4586 54.5644 18.8233 55.3089C18.1895 56.0593 17.7263 56.9254 17.4611 57.8621C17.0505 59.2673 17.0992 60.7597 17.6059 62.1301C18.1126 63.5006 19.0457 64.6745 20.2707 65.4763C20.1928 66.442 20.3296 67.4169 20.6614 68.3236C20.9947 69.2362 21.5245 70.0612 22.2131 70.7508C23.2369 71.8002 24.5693 72.4924 26.0274 72.7402C27.4841 72.982 28.9804 72.7694 30.3078 72.1169C31.1204 72.6609 32.036 73.0266 33.003 73.1888C33.9701 73.351 34.963 73.3099 35.9108 73.0643C37.3452 72.7086 38.6289 71.9084 39.5804 70.7857C40.5318 69.6631 41.0996 68.269 41.1945 66.8102C42.0774 66.3842 42.8637 65.7794 43.499 65.0349C44.1328 64.2845 44.5959 63.4184 44.8611 62.4817C45.2718 61.0765 45.217 59.5856 44.7164 58.2137C44.2127 56.8552 43.2796 55.6813 42.0531 54.8735ZM35.4829 71.3439C34.3039 71.6415 33.0648 71.5225 31.9695 71.0054C32.0058 70.9708 32.0693 70.9167 32.1041 70.8762L36.6791 66.4771C36.7925 66.3659 36.8803 66.2295 36.9197 66.0798C36.9652 65.9287 36.9638 65.7703 36.9246 65.6151L35.0489 58.1843L37.6356 58.9027C37.6492 58.9056 37.6628 58.9085 37.6718 58.9189C37.6809 58.9293 37.69 58.9397 37.693 58.9517L39.2478 65.1112C39.5792 66.4243 39.3666 67.824 38.6584 68.9932C37.9548 70.1549 36.8116 71.0021 35.4829 71.3439ZM23.5213 69.5127C22.6817 68.658 22.1657 67.5312 22.082 66.3333C22.1303 66.3465 22.2074 66.3715 22.2633 66.3891L28.378 68.0899C28.5306 68.1339 28.6923 68.1376 28.8495 68.0979C29.0067 68.0582 29.1473 67.9783 29.2608 67.8671L34.846 62.5019L35.4954 65.0744C35.4984 65.0863 35.5014 65.0982 35.4984 65.1117C35.4953 65.1252 35.4923 65.1386 35.4817 65.1477L30.8538 69.5919C29.8647 70.5399 28.5374 71.0654 27.1637 71.0503C25.79 71.0352 24.4802 70.4833 23.5213 69.5127ZM19.2108 58.3474C19.5427 57.1907 20.2734 56.1872 21.2789 55.508C21.2909 55.5558 21.3105 55.6334 21.3241 55.6871L22.8623 61.781C22.9015 61.9362 22.9754 62.0763 23.0872 62.1877C23.1989 62.2992 23.3349 62.3792 23.4875 62.4232L30.95 64.4948L29.0141 66.3548C29.0035 66.3639 28.9929 66.3729 28.9808 66.3759C28.9688 66.379 28.9567 66.382 28.9431 66.3791L22.7603 64.6638C21.4398 64.2987 20.3252 63.4246 19.6596 62.2403C18.9941 61.056 18.8335 59.6553 19.2108 58.3474ZM38.8438 57.931L31.3814 55.8594L33.3172 53.9994C33.3278 53.9904 33.3384 53.9813 33.3505 53.9783C33.3626 53.9752 33.3747 53.9722 33.3883 53.9751L39.571 55.6905C40.5183 55.9529 41.3657 56.4818 42.0241 57.2045C42.6764 57.9287 43.1079 58.8229 43.2613 59.7873C43.4207 60.7501 43.29 61.7355 42.9054 62.6325C42.5148 63.5311 41.8735 64.3024 41.06 64.8506L41.0133 64.6656L39.4735 58.5657C39.4359 58.4165 39.3604 58.2705 39.2487 58.159C39.1369 58.0475 39.001 57.9676 38.8438 57.931ZM40.2493 54.0209C40.201 54.0077 40.1239 53.9827 40.068 53.9651L33.9533 52.2643C33.8007 52.2203 33.639 52.2167 33.4818 52.2563C33.3246 52.296 33.184 52.376 33.0705 52.4871L27.4929 57.8568L26.8435 55.2843C26.8405 55.2724 26.8375 55.2604 26.8405 55.247C26.8435 55.2335 26.8466 55.22 26.8572 55.211L31.4851 50.7668C32.1944 50.0862 33.0803 49.6213 34.0462 49.4219C35.012 49.2226 36.0139 49.2935 36.931 49.6397C37.8526 49.9785 38.6531 50.5764 39.2419 51.3547C39.8277 52.1211 40.1775 53.0486 40.2493 54.0209ZM27.2779 62.1775L24.6912 61.459C24.6776 61.4561 24.664 61.4532 24.6549 61.4428C24.6459 61.4324 24.6368 61.422 24.6338 61.41L23.079 55.2505C22.841 54.3074 22.8795 53.3136 23.1931 52.3901C23.5066 51.4665 24.077 50.6432 24.8407 50.0251C25.6043 49.4069 26.528 49.0151 27.5074 48.8948C28.4868 48.7746 29.4795 48.9367 30.3633 49.3548C30.327 49.3894 30.2695 49.442 30.2287 49.484L25.6537 53.8831C25.5403 53.9943 25.4525 54.1307 25.4131 54.2803C25.3677 54.4315 25.3691 54.5899 25.4082 54.7451L27.2779 62.1775ZM27.8394 59.2549L30.3287 56.8616L33.6543 57.7808L34.4905 61.0933L32.0026 63.4927L28.677 62.5735L27.8394 59.2549Z" fill="black"/>
<defs>
<linearGradient id="paint0_linear_2830_1215" x1="0.159749" y1="65.3703" x2="384.216" y2="61.8186" gradientUnits="userSpaceOnUse">
<stop stop-color="#56E575"/>
<stop offset="1" stop-color="#02FF54"/>
</linearGradient>
</defs>
</svg>
