<svg width="312" height="187" viewBox="0 0 312 187" fill="none" xmlns="http://www.w3.org/2000/svg">
<mask id="path-1-inside-1_2811_1395" fill="white">
<path fill-rule="evenodd" clip-rule="evenodd" d="M0 17C0 7.61116 7.61116 0 17 0H194C203.389 0 211 7.61116 211 17V55C211 64.3888 203.389 72 194 72H177.5C169.492 72 163 78.4919 163 86.5C163 94.5081 169.492 101 177.5 101H295C304.389 101 312 108.611 312 118V170C312 179.389 304.389 187 295 187H17C7.61116 187 0 179.389 0 170V103V101V72V67V17Z"/>
</mask>
<path d="M194 -2H17V2H194V-2ZM213 55V17H209V55H213ZM177.5 74H194V70H177.5V74ZM295 99H177.5V103H295V99ZM314 170V118H310V170H314ZM17 189H295V185H17V189ZM-2 103V170H2V103H-2ZM2 103V101H-2V103H2ZM2 101V72H-2V101H2ZM2 72V67H-2V72H2ZM-2 17V67H2V17H-2ZM17 185C8.71573 185 2 178.284 2 170H-2C-2 180.493 6.50659 189 17 189V185ZM310 170C310 178.284 303.284 185 295 185V189C305.493 189 314 180.493 314 170H310ZM295 103C303.284 103 310 109.716 310 118H314C314 107.507 305.493 99 295 99V103ZM161 86.5C161 95.6127 168.387 103 177.5 103V99C170.596 99 165 93.4036 165 86.5H161ZM177.5 70C168.387 70 161 77.3873 161 86.5H165C165 79.5964 170.596 74 177.5 74V70ZM209 55C209 63.2843 202.284 70 194 70V74C204.493 74 213 65.4934 213 55H209ZM17 -2C6.50659 -2 -2 6.50659 -2 17H2C2 8.71573 8.71573 2 17 2V-2ZM194 2C202.284 2 209 8.71573 209 17H213C213 6.50659 204.493 -2 194 -2V2Z" fill="url(#paint0_linear_2811_1395)" mask="url(#path-1-inside-1_2811_1395)"/>
<defs>
<linearGradient id="paint0_linear_2811_1395" x1="0" y1="93.5" x2="312" y2="93.5" gradientUnits="userSpaceOnUse">
<stop stop-color="#F9CF0A"/>
<stop offset="1" stop-color="#F73C59"/>
</linearGradient>
</defs>
</svg>
