<svg width="753" height="321" viewBox="0 0 753 321" fill="none" xmlns="http://www.w3.org/2000/svg">
<mask id="path-1-inside-1_2797_1928" fill="white">
<path fill-rule="evenodd" clip-rule="evenodd" d="M0 30C0 13.4315 13.4315 0 30 0H453C469.569 0 483 13.4315 483 30V126C483 142.569 469.569 156 453 156H338C325.85 156 316 165.85 316 178C316 190.15 325.85 200 338 200H723C739.569 200 753 213.431 753 230V291C753 307.569 739.569 321 723 321H30C13.4315 321 0 307.569 0 291V206V200V156V149V30Z"/>
</mask>
<path d="M453 -6H30V6H453V-6ZM489 126V30H477V126H489ZM338 162H453V150H338V162ZM723 194H338V206H723V194ZM759 291V230H747V291H759ZM30 327H723V315H30V327ZM-6 206V291H6V206H-6ZM6 206V200H-6V206H6ZM6 200V156H-6V200H6ZM6 156V149H-6V156H6ZM-6 30V149H6V30H-6ZM30 315C16.7452 315 6 304.255 6 291H-6C-6 310.882 10.1178 327 30 327V315ZM747 291C747 304.255 736.255 315 723 315V327C742.882 327 759 310.882 759 291H747ZM723 206C736.255 206 747 216.745 747 230H759C759 210.118 742.882 194 723 194V206ZM310 178C310 193.464 322.536 206 338 206V194C329.163 194 322 186.837 322 178H310ZM338 150C322.536 150 310 162.536 310 178H322C322 169.163 329.163 162 338 162V150ZM477 126C477 139.255 466.255 150 453 150V162C472.882 162 489 145.882 489 126H477ZM30 -6C10.1177 -6 -6 10.1178 -6 30H6C6 16.7452 16.7452 6 30 6V-6ZM453 6C466.255 6 477 16.7452 477 30H489C489 10.1178 472.882 -6 453 -6V6Z" fill="url(#paint0_linear_2797_1928)" mask="url(#path-1-inside-1_2797_1928)"/>
<defs>
<linearGradient id="paint0_linear_2797_1928" x1="0" y1="160.5" x2="753" y2="160.5" gradientUnits="userSpaceOnUse">
<stop stop-color="#EFBED1"/>
<stop offset="1" stop-color="#E451F0"/>
</linearGradient>
</defs>
</svg>
