<svg width="740" height="275" viewBox="0 0 740 275" fill="none" xmlns="http://www.w3.org/2000/svg">
<path d="M0.771222 217.065C0.771222 212.43 2.31358 207.795 6.16948 204.705C10.0254 200.843 13.8813 199.298 18.5083 199.298C23.1354 199.298 26.9913 200.843 30.076 203.933C33.9319 207.795 35.4743 211.657 35.4743 216.292C35.4743 220.927 33.9319 225.562 30.076 228.652C26.9913 232.514 23.1354 234.059 18.5083 234.059C13.8813 234.059 9.25419 232.514 6.16948 229.424C2.31358 225.562 0.771222 221.699 0.771222 217.065ZM46.2708 257.233C46.2708 252.598 47.8131 247.964 51.669 244.874C55.5249 241.011 59.3808 239.466 64.0079 239.466C68.635 239.466 73.262 241.011 76.3468 244.874C80.2027 247.964 81.745 252.598 81.745 257.233C81.745 261.868 80.2027 266.503 76.3468 269.593C72.4909 273.455 68.635 275 64.0079 275C59.3808 275 54.7538 273.455 51.669 269.593C47.8131 266.503 46.2708 261.868 46.2708 257.233ZM45.4996 138.273C45.4996 133.638 47.042 129.003 50.8979 125.913C54.7538 122.051 58.6096 120.506 63.2367 120.506C67.8638 120.506 72.4909 122.051 75.5756 125.913C79.4315 129.775 80.9738 133.638 80.9738 138.273C80.9738 142.907 79.4315 147.542 75.5756 150.632C71.7197 153.722 67.8638 155.267 63.2367 155.267C58.6096 155.267 53.9826 153.722 50.8979 150.632C47.8131 147.542 45.4996 142.907 45.4996 138.273ZM45.4996 19.3119C45.4996 14.6771 47.042 10.0422 50.1267 6.95233C53.9826 3.08997 57.8385 1.54502 62.4655 1.54502C67.0926 1.54502 71.7197 3.08997 74.8044 6.95233C78.6603 10.8147 80.2027 14.6771 80.2027 19.3119C80.2027 23.9467 78.6603 28.5815 74.8044 31.6714C70.9485 35.5338 67.0926 37.0787 62.4655 37.0787C57.8385 37.0787 53.9826 35.5338 50.8979 31.6714C47.042 27.8091 45.4996 23.9467 45.4996 19.3119ZM92.5415 255.688C92.5415 251.053 94.0839 246.419 97.1686 243.329C101.025 239.466 104.88 237.921 109.507 237.921C114.135 237.921 118.762 239.466 121.846 243.329C125.702 246.419 127.245 251.053 127.245 255.688C127.245 260.323 125.702 264.958 121.846 268.048C117.99 271.91 114.135 273.455 109.507 273.455C104.88 273.455 100.253 271.91 97.1686 268.048C94.0839 264.958 92.5415 261.096 92.5415 255.688ZM92.5415 137.5C92.5415 132.865 94.0839 128.23 97.9398 125.141C101.796 121.278 105.652 119.733 110.279 119.733C114.906 119.733 119.533 121.278 122.618 125.141C126.473 129.003 128.016 132.865 128.016 137.5C128.016 142.135 126.473 146.77 122.618 149.86C119.533 152.949 115.677 154.494 110.279 154.494C105.652 154.494 101.024 152.949 97.9398 149.86C94.0839 145.997 92.5415 142.135 92.5415 137.5ZM91.7703 17.7669C91.7703 13.1321 93.3127 8.49727 97.1686 5.40738C101.024 1.54502 104.88 0.000100251 109.507 0.000100048C114.135 9.98454e-05 118.762 1.54502 121.846 5.40738C125.702 9.26974 127.245 13.1321 127.245 17.7669C127.245 22.4018 125.702 27.0366 121.846 30.1265C117.99 33.9888 114.135 35.5338 109.507 35.5338C104.88 35.5338 100.253 33.9888 97.1686 30.1265C94.0839 27.0366 91.7703 23.1742 91.7703 17.7669ZM137.27 255.688C137.27 251.053 138.812 246.419 141.897 243.329C145.753 239.466 149.609 237.921 154.236 237.921C158.863 237.921 163.49 239.466 166.575 243.329C170.431 247.191 171.973 251.053 171.973 255.688C171.973 260.323 170.431 264.958 166.575 268.048C162.719 271.91 158.863 273.455 154.236 273.455C149.609 273.455 144.982 271.91 141.897 268.048C138.812 264.958 137.27 261.096 137.27 255.688ZM136.499 136.728C136.499 132.093 138.041 127.458 141.126 124.368C144.982 120.506 148.838 118.961 153.465 118.961C158.092 118.961 162.719 120.506 165.804 124.368C169.659 127.458 171.202 132.093 171.202 136.728C171.202 141.362 169.659 145.997 165.804 149.087C161.948 152.949 158.092 154.494 153.465 154.494C148.838 154.494 144.211 152.949 141.126 149.087C138.812 145.997 136.499 142.135 136.499 136.728ZM136.499 17.7669C136.499 13.1321 138.041 8.49726 141.897 5.40738C145.753 1.54502 149.609 9.82922e-05 154.236 9.80896e-05C158.863 9.7887e-05 163.49 1.54502 166.575 5.40738C170.431 9.26973 171.973 13.1321 171.973 17.7669C171.973 22.4018 170.431 27.0366 166.575 30.1265C163.49 33.9888 158.863 35.5338 154.236 35.5338C149.609 35.5338 144.982 33.9888 141.897 30.899C138.041 27.0366 136.499 23.1742 136.499 17.7669ZM182.769 58.7079C182.769 54.0731 184.312 49.4383 188.168 46.3484C192.024 42.486 195.88 40.9411 200.507 40.9411C205.134 40.9411 209.761 42.486 212.845 46.3484C216.701 49.4383 218.244 54.0731 218.244 58.7079C218.244 63.3428 216.701 67.9776 212.845 71.0675C209.761 74.9298 205.905 76.4748 200.507 76.4748C195.88 76.4748 191.252 74.9298 188.168 71.0675C184.312 67.2051 182.769 63.3428 182.769 58.7079Z" fill="url(#paint0_linear_2801_2586)"/>
<path d="M264.514 256.461C264.514 251.826 266.057 247.191 269.913 244.101C273.768 240.239 277.624 238.694 282.251 238.694C286.879 238.694 291.506 240.239 294.59 244.101C298.446 247.964 299.989 251.826 299.989 256.461C299.989 261.096 298.446 265.731 294.59 268.82C290.734 272.683 286.879 274.228 282.251 274.228C277.624 274.228 272.997 272.683 269.913 268.82C266.057 265.731 264.514 261.096 264.514 256.461ZM264.514 217.065C264.514 212.43 266.057 207.795 269.913 204.705C273.768 200.843 277.624 199.298 282.251 199.298C286.879 199.298 291.506 200.843 294.59 204.705C298.446 208.568 299.989 212.43 299.989 217.065C299.989 221.7 298.446 226.334 294.59 229.424C291.506 232.514 287.65 234.059 282.251 234.059C277.624 234.059 272.997 232.514 269.913 229.424C266.057 225.562 264.514 221.7 264.514 217.065ZM264.514 176.896C264.514 172.261 266.057 167.627 269.141 164.537C272.997 160.674 276.853 159.129 281.48 159.129C286.107 159.129 290.734 160.674 293.819 164.537C297.675 168.399 299.217 172.261 299.217 176.896C299.217 181.531 297.675 186.166 293.819 189.256C289.963 192.346 286.107 193.891 281.48 193.891C276.853 193.891 272.226 192.346 269.141 189.256C266.057 186.166 264.514 182.304 264.514 176.896ZM264.514 137.5C264.514 132.865 266.057 128.231 269.913 125.141C273.768 121.278 277.624 119.733 282.251 119.733C286.879 119.733 291.506 121.278 294.59 125.141C298.446 128.231 299.989 132.865 299.989 137.5C299.989 142.135 298.446 146.77 294.59 149.86C290.734 153.722 286.879 155.267 282.251 155.267C277.624 155.267 272.997 153.722 269.913 149.86C266.057 145.997 264.514 142.135 264.514 137.5ZM264.514 97.3317C264.514 92.6969 266.057 88.062 269.913 84.9721C273.768 81.1098 277.624 79.5648 282.251 79.5648C286.879 79.5648 291.506 81.1098 294.59 84.9721C298.446 88.8345 299.989 92.6969 299.989 97.3317C299.989 101.967 298.446 106.601 294.59 109.691C290.734 113.554 286.879 115.099 282.251 115.099C277.624 115.099 272.997 113.554 269.913 109.691C266.057 106.601 264.514 102.739 264.514 97.3317ZM264.514 57.9356C264.514 53.3008 266.057 48.666 269.913 45.5761C273.768 41.7137 277.624 40.1688 282.251 40.1688C286.879 40.1688 291.506 41.7137 294.59 45.5761C298.446 49.4384 299.989 53.3008 299.989 57.9356C299.989 62.5705 298.446 67.2053 294.59 70.2952C291.506 74.1575 287.65 75.7025 282.251 75.7025C277.624 75.7025 272.997 74.1575 269.913 70.2952C266.057 67.2053 264.514 62.5705 264.514 57.9356ZM264.514 18.5396C264.514 13.9047 266.057 9.2699 269.141 6.18002C272.997 2.31766 276.853 0.772709 281.48 0.772709C286.107 0.772708 290.734 2.31766 293.819 6.18002C297.675 10.0424 299.217 13.9047 299.217 18.5396C299.217 23.1744 297.675 27.8092 293.819 30.8991C289.963 33.989 286.107 35.5339 281.48 35.5339C276.853 35.5339 272.226 33.989 269.141 30.8991C266.057 27.8092 264.514 23.1744 264.514 18.5396ZM447.284 256.461C447.284 251.826 448.826 247.191 452.682 244.101C456.538 240.239 460.394 238.694 465.021 238.694C469.648 238.694 474.275 240.239 477.36 244.101C481.216 247.191 482.758 251.826 482.758 256.461C482.758 261.096 481.216 265.73 477.36 268.82C473.504 272.683 469.648 274.228 465.021 274.228C460.394 274.228 455.767 272.683 452.682 268.82C448.826 265.73 447.284 261.868 447.284 256.461ZM447.284 217.065C447.284 212.43 448.826 207.795 452.682 204.705C456.538 200.843 460.394 199.298 465.021 199.298C469.648 199.298 474.275 200.843 477.36 204.705C481.216 208.568 482.758 212.43 482.758 217.065C482.758 221.7 481.216 226.334 477.36 229.424C474.275 233.287 470.419 234.832 465.021 234.832C460.394 234.832 455.767 233.287 452.682 229.424C448.826 226.334 447.284 221.7 447.284 217.065ZM401.784 177.669C401.784 173.034 403.327 168.399 406.411 165.309C410.267 161.447 414.123 159.902 418.75 159.902C423.377 159.902 428.004 161.447 431.089 165.309C434.945 169.172 436.487 173.034 436.487 177.669C436.487 182.304 434.945 186.938 431.089 190.028C427.233 193.891 423.377 195.436 418.75 195.436C414.123 195.436 409.496 193.891 406.411 190.028C403.327 186.938 401.784 182.304 401.784 177.669ZM401.013 98.1041C401.013 93.4693 402.555 88.8345 406.411 85.7446C410.267 81.8822 414.123 80.3373 418.75 80.3373C423.377 80.3373 428.004 81.8822 431.089 85.7446C434.945 88.8345 436.487 93.4693 436.487 98.1041C436.487 102.739 434.945 107.374 431.089 110.464C427.233 114.326 423.377 115.871 418.75 115.871C414.123 115.871 409.496 114.326 406.411 110.464C403.327 107.374 401.013 102.739 401.013 98.1041ZM446.513 58.7081C446.513 54.0733 448.055 49.4384 451.911 46.3485C455.767 42.4862 459.623 40.9412 464.25 40.9412C468.877 40.9412 473.504 42.4862 476.589 46.3485C480.444 49.4384 481.987 54.0733 481.987 58.7081C481.987 63.3429 480.444 67.9778 476.589 71.0676C473.504 74.93 469.648 76.4749 464.25 76.4749C459.623 76.4749 454.996 74.93 451.911 71.0676C448.055 67.2053 446.513 63.3429 446.513 58.7081ZM446.513 18.5395C446.513 13.9047 448.055 9.2699 451.14 6.18001C454.996 2.31765 458.851 0.772701 463.479 0.772701C468.106 0.7727 472.733 2.31765 475.817 6.18001C479.673 10.0424 481.216 13.9047 481.216 18.5395C481.216 23.1744 479.673 27.8092 475.817 30.8991C471.961 34.7615 468.106 36.3064 463.479 36.3064C458.851 36.3064 454.224 34.7615 451.14 30.8991C448.055 27.8092 446.513 23.9468 446.513 18.5395Z" fill="url(#paint1_linear_2801_2586)"/>
<path d="M509.749 256.461C509.749 251.826 511.292 247.191 515.148 244.101C519.004 240.239 522.859 238.694 527.487 238.694C532.114 238.694 535.97 240.239 539.825 244.101C543.681 247.964 545.224 251.826 545.224 256.461C545.224 261.096 542.91 265.731 539.825 268.82C535.97 272.683 532.114 274.228 527.487 274.228C522.859 274.228 518.232 272.683 515.148 268.82C511.292 265.731 509.749 261.096 509.749 256.461Z" fill="url(#paint2_linear_2801_2586)"/>
<path d="M847.526 256.461C847.526 251.826 849.068 247.191 852.924 244.101C856.78 240.239 860.636 238.694 865.263 238.694C869.89 238.694 874.517 240.239 877.602 244.101C881.458 247.964 883 251.826 883 256.461C883 261.096 881.458 265.731 877.602 268.82C873.746 272.683 869.89 274.228 865.263 274.228C860.636 274.228 856.009 272.683 852.924 268.82C849.068 265.731 847.526 261.096 847.526 256.461ZM847.526 217.065C847.526 212.43 849.068 207.795 852.924 204.705C856.78 200.843 860.636 199.298 865.263 199.298C869.89 199.298 874.517 200.843 877.602 204.705C881.458 208.568 883 212.43 883 217.065C883 221.7 881.458 226.334 877.602 229.424C874.517 232.514 870.661 234.059 865.263 234.059C860.636 234.059 856.009 232.514 852.924 229.424C849.068 225.562 847.526 221.7 847.526 217.065ZM847.526 176.896C847.526 172.261 849.068 167.627 852.153 164.537C856.009 160.674 859.865 159.129 864.492 159.129C869.119 159.129 873.746 160.674 876.831 164.537C880.686 168.399 882.229 172.261 882.229 176.896C882.229 181.531 880.686 186.166 876.831 189.256C872.975 192.346 869.119 193.891 864.492 193.891C859.865 193.891 855.238 192.346 852.153 189.256C849.068 186.166 847.526 182.304 847.526 176.896ZM847.526 137.5C847.526 132.865 849.068 128.231 852.924 125.141C856.78 121.278 860.636 119.733 865.263 119.733C869.89 119.733 874.517 121.278 877.602 125.141C881.458 128.231 883 132.865 883 137.5C883 142.135 881.458 146.77 877.602 149.86C873.746 153.722 869.89 155.267 865.263 155.267C860.636 155.267 856.009 153.722 852.924 149.86C849.068 145.997 847.526 142.135 847.526 137.5ZM847.526 97.3317C847.526 92.6969 849.068 88.062 852.924 84.9721C856.78 81.1098 860.636 79.5648 865.263 79.5648C869.89 79.5648 874.517 81.1098 877.602 84.9721C881.458 88.8345 883 92.6969 883 97.3317C883 101.967 881.458 106.601 877.602 109.691C873.746 113.554 869.89 115.099 865.263 115.099C860.636 115.099 856.009 113.554 852.924 109.691C849.068 106.601 847.526 102.739 847.526 97.3317Z" fill="url(#paint3_linear_2801_2586)"/>
<path d="M374.022 156.039H327.751C317.726 156.039 310.014 148.314 310.014 138.272C310.014 128.23 317.726 120.505 327.751 120.505H374.022C384.047 120.505 391.759 128.23 391.759 138.272C391.759 147.542 383.276 156.039 374.022 156.039Z" fill="url(#paint4_linear_2801_2586)"/>
<path d="M576.842 256.461C576.842 251.826 578.384 247.191 582.24 244.101C586.096 240.239 589.952 238.694 594.579 238.694C599.206 238.694 603.833 240.239 606.918 244.101C610.774 247.964 612.316 251.826 612.316 256.461C612.316 261.096 610.774 265.731 606.918 268.82C603.062 272.683 599.206 274.228 594.579 274.228C589.952 274.228 585.325 272.683 582.24 268.82C579.155 265.731 576.842 261.096 576.842 256.461Z" fill="url(#paint5_linear_2801_2586)"/>
<path d="M576.842 217.065C576.842 212.43 578.384 207.795 582.24 204.705C586.096 200.843 589.952 199.298 594.579 199.298C599.206 199.298 603.833 200.843 606.918 204.705C610.774 208.567 612.316 212.43 612.316 217.065C612.316 221.699 610.774 226.334 606.918 229.424C603.833 232.514 599.977 234.059 594.579 234.059C589.952 234.059 585.325 232.514 582.24 229.424C579.155 225.562 576.842 221.699 576.842 217.065Z" fill="url(#paint6_linear_2801_2586)"/>
<path d="M576.842 176.896C576.842 172.261 578.384 167.626 581.469 164.536C585.325 160.674 589.181 159.129 593.808 159.129C598.435 159.129 603.062 160.674 606.147 164.536C610.003 168.399 611.545 172.261 611.545 176.896C611.545 181.531 610.003 186.166 606.147 189.256C602.291 192.345 598.435 193.89 593.808 193.89C589.181 193.89 584.554 192.345 581.469 189.256C578.384 186.166 576.842 182.303 576.842 176.896Z" fill="url(#paint7_linear_2801_2586)"/>
<path d="M576.842 137.5C576.842 132.865 578.384 128.23 582.24 125.14C586.096 121.278 589.952 119.733 594.579 119.733C599.206 119.733 603.833 121.278 606.918 125.14C610.774 128.23 612.316 132.865 612.316 137.5C612.316 142.135 610.774 146.77 606.918 149.86C603.062 153.722 599.206 155.267 594.579 155.267C589.952 155.267 585.325 153.722 582.24 149.86C578.384 145.997 576.842 142.135 576.842 137.5Z" fill="url(#paint8_linear_2801_2586)"/>
<path d="M576.842 97.3319C576.842 92.697 578.384 88.0622 582.24 84.9723C586.096 81.1099 589.952 79.565 594.579 79.565C599.206 79.565 603.833 81.1099 606.918 84.9723C610.774 88.8347 612.316 92.697 612.316 97.3318C612.316 101.967 610.774 106.602 606.918 109.691C603.062 113.554 599.206 115.099 594.579 115.099C589.952 115.099 585.325 113.554 582.24 109.691C578.384 106.602 576.842 102.739 576.842 97.3319Z" fill="url(#paint9_linear_2801_2586)"/>
<path d="M576.842 57.9355C576.842 53.3007 578.384 48.6658 582.24 45.576C586.096 42.4861 589.952 40.1687 594.579 40.1687C599.206 40.1687 603.833 41.7136 606.918 45.576C610.774 49.4383 612.316 53.3007 612.316 57.9355C612.316 62.5703 610.774 67.2052 606.918 70.295C603.833 74.1574 599.977 75.7024 594.579 75.7024C589.952 75.7024 585.325 74.1574 582.24 70.2951C578.384 67.2052 576.842 62.5703 576.842 57.9355Z" fill="url(#paint10_linear_2801_2586)"/>
<path d="M622.341 19.3119C622.341 14.6771 623.884 10.0422 626.969 6.95232C630.824 3.08996 634.68 1.54501 639.307 1.54501C643.934 1.54501 648.561 3.08996 651.646 6.95232C655.502 10.8147 657.044 14.6771 657.044 19.3119C657.044 23.9467 655.502 27.8091 652.417 31.6714C649.333 35.5338 644.706 37.0787 640.078 37.0787C635.451 37.0787 630.824 35.5338 627.74 31.6714C623.884 27.8091 622.341 23.9467 622.341 19.3119Z" fill="url(#paint11_linear_2801_2586)"/>
<path d="M668.612 17.7668C668.612 13.132 670.155 8.49717 674.01 5.40728C677.866 1.54492 681.722 2.02595e-07 686.349 0C690.976 -2.02595e-07 695.603 1.54492 698.688 5.40728C702.544 9.26964 704.086 13.132 704.086 17.7668C704.086 22.4017 702.544 27.0365 698.688 30.1264C694.832 33.2163 690.976 35.5337 686.349 35.5337C681.722 35.5337 677.095 33.9887 674.01 30.1264C670.155 27.0365 668.612 23.1741 668.612 17.7668Z" fill="url(#paint12_linear_2801_2586)"/>
<path d="M713.34 176.896C713.34 172.261 714.883 167.626 718.739 164.536C722.595 160.674 726.45 159.129 731.078 159.129C735.705 159.129 740.332 160.674 743.416 164.536C747.272 168.399 748.815 172.261 748.815 176.896C748.815 181.531 747.272 186.166 743.416 189.256C740.332 192.345 736.476 193.89 731.078 193.89C726.45 193.89 721.823 192.345 718.739 189.256C715.654 186.166 713.34 181.531 713.34 176.896Z" fill="url(#paint13_linear_2801_2586)"/>
<path d="M713.34 17.7671C713.34 13.1323 714.883 8.49743 718.739 5.40754C722.595 1.54518 726.45 0.00026331 731.078 0.000263107C735.705 0.000262905 740.332 1.54518 743.416 5.40754C747.272 9.2699 748.815 13.1323 748.815 17.7671C748.815 22.4019 747.272 27.0368 743.416 30.1266C740.332 33.2165 736.476 34.7615 731.078 34.7615C726.45 34.7615 721.823 33.2165 718.739 30.1266C714.883 27.0368 713.34 23.1744 713.34 17.7671Z" fill="url(#paint14_linear_2801_2586)"/>
<path d="M759.611 256.461C759.611 251.826 761.154 247.191 765.01 244.101C768.866 240.239 772.721 238.694 777.349 238.694C781.976 238.694 786.603 240.239 789.687 244.101C793.543 247.191 795.086 251.826 795.086 256.461C795.086 261.096 793.543 265.731 789.687 268.82C785.832 272.683 781.976 274.228 777.349 274.228C772.721 274.228 768.094 272.683 765.01 268.82C761.925 264.958 759.611 261.868 759.611 256.461Z" fill="url(#paint15_linear_2801_2586)"/>
<path d="M759.611 217.065C759.611 212.43 761.154 207.795 765.009 204.705C768.865 200.843 772.721 199.298 777.348 199.298C781.975 199.298 786.602 200.843 789.687 204.705C793.543 208.568 795.085 212.43 795.085 217.065C795.085 221.7 793.543 226.335 789.687 229.424C786.602 233.287 782.747 234.832 777.348 234.832C772.721 234.832 768.094 233.287 765.009 229.424C761.925 225.562 759.611 221.7 759.611 217.065Z" fill="url(#paint16_linear_2801_2586)"/>
<path d="M759.611 177.669C759.611 173.034 761.154 168.399 764.238 165.309C768.094 161.447 771.95 159.902 776.577 159.902C781.204 159.902 785.831 161.447 788.916 165.309C792.772 169.171 794.314 173.034 794.314 177.669C794.314 182.303 792.772 186.938 788.916 190.028C785.06 193.89 781.204 195.435 776.577 195.435C771.95 195.435 767.323 193.89 764.238 190.028C761.154 186.938 759.611 182.303 759.611 177.669Z" fill="url(#paint17_linear_2801_2586)"/>
<path d="M759.611 138.272C759.611 133.638 761.154 129.003 764.238 125.913C768.094 122.051 771.95 120.506 776.577 120.506C781.204 120.506 785.831 122.051 788.916 125.913C792.772 129.775 794.314 133.638 794.314 138.272C794.314 142.907 792.772 147.542 788.916 150.632C785.06 153.722 781.204 155.267 776.577 155.267C771.95 155.267 767.323 153.722 764.238 150.632C761.154 146.77 759.611 142.907 759.611 138.272Z" fill="url(#paint18_linear_2801_2586)"/>
<path d="M758.84 98.1042C758.84 93.4694 760.383 88.8345 764.238 85.7446C768.094 81.8823 771.95 80.3373 776.577 80.3373C781.204 80.3373 785.831 81.8823 788.916 85.7446C792.772 88.8345 794.314 93.4694 794.314 98.1042C794.314 102.739 792.772 107.374 788.916 110.464C785.06 114.326 781.204 115.871 776.577 115.871C771.95 115.871 767.323 114.326 764.238 110.464C761.154 107.374 758.84 102.739 758.84 98.1042Z" fill="url(#paint19_linear_2801_2586)"/>
<path d="M758.84 58.7083C758.84 54.0735 760.383 49.4387 764.238 46.3488C768.094 42.4864 771.95 40.9415 776.577 40.9415C781.204 40.9415 785.831 42.4864 788.916 46.3488C792.772 49.4387 794.314 54.0735 794.314 58.7083C794.314 63.3431 792.772 67.978 788.916 71.0679C785.831 74.9302 781.976 76.4752 776.577 76.4752C771.95 76.4752 767.323 74.9302 764.238 71.0679C761.154 67.2055 758.84 63.3431 758.84 58.7083Z" fill="url(#paint20_linear_2801_2586)"/>
<path d="M687.12 194.663H640.85C630.824 194.663 623.113 186.938 623.113 176.896C623.113 166.854 630.824 159.13 640.85 159.13H687.12C697.146 159.13 704.858 166.854 704.858 176.896C704.858 186.166 696.375 194.663 687.12 194.663Z" fill="url(#paint21_linear_2801_2586)"/>
<path d="M847.526 57.9356V18.5395C847.526 8.49739 855.237 0.772683 865.263 0.772682C875.288 0.772682 883 8.49739 883 18.5395L883 57.9356C883 67.9777 875.288 75.7024 865.263 75.7024C855.237 75.7024 847.526 67.9777 847.526 57.9356Z" fill="url(#paint22_linear_2801_2586)"/>
<path d="M182.77 217.064V176.896C182.77 166.854 190.481 159.129 200.507 159.129C210.532 159.129 218.244 166.854 218.244 176.896V217.064C218.244 227.107 210.532 234.831 200.507 234.831C190.481 234.831 182.77 227.107 182.77 217.064Z" fill="url(#paint23_linear_2801_2586)"/>
<path d="M1.75288e-06 98.1041L0 57.9356C-4.38221e-07 47.8935 7.71179 40.1688 17.7371 40.1688C27.7624 40.1688 35.4742 47.8935 35.4742 57.9356V98.1041C35.4742 108.146 27.7624 115.871 17.7371 115.871C7.71179 115.871 2.1574e-06 107.374 1.75288e-06 98.1041Z" fill="url(#paint24_linear_2801_2586)"/>
<defs>
<linearGradient id="paint0_linear_2801_2586" x1="0" y1="137.5" x2="883" y2="137.5" gradientUnits="userSpaceOnUse">
<stop stop-color="#F9CF0A"/>
<stop offset="1" stop-color="#F73C59"/>
</linearGradient>
<linearGradient id="paint1_linear_2801_2586" x1="0" y1="137.5" x2="883" y2="137.5" gradientUnits="userSpaceOnUse">
<stop stop-color="#F9CF0A"/>
<stop offset="1" stop-color="#F73C59"/>
</linearGradient>
<linearGradient id="paint2_linear_2801_2586" x1="0" y1="137.5" x2="883" y2="137.5" gradientUnits="userSpaceOnUse">
<stop stop-color="#F9CF0A"/>
<stop offset="1" stop-color="#F73C59"/>
</linearGradient>
<linearGradient id="paint3_linear_2801_2586" x1="0" y1="137.5" x2="883" y2="137.5" gradientUnits="userSpaceOnUse">
<stop stop-color="#F9CF0A"/>
<stop offset="1" stop-color="#F73C59"/>
</linearGradient>
<linearGradient id="paint4_linear_2801_2586" x1="0" y1="137.5" x2="883" y2="137.5" gradientUnits="userSpaceOnUse">
<stop stop-color="#F9CF0A"/>
<stop offset="1" stop-color="#F73C59"/>
</linearGradient>
<linearGradient id="paint5_linear_2801_2586" x1="0" y1="137.5" x2="883" y2="137.5" gradientUnits="userSpaceOnUse">
<stop stop-color="#F9CF0A"/>
<stop offset="1" stop-color="#F73C59"/>
</linearGradient>
<linearGradient id="paint6_linear_2801_2586" x1="0" y1="137.5" x2="883" y2="137.5" gradientUnits="userSpaceOnUse">
<stop stop-color="#F9CF0A"/>
<stop offset="1" stop-color="#F73C59"/>
</linearGradient>
<linearGradient id="paint7_linear_2801_2586" x1="0" y1="137.5" x2="883" y2="137.5" gradientUnits="userSpaceOnUse">
<stop stop-color="#F9CF0A"/>
<stop offset="1" stop-color="#F73C59"/>
</linearGradient>
<linearGradient id="paint8_linear_2801_2586" x1="0" y1="137.5" x2="883" y2="137.5" gradientUnits="userSpaceOnUse">
<stop stop-color="#F9CF0A"/>
<stop offset="1" stop-color="#F73C59"/>
</linearGradient>
<linearGradient id="paint9_linear_2801_2586" x1="0" y1="137.5" x2="883" y2="137.5" gradientUnits="userSpaceOnUse">
<stop stop-color="#F9CF0A"/>
<stop offset="1" stop-color="#F73C59"/>
</linearGradient>
<linearGradient id="paint10_linear_2801_2586" x1="0" y1="137.5" x2="883" y2="137.5" gradientUnits="userSpaceOnUse">
<stop stop-color="#F9CF0A"/>
<stop offset="1" stop-color="#F73C59"/>
</linearGradient>
<linearGradient id="paint11_linear_2801_2586" x1="0" y1="137.5" x2="883" y2="137.5" gradientUnits="userSpaceOnUse">
<stop stop-color="#F9CF0A"/>
<stop offset="1" stop-color="#F73C59"/>
</linearGradient>
<linearGradient id="paint12_linear_2801_2586" x1="0" y1="137.5" x2="883" y2="137.5" gradientUnits="userSpaceOnUse">
<stop stop-color="#F9CF0A"/>
<stop offset="1" stop-color="#F73C59"/>
</linearGradient>
<linearGradient id="paint13_linear_2801_2586" x1="0" y1="137.5" x2="883" y2="137.5" gradientUnits="userSpaceOnUse">
<stop stop-color="#F9CF0A"/>
<stop offset="1" stop-color="#F73C59"/>
</linearGradient>
<linearGradient id="paint14_linear_2801_2586" x1="0" y1="137.5" x2="883" y2="137.5" gradientUnits="userSpaceOnUse">
<stop stop-color="#F9CF0A"/>
<stop offset="1" stop-color="#F73C59"/>
</linearGradient>
<linearGradient id="paint15_linear_2801_2586" x1="0" y1="137.5" x2="883" y2="137.5" gradientUnits="userSpaceOnUse">
<stop stop-color="#F9CF0A"/>
<stop offset="1" stop-color="#F73C59"/>
</linearGradient>
<linearGradient id="paint16_linear_2801_2586" x1="0" y1="137.5" x2="883" y2="137.5" gradientUnits="userSpaceOnUse">
<stop stop-color="#F9CF0A"/>
<stop offset="1" stop-color="#F73C59"/>
</linearGradient>
<linearGradient id="paint17_linear_2801_2586" x1="0" y1="137.5" x2="883" y2="137.5" gradientUnits="userSpaceOnUse">
<stop stop-color="#F9CF0A"/>
<stop offset="1" stop-color="#F73C59"/>
</linearGradient>
<linearGradient id="paint18_linear_2801_2586" x1="0" y1="137.5" x2="883" y2="137.5" gradientUnits="userSpaceOnUse">
<stop stop-color="#F9CF0A"/>
<stop offset="1" stop-color="#F73C59"/>
</linearGradient>
<linearGradient id="paint19_linear_2801_2586" x1="0" y1="137.5" x2="883" y2="137.5" gradientUnits="userSpaceOnUse">
<stop stop-color="#F9CF0A"/>
<stop offset="1" stop-color="#F73C59"/>
</linearGradient>
<linearGradient id="paint20_linear_2801_2586" x1="0" y1="137.5" x2="883" y2="137.5" gradientUnits="userSpaceOnUse">
<stop stop-color="#F9CF0A"/>
<stop offset="1" stop-color="#F73C59"/>
</linearGradient>
<linearGradient id="paint21_linear_2801_2586" x1="0" y1="137.5" x2="883" y2="137.5" gradientUnits="userSpaceOnUse">
<stop stop-color="#F9CF0A"/>
<stop offset="1" stop-color="#F73C59"/>
</linearGradient>
<linearGradient id="paint22_linear_2801_2586" x1="0" y1="137.5" x2="883" y2="137.5" gradientUnits="userSpaceOnUse">
<stop stop-color="#F9CF0A"/>
<stop offset="1" stop-color="#F73C59"/>
</linearGradient>
<linearGradient id="paint23_linear_2801_2586" x1="0" y1="137.5" x2="883" y2="137.5" gradientUnits="userSpaceOnUse">
<stop stop-color="#F9CF0A"/>
<stop offset="1" stop-color="#F73C59"/>
</linearGradient>
<linearGradient id="paint24_linear_2801_2586" x1="0" y1="137.5" x2="883" y2="137.5" gradientUnits="userSpaceOnUse">
<stop stop-color="#F9CF0A"/>
<stop offset="1" stop-color="#F73C59"/>
</linearGradient>
</defs>
</svg>
