<svg width="443" height="139" viewBox="0 0 443 139" fill="none" xmlns="http://www.w3.org/2000/svg">
<path d="M1.13464 109.425C1.13464 107.103 1.90582 104.782 3.83378 103.234C5.76174 101.299 7.6897 100.525 10.0033 100.525C12.3168 100.525 14.2448 101.299 15.7871 102.847C17.7151 104.782 18.4863 106.716 18.4863 109.038C18.4863 111.36 17.7151 113.681 15.7871 115.229C14.2448 117.164 12.3168 117.938 10.0033 117.938C7.6897 117.938 5.37615 117.164 3.83378 115.616C1.90582 113.681 1.13464 111.747 1.13464 109.425ZM23.8846 129.546C23.8846 127.224 24.6557 124.902 26.5837 123.355C28.5117 121.42 30.4396 120.646 32.7532 120.646C35.0667 120.646 37.3803 121.42 38.9226 123.355C40.8506 124.902 41.6218 127.224 41.6218 129.546C41.6218 131.867 40.8506 134.189 38.9226 135.737C36.9947 137.671 35.0667 138.445 32.7532 138.445C30.4396 138.445 28.1261 137.671 26.5837 135.737C24.6557 134.189 23.8846 131.867 23.8846 129.546ZM23.499 69.9576C23.499 67.636 24.2701 65.3144 26.1981 63.7667C28.1261 61.832 30.054 61.0582 32.3676 61.0582C34.6811 61.0582 36.9947 61.832 38.537 63.7667C40.465 65.7014 41.2362 67.636 41.2362 69.9576C41.2362 72.2793 40.465 74.6009 38.537 76.1486C36.6091 77.6963 34.6811 78.4702 32.3676 78.4702C30.054 78.4702 27.7405 77.6963 26.1981 76.1486C24.6557 74.6009 23.499 72.2793 23.499 69.9576ZM23.499 10.3697C23.499 8.0481 24.2701 5.72648 25.8125 4.17874C27.7405 2.24407 29.6684 1.4702 31.982 1.4702C34.2955 1.4702 36.6091 2.24407 38.1514 4.17874C40.0794 6.11342 40.8506 8.0481 40.8506 10.3697C40.8506 12.6913 40.0794 15.0129 38.1514 16.5607C36.2235 18.4953 34.2955 19.2692 31.982 19.2692C29.6684 19.2692 27.7405 18.4953 26.1981 16.5607C24.2701 14.626 23.499 12.6913 23.499 10.3697ZM47.0201 128.772C47.0201 126.45 47.7913 124.129 49.3336 122.581C51.2616 120.646 53.1895 119.872 55.5031 119.872C57.8166 119.872 60.1302 120.646 61.6726 122.581C63.6005 124.129 64.3717 126.45 64.3717 128.772C64.3717 131.093 63.6005 133.415 61.6726 134.963C59.7446 136.897 57.8166 137.671 55.5031 137.671C53.1895 137.671 50.876 136.897 49.3336 134.963C47.7913 133.415 47.0201 131.48 47.0201 128.772ZM47.0201 69.5707C47.0201 67.2491 47.7912 64.9275 49.7192 63.3798C51.6472 61.4451 53.5751 60.6712 55.8887 60.6712C58.2022 60.6712 60.5158 61.4451 62.0581 63.3798C63.9861 65.3144 64.7573 67.2491 64.7573 69.5707C64.7573 71.8923 63.9861 74.2139 62.0581 75.7617C60.5158 77.3094 58.5878 78.0833 55.8887 78.0833C53.5751 78.0833 51.2616 77.3094 49.7192 75.7617C47.7912 73.827 47.0201 71.8923 47.0201 69.5707ZM46.6345 9.59583C46.6345 7.27423 47.4057 4.95261 49.3336 3.40487C51.2616 1.4702 53.1895 0.696339 55.5031 0.696339C57.8166 0.696339 60.1302 1.4702 61.6726 3.40487C63.6005 5.33954 64.3717 7.27423 64.3717 9.59583C64.3717 11.9174 63.6005 14.239 61.6726 15.7868C59.7446 17.7215 57.8166 18.4953 55.5031 18.4953C53.1895 18.4953 50.876 17.7215 49.3336 15.7868C47.7912 14.239 46.6345 12.3044 46.6345 9.59583ZM69.3844 128.772C69.3844 126.45 70.1556 124.129 71.6979 122.581C73.6259 120.646 75.5539 119.872 77.8674 119.872C80.181 119.872 82.4945 120.646 84.0369 122.581C85.9648 124.515 86.736 126.45 86.736 128.772C86.736 131.093 85.9648 133.415 84.0369 134.963C82.1089 136.897 80.181 137.671 77.8674 137.671C75.5539 137.671 73.2403 136.897 71.6979 134.963C70.1556 133.415 69.3844 131.48 69.3844 128.772ZM68.9988 69.1838C68.9988 66.8622 69.77 64.5406 71.3123 62.9928C73.2403 61.0581 75.1683 60.2843 77.4818 60.2843C79.7954 60.2843 82.1089 61.0582 83.6513 62.9928C85.5792 64.5406 86.3504 66.8622 86.3504 69.1838C86.3504 71.5054 85.5792 73.827 83.6513 75.3747C81.7233 77.3094 79.7954 78.0833 77.4818 78.0833C75.1683 78.0833 72.8547 77.3094 71.3123 75.3747C70.1556 73.827 68.9988 71.8923 68.9988 69.1838ZM68.9988 9.59583C68.9988 7.27423 69.77 4.95261 71.6979 3.40487C73.6259 1.4702 75.5539 0.696338 77.8674 0.696338C80.181 0.696338 82.4945 1.4702 84.0369 3.40487C85.9648 5.33954 86.736 7.27423 86.736 9.59583C86.736 11.9174 85.9648 14.239 84.0369 15.7868C82.4945 17.7215 80.181 18.4953 77.8674 18.4953C75.5539 18.4953 73.2403 17.7215 71.6979 16.1737C69.77 14.239 68.9988 12.3044 68.9988 9.59583ZM92.1343 30.1034C92.1343 27.7818 92.9055 25.4602 94.8335 23.9124C96.7614 21.9777 98.6894 21.2039 101.003 21.2039C103.316 21.2039 105.63 21.9777 107.172 23.9124C109.1 25.4602 109.872 27.7818 109.872 30.1034C109.872 32.425 109.1 34.7466 107.172 36.2943C105.63 38.229 103.702 39.0029 101.003 39.0029C98.6894 39.0029 96.3758 38.229 94.8335 36.2943C92.9055 34.3597 92.1343 32.425 92.1343 30.1034Z" fill="#F5F5F7"/>
<path d="M133.007 129.159C133.007 126.837 133.778 124.516 135.706 122.968C137.634 121.033 139.562 120.259 141.876 120.259C144.189 120.259 146.503 121.033 148.045 122.968C149.973 124.902 150.744 126.837 150.744 129.159C150.744 131.48 149.973 133.802 148.045 135.35C146.117 137.284 144.189 138.058 141.876 138.058C139.562 138.058 137.248 137.284 135.706 135.35C133.778 133.802 133.007 131.48 133.007 129.159ZM133.007 109.425C133.007 107.103 133.778 104.782 135.706 103.234C137.634 101.299 139.562 100.526 141.876 100.526C144.189 100.526 146.503 101.299 148.045 103.234C149.973 105.169 150.744 107.103 150.744 109.425C150.744 111.747 149.973 114.068 148.045 115.616C146.503 117.164 144.575 117.938 141.876 117.938C139.562 117.938 137.248 117.164 135.706 115.616C133.778 113.681 133.007 111.747 133.007 109.425ZM133.007 89.3045C133.007 86.9829 133.778 84.6612 135.321 83.1135C137.248 81.1788 139.176 80.405 141.49 80.405C143.804 80.405 146.117 81.1788 147.659 83.1135C149.587 85.0482 150.359 86.9829 150.359 89.3045C150.359 91.6261 149.587 93.9477 147.659 95.4954C145.732 97.0432 143.804 97.817 141.49 97.817C139.176 97.817 136.863 97.0432 135.321 95.4954C133.778 93.9477 133.007 92.013 133.007 89.3045ZM133.007 69.5708C133.007 67.2492 133.778 64.9276 135.706 63.3798C137.634 61.4452 139.562 60.6713 141.876 60.6713C144.189 60.6713 146.503 61.4452 148.045 63.3798C149.973 64.9276 150.744 67.2492 150.744 69.5708C150.744 71.8924 149.973 74.214 148.045 75.7617C146.117 77.6964 144.189 78.4703 141.876 78.4703C139.562 78.4703 137.248 77.6964 135.706 75.7617C133.778 73.8271 133.007 71.8924 133.007 69.5708ZM133.007 49.4502C133.007 47.1286 133.778 44.807 135.706 43.2592C137.634 41.3246 139.562 40.5507 141.876 40.5507C144.189 40.5507 146.503 41.3246 148.045 43.2592C149.973 45.1939 150.744 47.1286 150.744 49.4502C150.744 51.7718 149.973 54.0934 148.045 55.6412C146.117 57.5758 144.189 58.3497 141.876 58.3497C139.562 58.3497 137.248 57.5758 135.706 55.6412C133.778 54.0934 133.007 52.1587 133.007 49.4502ZM133.007 29.7165C133.007 27.3949 133.778 25.0733 135.706 23.5256C137.634 21.5909 139.562 20.817 141.876 20.817C144.189 20.817 146.503 21.5909 148.045 23.5256C149.973 25.4602 150.744 27.3949 150.744 29.7165C150.744 32.0381 149.973 34.3597 148.045 35.9075C146.503 37.8421 144.575 38.616 141.876 38.616C139.562 38.616 137.248 37.8422 135.706 35.9075C133.778 34.3597 133.007 32.0381 133.007 29.7165ZM133.007 9.98284C133.007 7.66123 133.778 5.33963 135.321 3.79189C137.248 1.85721 139.176 1.08334 141.49 1.08334C143.804 1.08334 146.117 1.85721 147.659 3.79189C149.587 5.72656 150.359 7.66123 150.359 9.98284C150.359 12.3044 149.587 14.6261 147.659 16.1738C145.732 17.7215 143.804 18.4954 141.49 18.4954C139.176 18.4954 136.863 17.7215 135.321 16.1738C133.778 14.6261 133.007 12.3044 133.007 9.98284ZM224.392 129.159C224.392 126.837 225.163 124.516 227.091 122.968C229.019 121.033 230.947 120.259 233.261 120.259C235.574 120.259 237.888 121.033 239.43 122.968C241.358 124.516 242.129 126.837 242.129 129.159C242.129 131.48 241.358 133.802 239.43 135.35C237.502 137.284 235.574 138.058 233.261 138.058C230.947 138.058 228.634 137.284 227.091 135.35C225.163 133.802 224.392 131.867 224.392 129.159ZM224.392 109.425C224.392 107.103 225.163 104.782 227.091 103.234C229.019 101.299 230.947 100.526 233.261 100.526C235.574 100.526 237.888 101.299 239.43 103.234C241.358 105.169 242.129 107.103 242.129 109.425C242.129 111.747 241.358 114.068 239.43 115.616C237.888 117.551 235.96 118.325 233.261 118.325C230.947 118.325 228.634 117.551 227.091 115.616C225.163 114.068 224.392 111.747 224.392 109.425ZM201.642 89.6914C201.642 87.3698 202.414 85.0482 203.956 83.5004C205.884 81.5658 207.812 80.7919 210.125 80.7919C212.439 80.7919 214.752 81.5658 216.295 83.5004C218.223 85.4351 218.994 87.3698 218.994 89.6914C218.994 92.013 218.223 94.3346 216.295 95.8824C214.367 97.817 212.439 98.5909 210.125 98.5909C207.812 98.5909 205.498 97.817 203.956 95.8824C202.414 94.3346 201.642 92.013 201.642 89.6914ZM201.257 49.8371C201.257 47.5155 202.028 45.1939 203.956 43.6462C205.884 41.7115 207.812 40.9376 210.125 40.9376C212.439 40.9376 214.752 41.7115 216.295 43.6462C218.223 45.1939 218.994 47.5155 218.994 49.8371C218.994 52.1587 218.223 54.4803 216.295 56.0281C214.367 57.9628 212.439 58.7366 210.125 58.7366C207.812 58.7366 205.498 57.9628 203.956 56.0281C202.414 54.4803 201.257 52.1587 201.257 49.8371ZM224.007 30.1035C224.007 27.7818 224.778 25.4602 226.706 23.9125C228.634 21.9778 230.562 21.204 232.875 21.204C235.189 21.204 237.502 21.9778 239.045 23.9125C240.973 25.4602 241.744 27.7818 241.744 30.1035C241.744 32.4251 240.973 34.7467 239.045 36.2944C237.502 38.2291 235.574 39.0029 232.875 39.0029C230.562 39.0029 228.248 38.2291 226.706 36.2944C224.778 34.3597 224.007 32.4251 224.007 30.1035ZM224.007 9.98283C224.007 7.66123 224.778 5.33962 226.32 3.79188C228.248 1.85721 230.176 1.08334 232.49 1.08334C234.803 1.08334 237.117 1.85721 238.659 3.79188C240.587 5.72656 241.358 7.66123 241.358 9.98283C241.358 12.3044 240.587 14.6261 238.659 16.1738C236.731 18.1085 234.803 18.8823 232.49 18.8823C230.176 18.8823 227.863 18.1085 226.32 16.1738C224.778 14.6261 224.007 12.6914 224.007 9.98283Z" fill="#F5F5F7"/>
<path d="M255.625 129.159C255.625 126.837 256.396 124.516 258.324 122.968C260.252 121.033 262.18 120.259 264.494 120.259C266.807 120.259 268.735 121.033 270.663 122.968C272.591 124.902 273.362 126.837 273.362 129.159C273.362 131.48 272.206 133.802 270.663 135.35C268.735 137.284 266.807 138.058 264.494 138.058C262.18 138.058 259.867 137.284 258.324 135.35C256.396 133.802 255.625 131.48 255.625 129.159Z" fill="#F5F5F7"/>
<path d="M424.514 129.159C424.514 126.837 425.286 124.516 427.214 122.968C429.142 121.033 431.069 120.259 433.383 120.259C435.697 120.259 438.01 121.033 439.553 122.968C441.48 124.902 442.252 126.837 442.252 129.159C442.252 131.48 441.48 133.802 439.553 135.35C437.625 137.284 435.697 138.058 433.383 138.058C431.069 138.058 428.756 137.284 427.214 135.35C425.286 133.802 424.514 131.48 424.514 129.159ZM424.514 109.425C424.514 107.103 425.286 104.782 427.214 103.234C429.142 101.299 431.069 100.526 433.383 100.526C435.697 100.526 438.01 101.299 439.553 103.234C441.48 105.169 442.252 107.103 442.252 109.425C442.252 111.747 441.48 114.068 439.553 115.616C438.01 117.164 436.082 117.938 433.383 117.938C431.069 117.938 428.756 117.164 427.214 115.616C425.286 113.681 424.514 111.747 424.514 109.425ZM424.514 89.3045C424.514 86.9829 425.286 84.6612 426.828 83.1135C428.756 81.1788 430.684 80.405 432.997 80.405C435.311 80.405 437.625 81.1788 439.167 83.1135C441.095 85.0482 441.866 86.9829 441.866 89.3045C441.866 91.6261 441.095 93.9477 439.167 95.4954C437.239 97.0432 435.311 97.817 432.997 97.817C430.684 97.817 428.37 97.0432 426.828 95.4954C425.286 93.9477 424.514 92.013 424.514 89.3045ZM424.514 69.5708C424.514 67.2492 425.286 64.9276 427.214 63.3798C429.142 61.4452 431.069 60.6713 433.383 60.6713C435.697 60.6713 438.01 61.4452 439.553 63.3798C441.48 64.9276 442.252 67.2492 442.252 69.5708C442.252 71.8924 441.48 74.214 439.553 75.7617C437.625 77.6964 435.697 78.4703 433.383 78.4703C431.069 78.4703 428.756 77.6964 427.214 75.7617C425.286 73.8271 424.514 71.8924 424.514 69.5708ZM424.514 49.4502C424.514 47.1286 425.286 44.807 427.214 43.2592C429.142 41.3246 431.069 40.5507 433.383 40.5507C435.697 40.5507 438.01 41.3246 439.553 43.2592C441.48 45.1939 442.252 47.1286 442.252 49.4502C442.252 51.7718 441.48 54.0934 439.553 55.6412C437.625 57.5758 435.697 58.3497 433.383 58.3497C431.069 58.3497 428.756 57.5758 427.214 55.6412C425.286 54.0934 424.514 52.1587 424.514 49.4502Z" fill="#F5F5F7"/>
<path d="M187.761 78.857H164.626C159.613 78.857 155.757 74.9877 155.757 69.9575C155.757 64.9274 159.613 61.058 164.626 61.058H187.761C192.774 61.058 196.63 64.9274 196.63 69.9575C196.63 74.6008 192.388 78.857 187.761 78.857Z" fill="#F5F5F7"/>
<path d="M289.172 129.159C289.172 126.837 289.943 124.516 291.871 122.968C293.799 121.033 295.727 120.259 298.04 120.259C300.354 120.259 302.667 121.033 304.21 122.968C306.138 124.902 306.909 126.837 306.909 129.159C306.909 131.48 306.138 133.802 304.21 135.35C302.282 137.284 300.354 138.058 298.04 138.058C295.727 138.058 293.413 137.284 291.871 135.35C290.328 133.802 289.172 131.48 289.172 129.159Z" fill="#F5F5F7"/>
<path d="M289.172 109.425C289.172 107.103 289.943 104.782 291.871 103.234C293.799 101.299 295.727 100.526 298.04 100.526C300.354 100.526 302.667 101.299 304.21 103.234C306.138 105.169 306.909 107.103 306.909 109.425C306.909 111.747 306.138 114.068 304.21 115.616C302.667 117.164 300.739 117.938 298.04 117.938C295.727 117.938 293.413 117.164 291.871 115.616C290.328 113.681 289.172 111.747 289.172 109.425Z" fill="#F5F5F7"/>
<path d="M289.172 89.3043C289.172 86.9827 289.943 84.6611 291.485 83.1134C293.413 81.1787 295.341 80.4048 297.655 80.4048C299.968 80.4048 302.282 81.1787 303.824 83.1134C305.752 85.048 306.523 86.9827 306.523 89.3043C306.523 91.6259 305.752 93.9476 303.824 95.4953C301.896 97.043 299.968 97.8169 297.655 97.8169C295.341 97.8169 293.028 97.043 291.485 95.4953C289.943 93.9476 289.172 92.0129 289.172 89.3043Z" fill="#F5F5F7"/>
<path d="M289.172 69.5707C289.172 67.2491 289.943 64.9275 291.871 63.3797C293.799 61.4451 295.727 60.6712 298.04 60.6712C300.354 60.6712 302.667 61.4451 304.21 63.3797C306.138 64.9275 306.909 67.2491 306.909 69.5707C306.909 71.8923 306.138 74.2139 304.21 75.7617C302.282 77.6963 300.354 78.4702 298.04 78.4702C295.727 78.4702 293.413 77.6963 291.871 75.7617C289.943 73.827 289.172 71.8923 289.172 69.5707Z" fill="#F5F5F7"/>
<path d="M289.172 49.4503C289.172 47.1287 289.943 44.8071 291.871 43.2593C293.799 41.3246 295.727 40.5508 298.04 40.5508C300.354 40.5508 302.667 41.3246 304.21 43.2593C306.138 45.194 306.909 47.1287 306.909 49.4503C306.909 51.7719 306.138 54.0935 304.21 55.6412C302.282 57.5759 300.354 58.3498 298.04 58.3498C295.727 58.3498 293.413 57.5759 291.871 55.6412C289.943 54.0935 289.172 52.1588 289.172 49.4503Z" fill="#F5F5F7"/>
<path d="M289.172 29.7165C289.172 27.3948 289.943 25.0732 291.871 23.5255C293.799 21.9778 295.727 20.817 298.04 20.817C300.354 20.817 302.667 21.5908 304.21 23.5255C306.138 25.4602 306.909 27.3948 306.909 29.7165C306.909 32.0381 306.138 34.3597 304.21 35.9074C302.667 37.8421 300.739 38.616 298.04 38.616C295.727 38.616 293.413 37.8421 291.871 35.9074C289.943 34.3597 289.172 32.0381 289.172 29.7165Z" fill="#F5F5F7"/>
<path d="M311.922 10.3697C311.922 8.0481 312.693 5.72648 314.235 4.17874C316.163 2.24407 318.091 1.47019 320.405 1.47019C322.718 1.47019 325.032 2.24407 326.574 4.17874C328.502 6.11341 329.273 8.0481 329.273 10.3697C329.273 12.6913 328.502 14.626 326.96 16.5607C325.417 18.4953 323.104 19.2692 320.79 19.2692C318.477 19.2692 316.163 18.4953 314.621 16.5607C312.693 14.626 311.922 12.6913 311.922 10.3697Z" fill="#F5F5F7"/>
<path d="M335.057 9.59579C335.057 7.27418 335.828 4.95256 337.756 3.40482C339.684 1.47015 341.612 0.696289 343.926 0.696289C346.239 0.696289 348.553 1.47015 350.095 3.40482C352.023 5.33949 352.794 7.27418 352.794 9.59579C352.794 11.9174 352.023 14.239 350.095 15.7867C348.167 17.3345 346.239 18.4953 343.926 18.4953C341.612 18.4953 339.299 17.7214 337.756 15.7867C335.828 14.239 335.057 12.3043 335.057 9.59579Z" fill="#F5F5F7"/>
<path d="M357.421 89.3043C357.421 86.9827 358.193 84.6611 360.12 83.1134C362.048 81.1787 363.976 80.4048 366.29 80.4048C368.604 80.4048 370.917 81.1787 372.459 83.1134C374.387 85.0481 375.159 86.9827 375.159 89.3043C375.159 91.6259 374.387 93.9476 372.459 95.4953C370.917 97.043 368.989 97.8169 366.29 97.8169C363.976 97.8169 361.663 97.043 360.12 95.4953C358.578 93.9476 357.421 91.6259 357.421 89.3043Z" fill="#F5F5F7"/>
<path d="M357.421 9.59592C357.421 7.27431 358.193 4.95269 360.12 3.40495C362.048 1.47028 363.976 0.696421 366.29 0.696421C368.604 0.696421 370.917 1.47028 372.459 3.40495C374.387 5.33962 375.159 7.27431 375.159 9.59592C375.159 11.9175 374.387 14.2391 372.459 15.7869C370.917 17.3346 368.989 18.1085 366.29 18.1085C363.976 18.1085 361.663 17.3346 360.12 15.7869C358.193 14.2391 357.421 12.3045 357.421 9.59592Z" fill="#F5F5F7"/>
<path d="M380.557 129.159C380.557 126.837 381.328 124.516 383.256 122.968C385.184 121.033 387.112 120.259 389.426 120.259C391.739 120.259 394.053 121.033 395.595 122.968C397.523 124.516 398.294 126.837 398.294 129.159C398.294 131.48 397.523 133.802 395.595 135.35C393.667 137.284 391.739 138.058 389.426 138.058C387.112 138.058 384.798 137.284 383.256 135.35C381.714 133.415 380.557 131.867 380.557 129.159Z" fill="#F5F5F7"/>
<path d="M380.557 109.425C380.557 107.104 381.328 104.782 383.256 103.234C385.184 101.3 387.112 100.526 389.425 100.526C391.739 100.526 394.053 101.3 395.595 103.234C397.523 105.169 398.294 107.104 398.294 109.425C398.294 111.747 397.523 114.068 395.595 115.616C394.053 117.551 392.125 118.325 389.425 118.325C387.112 118.325 384.798 117.551 383.256 115.616C381.714 113.681 380.557 111.747 380.557 109.425Z" fill="#F5F5F7"/>
<path d="M380.557 89.6913C380.557 87.3697 381.328 85.0481 382.87 83.5004C384.798 81.5657 386.726 80.7918 389.04 80.7918C391.353 80.7918 393.667 81.5657 395.209 83.5004C397.137 85.435 397.909 87.3697 397.909 89.6913C397.909 92.0129 397.137 94.3345 395.209 95.8823C393.281 97.8169 391.353 98.5908 389.04 98.5908C386.726 98.5908 384.413 97.8169 382.87 95.8823C381.328 94.3345 380.557 92.0129 380.557 89.6913Z" fill="#F5F5F7"/>
<path d="M380.557 69.9576C380.557 67.636 381.328 65.3144 382.87 63.7667C384.798 61.832 386.726 61.0581 389.04 61.0581C391.353 61.0581 393.667 61.832 395.209 63.7667C397.137 65.7014 397.909 67.636 397.909 69.9576C397.909 72.2792 397.137 74.6009 395.209 76.1486C393.281 77.6963 391.353 78.4702 389.04 78.4702C386.726 78.4702 384.413 77.6963 382.87 76.1486C381.328 74.2139 380.557 72.2792 380.557 69.9576Z" fill="#F5F5F7"/>
<path d="M380.171 49.8371C380.171 47.5155 380.943 45.1939 382.871 43.6462C384.798 41.7115 386.726 40.9376 389.04 40.9376C391.354 40.9376 393.667 41.7115 395.209 43.6462C397.137 45.1939 397.909 47.5155 397.909 49.8371C397.909 52.1587 397.137 54.4804 395.209 56.0281C393.282 57.9628 391.354 58.7366 389.04 58.7366C386.726 58.7366 384.413 57.9628 382.871 56.0281C381.328 54.4804 380.171 52.1587 380.171 49.8371Z" fill="#F5F5F7"/>
<path d="M380.171 30.1036C380.171 27.782 380.943 25.4603 382.871 23.9126C384.798 21.9779 386.726 21.2041 389.04 21.2041C391.354 21.2041 393.667 21.9779 395.209 23.9126C397.137 25.4603 397.909 27.782 397.909 30.1036C397.909 32.4252 397.137 34.7468 395.209 36.2945C393.667 38.2292 391.739 39.0031 389.04 39.0031C386.726 39.0031 384.413 38.2292 382.871 36.2945C381.328 34.3598 380.171 32.4252 380.171 30.1036Z" fill="#F5F5F7"/>
<path d="M344.311 98.204H321.176C316.163 98.204 312.307 94.3347 312.307 89.3045C312.307 84.2744 316.163 80.405 321.176 80.405H344.311C349.324 80.405 353.18 84.2744 353.18 89.3045C353.18 93.9477 348.938 98.204 344.311 98.204Z" fill="#F5F5F7"/>
<path d="M424.514 29.7165V9.98283C424.514 4.95267 428.37 1.08333 433.383 1.08333C438.396 1.08333 442.252 4.95267 442.252 9.98282L442.252 29.7165C442.252 34.7467 438.396 38.616 433.383 38.616C428.37 38.616 424.514 34.7467 424.514 29.7165Z" fill="#F5F5F7"/>
<path d="M92.1343 109.425V89.3043C92.1343 84.2742 95.9902 80.4048 101.003 80.4048C106.016 80.4048 109.872 84.2742 109.872 89.3043V109.425C109.872 114.455 106.016 118.324 101.003 118.324C95.9902 118.324 92.1343 114.455 92.1343 109.425Z" fill="#F5F5F7"/>
<path d="M0.749024 49.8371L0.749023 29.7165C0.749023 24.6864 4.60494 20.817 9.61763 20.817C14.6303 20.817 18.4862 24.6864 18.4862 29.7165V49.8371C18.4862 54.8673 14.6303 58.7366 9.61764 58.7366C4.60494 58.7366 0.749025 54.4803 0.749024 49.8371Z" fill="#F5F5F7"/>
</svg>
