<svg width="159" height="15" viewBox="0 0 159 15" fill="none" xmlns="http://www.w3.org/2000/svg">
<path d="M7.73045 13.5098L7.7411 13.5211L7.75243 13.5317C7.85303 13.626 7.9219 13.7838 7.92374 13.9655C7.92558 14.1469 7.86043 14.2979 7.76498 14.3867C7.67827 14.4673 7.53711 14.5151 7.34536 14.4957C7.15804 14.4768 6.97986 14.3974 6.86709 14.3021L1.08352 8.15721C1.08351 8.1572 1.08349 8.15719 1.08348 8.15718C1.00445 8.07316 0.933424 7.90088 0.924845 7.74169C0.926477 7.58288 0.975926 7.46079 1.08348 7.34652L1.08348 7.34652L6.8748 1.19344C6.97089 1.10353 7.14429 1.02183 7.33962 1.00363C7.53714 0.985225 7.6806 1.03692 7.76112 1.1134L7.76123 1.11351C7.84423 1.19229 7.90674 1.34092 7.9001 1.54038C7.89335 1.74306 7.81732 1.90661 7.74054 1.98349L7.73542 1.98862L7.73045 1.99389L3.65233 6.32137L2.85798 7.16428L4.01621 7.16428L157.912 7.16429C158.237 7.16429 158.5 7.42746 158.5 7.75186C158.5 8.07644 158.237 8.33942 157.912 8.33942L4.01621 8.33941L2.85798 8.33941L3.65233 9.18233L7.73045 13.5098Z" fill="#F5F5F7" stroke="#F5F5F7"/>
</svg>
