<svg width="31" height="16" viewBox="0 0 31 16" fill="none" xmlns="http://www.w3.org/2000/svg">
<path d="M7.73143 13.7657L7.74208 13.777L7.7534 13.7876C7.85401 13.8819 7.92287 14.0397 7.92472 14.2214C7.92656 14.4028 7.86141 14.5538 7.76596 14.6425C7.67925 14.7231 7.53809 14.7709 7.34633 14.7516C7.15902 14.7327 6.98084 14.6533 6.86806 14.5579L1.08449 8.41307C1.08448 8.41306 1.08447 8.41305 1.08446 8.41304C1.00542 8.32902 0.9344 8.15674 0.925822 7.99754C0.927454 7.83874 0.976903 7.71665 1.08445 7.60238L1.08446 7.60238L6.87578 1.4493C6.97187 1.35939 7.14526 1.27769 7.3406 1.25949C7.53812 1.24108 7.68158 1.29278 7.7621 1.36926L7.76221 1.36937C7.8452 1.44815 7.90772 1.59678 7.90108 1.79624C7.89433 1.99892 7.81829 2.16247 7.74152 2.23935L7.7364 2.24448L7.73143 2.24975L3.6533 6.57723L2.85896 7.42014L4.01718 7.42014L29.9134 7.42014C30.2378 7.42014 30.5009 7.68331 30.5009 8.00771C30.5009 8.3323 30.2378 8.59527 29.9134 8.59527L4.01718 8.59527L2.85896 8.59527L3.6533 9.43819L7.73143 13.7657Z" fill="#F5F5F7" stroke="#F5F5F7"/>
</svg>
