<svg width="159" height="15" viewBox="0 0 159 15" fill="none" xmlns="http://www.w3.org/2000/svg">
<path d="M151.27 1.4902L151.259 1.4789L151.248 1.46828C151.147 1.374 151.078 1.21618 151.076 1.0345C151.074 0.85309 151.14 0.702093 151.235 0.613334C151.322 0.532725 151.463 0.484946 151.655 0.5043C151.842 0.523208 152.02 0.60259 152.133 0.697943L157.916 6.84279C157.916 6.8428 157.917 6.84281 157.917 6.84282C157.996 6.92684 158.067 7.09912 158.075 7.25832C158.074 7.41712 158.024 7.53921 157.917 7.65348L157.917 7.65348L152.125 13.8066C152.029 13.8965 151.856 13.9782 151.66 13.9964C151.463 14.0148 151.319 13.9631 151.239 13.8866L151.239 13.8865C151.156 13.8077 151.093 13.6591 151.1 13.4596C151.107 13.2569 151.183 13.0934 151.259 13.0165L151.265 13.0114L151.27 13.0061L155.348 8.67863L156.142 7.83572L154.984 7.83572L1.08763 7.83572C0.763215 7.83572 0.500062 7.57255 0.500062 7.24815C0.500062 6.92357 0.763154 6.66059 1.08763 6.66059L154.984 6.66059L156.142 6.66059L155.348 5.81767L151.27 1.4902Z" fill="#F5F5F7" stroke="#F5F5F7"/>
</svg>
