<svg width="31" height="16" viewBox="0 0 31 16" fill="none" xmlns="http://www.w3.org/2000/svg">
<path d="M23.2686 2.23434L23.2579 2.22304L23.2466 2.21242C23.146 2.11814 23.0771 1.96032 23.0753 1.77864C23.0734 1.59724 23.1386 1.44625 23.234 1.35749C23.3207 1.27687 23.4619 1.22908 23.6537 1.24844C23.841 1.26735 24.0192 1.34673 24.1319 1.44208L29.9155 7.58693C29.9155 7.58694 29.9155 7.58695 29.9155 7.58696C29.9946 7.67098 30.0656 7.84326 30.0742 8.00246C30.0725 8.16126 30.0231 8.28335 29.9155 8.39762L29.9155 8.39762L24.1242 14.5507C24.0281 14.6406 23.8547 14.7223 23.6594 14.7405C23.4619 14.7589 23.3184 14.7072 23.2379 14.6307L23.2378 14.6306C23.1548 14.5519 23.0923 14.4032 23.0989 14.2038C23.1057 14.0011 23.1817 13.8375 23.2585 13.7606L23.2636 13.7555L23.2686 13.7502L27.3467 9.42277L28.141 8.57986L26.9828 8.57986L1.08665 8.57986C0.762236 8.57986 0.499081 8.3167 0.499081 7.99229C0.499081 7.66771 0.762168 7.40473 1.08665 7.40473L26.9828 7.40473L28.141 7.40473L27.3467 6.56181L23.2686 2.23434Z" fill="#F5F5F7" stroke="#F5F5F7"/>
</svg>
