<svg width="0" height="0" class="hidden">
  <symbol fill="none" xmlns="http://www.w3.org/2000/svg" viewBox="0 0 52 52" id="mouse">
    <rect x="37.0718" y="11.5" width="29" height="22.1429" rx="11.0714" transform="rotate(90 37.0718 11.5)" stroke="black" stroke-width="3" stroke-linejoin="round"></rect>
    <line x1="25.8574" y1="17.8569" x2="25.8574" y2="21.5712" stroke="#77BBE8" stroke-width="2" stroke-linecap="round"></line>
  </symbol>
  <symbol fill="none" xmlns="http://www.w3.org/2000/svg" viewBox="0 0 52 52" id="pc">
    <rect x="11.5" y="16.0713" width="29" height="15.2857" rx="2.5" stroke="black" stroke-width="3" stroke-linejoin="round"></rect>
    <line x1="19" y1="36.4282" x2="33" y2="36.4282" stroke="#77BBE8" stroke-width="2" stroke-linecap="round"></line>
  </symbol>
  <symbol fill="none" xmlns="http://www.w3.org/2000/svg" viewBox="0 0 52 52" id="list">
    <rect x="11.5" y="6.63599" width="29" height="37" rx="2.5" stroke="black" stroke-width="3" stroke-linejoin="round"></rect>
    <line x1="18.2725" y1="16.9932" x2="33.727" y2="16.9932" stroke="#77BBE8" stroke-width="2" stroke-linecap="round"></line>
    <line x1="22.6362" y1="22.7075" x2="29.3635" y2="22.7075" stroke="#77BBE8" stroke-width="2" stroke-linecap="round"></line>
  </symbol>
  <symbol fill="none" xmlns="http://www.w3.org/2000/svg" viewBox="0 0 57 76" id="arrow">
    <path d="M28.5053 75.0268C29.4973 74.9881 30.6442 74.5797 31.3672 73.8993L54.9545 51.6988C56.3066 50.1948 56.8641 47.3096 55.301 45.6285C53.7612 43.9725 50.7763 44.0219 49.2307 45.6711L32.6669 61.2804L32.6669 4.26408C32.6669 1.96547 30.8038 0.101332 28.5041 0.101332C26.2055 0.101333 24.3414 1.96539 24.3414 4.26408L24.3414 61.2804L7.7776 45.6711C6.35487 44.2503 3.26451 43.988 1.70729 45.6285C0.150018 47.268 0.647508 50.2558 2.05377 51.6988L25.641 73.8993C26.4482 74.6591 27.398 75.0288 28.5053 75.0268Z" fill="#F5F5F7"></path>
  </symbol>
  <symbol fill="none" xmlns="http://www.w3.org/2000/svg" viewBox="0 0 52 52" id="mess">
    <path d="M20.7513 27.6266C21.6489 27.6266 22.3764 26.8991 22.3764 26.0015C22.3764 25.104 21.6489 24.3765 20.7513 24.3765C19.8537 24.3765 19.126 25.104 19.126 26.0015C19.126 26.8991 19.8537 27.6266 20.7513 27.6266Z" fill="black"></path>
    <path d="M28.8766 26.0015C28.8766 26.8991 28.1491 27.6266 27.2515 27.6266C26.354 27.6266 25.6265 26.8991 25.6265 26.0015C25.6265 25.104 26.354 24.3765 27.2515 24.3765C28.1491 24.3765 28.8766 25.104 28.8766 26.0015Z" fill="black"></path>
    <path d="M33.752 27.6266C34.6496 27.6266 35.3774 26.8991 35.3774 26.0015C35.3774 25.104 34.6496 24.3765 33.752 24.3765C32.8544 24.3765 32.127 25.104 32.127 26.0015C32.127 26.8991 32.8544 27.6266 33.752 27.6266Z" fill="black"></path>
    <path fill-rule="evenodd" clip-rule="evenodd" d="M28.8766 11.375H25.6264C17.5485 11.375 11 17.9235 11 26.0014V39.003C11 39.9005 11.7275 40.628 12.6251 40.628H28.8764C36.9544 40.628 43.5029 34.0796 43.5029 26.0016C43.5029 17.9236 36.9544 11.3751 28.8764 11.3751L28.8766 11.375ZM25.6264 14.6254H28.8766C35.1595 14.6254 40.2532 19.7185 40.2532 26.0013C40.2532 32.2841 35.1597 37.3772 28.8766 37.3772H14.2501V26.0013C14.2501 19.7184 19.3436 14.6254 25.6267 14.6254H25.6264Z" fill="black"></path>
  </symbol>
  <symbol fill="none" xmlns="http://www.w3.org/2000/svg" viewBox="0 0 52 52" id="teleg">
    <path d="M11.5232 24.8251C11.5232 24.8251 26.1183 18.4865 31.1801 16.2546C33.1206 15.3618 39.701 12.5049 39.701 12.5049C39.701 12.5049 42.7382 11.2551 42.485 14.2904C42.4006 15.5404 41.7257 19.9149 41.0508 24.6466C40.0384 31.3424 38.9417 38.663 38.9417 38.663C38.9417 38.663 38.7729 40.7165 37.3388 41.0736C35.9046 41.4307 33.5423 39.8238 33.1206 39.4666C32.783 39.1988 26.7932 35.1813 24.5997 33.2172C24.0091 32.6815 23.3342 31.6103 24.684 30.3603C27.7212 27.4142 31.3488 23.7539 33.5423 21.4327C34.5547 20.3613 35.567 17.8616 31.3488 20.8969C25.359 25.2716 19.4535 29.3783 19.4535 29.3783C19.4535 29.3783 18.1036 30.271 15.5727 29.4675C13.0417 28.6641 10.0889 27.5927 10.0889 27.5927C10.0889 27.5927 8.06425 26.2536 11.5232 24.8251Z" fill="black"></path>
  </symbol>
  <symbol fill="none" xmlns="http://www.w3.org/2000/svg" viewBox="0 0 52 52" id="check">
    <path d="M11 14.76C11 12.6834 12.6834 11 14.76 11H17.02C17.8484 11 18.52 10.3284 18.52 9.5C18.52 8.67157 17.8484 8 17.02 8H13.26C10.355 8 8 10.355 8 13.26V17.02C8 17.8484 8.67157 18.52 9.5 18.52C10.3284 18.52 11 17.8484 11 17.02V14.76Z" fill="black"></path>
    <path d="M33.48 9.5C33.48 10.3284 34.1516 11 34.98 11H37.24C39.3166 11 41 12.6834 41 14.76V17.02C41 17.8484 41.6716 18.52 42.5 18.52C43.3284 18.52 44 17.8484 44 17.02V13.26C44 10.355 41.645 8 38.74 8H34.98C34.1516 8 33.48 8.67157 33.48 9.5Z" fill="black"></path>
    <path d="M18.52 42.5C18.52 41.6716 17.8484 41 17.02 41H14.76C12.6834 41 11 39.3166 11 37.24V34.98C11 34.1516 10.3284 33.48 9.5 33.48C8.67157 33.48 8 34.1516 8 34.98V38.74C8 41.645 10.355 44 13.26 44H17.02C17.8484 44 18.52 43.3284 18.52 42.5Z" fill="black"></path>
    <path d="M41 37.24C41 39.3166 39.3166 41 37.24 41H34.98C34.1516 41 33.48 41.6716 33.48 42.5C33.48 43.3284 34.1516 44 34.98 44H38.74C41.645 44 44 41.645 44 38.74V34.98C44 34.1516 43.3284 33.48 42.5 33.48C41.6716 33.48 41 34.1516 41 34.98V37.24Z" fill="black"></path>
    <rect x="23" y="14" width="6" height="23" rx="3" fill="black"></rect>
    <rect x="23" y="14" width="6" height="12" rx="3" fill="#77BBE8"></rect>
  </symbol>

  <symbol id="arrowRight" width="27" height="20" viewBox="0 0 27 20" fill="none" xmlns="http://www.w3.org/2000/svg">
  <path d="M26.6616 9.81694C26.648 9.46838 26.5045 9.06542 26.2655 8.81138L18.4653 0.523963C17.9368 0.0489113 16.9231 -0.14696 16.3325 0.402226C15.7506 0.943248 15.768 1.992 16.3474 2.53504L21.8318 8.35475L1.79903 8.35475C0.991403 8.35475 0.336436 9.00935 0.336436 9.81734C0.336436 10.625 0.991378 11.2799 1.79903 11.2799L21.8318 11.2799L16.3474 17.0996C15.8482 17.5995 15.7561 18.6853 16.3325 19.2324C16.9085 19.7796 17.9583 19.6048 18.4653 19.1107L26.2655 10.8233C26.5324 10.5397 26.6623 10.206 26.6616 9.81694Z"/>
  </symbol>
  <symbol id="arrowLeft" fill="none" xmlns="http://www.w3.org/2000/svg" viewBox="0 0 34 25">
      <path d="M3.42005e-06 12.5038C0.0175711 12.9507 0.202913 13.4673 0.511665 13.793L10.5859 24.418C11.2684 25.027 12.5777 25.2781 13.3405 24.574C14.092 23.8804 14.0696 22.5359 13.3212 21.8396L6.2379 14.3784L32.111 14.3784C33.1541 14.3784 34 13.5392 34 12.5033C34 11.4679 33.1541 10.6282 32.111 10.6282L6.2379 10.6282L13.3212 3.16693C13.9659 2.52606 14.0849 1.13399 13.3405 0.432535C12.5965 -0.268944 11.2407 -0.0448476 10.5859 0.588607L0.511665 11.2136C0.1669 11.5772 -0.000873558 12.005 3.42005e-06 12.5038Z" fill="black"></path>
    </symbol>


    <symbol id="chatGpt" fill="none" xmlns="http://www.w3.org/2000/svg" viewBox="0 0 29 27" >
    <path d="M25.0531 7.87345C25.1309 6.90782 24.9942 5.93287 24.6624 5.02619C24.3291 4.11355 23.7993 3.2886 23.1107 2.59897C22.0869 1.54953 20.7545 0.857338 19.2963 0.609571C17.8397 0.367772 16.3434 0.580403 15.016 1.23291C14.2034 0.688869 13.2878 0.323176 12.3207 0.160959C11.3537 -0.00125769 10.3607 0.0398664 9.41299 0.285448C7.97853 0.641189 6.69485 1.44138 5.7434 2.56405C4.79194 3.68671 4.23018 5.07924 4.12779 6.53359C3.24489 6.95961 2.45856 7.56443 1.82326 8.30889C1.18946 9.05932 0.726337 9.92539 0.461137 10.8621C0.050492 12.2673 0.0992004 13.7597 0.605914 15.1301C1.11263 16.5006 2.04567 17.6745 3.27067 18.4763C3.19285 19.442 3.32961 20.4169 3.66138 21.3236C3.99466 22.2362 4.52446 23.0612 5.21306 23.7508C6.23687 24.8002 7.56926 25.4924 9.02743 25.7402C10.4841 25.982 11.9804 25.7694 13.3078 25.1169C14.1204 25.6609 15.036 26.0266 16.003 26.1888C16.9701 26.351 17.963 26.3099 18.9108 26.0643C20.3452 25.7086 21.6289 24.9084 22.5804 23.7857C23.5318 22.6631 24.0996 21.269 24.1945 19.8102C25.0774 19.3842 25.8637 18.7794 26.499 18.0349C27.1328 17.2845 27.5959 16.4184 27.8611 15.4817C28.2718 14.0765 28.217 12.5856 27.7164 11.2137C27.2127 9.85519 26.2796 8.68126 25.0531 7.87345ZM18.4829 24.3439C17.3039 24.6415 16.0648 24.5225 14.9695 24.0054C15.0058 23.9708 15.0693 23.9167 15.1041 23.8762L19.6791 19.4771C19.7925 19.3659 19.8803 19.2295 19.9197 19.0798C19.9652 18.9287 19.9638 18.7703 19.9246 18.6151L18.0489 11.1843L20.6356 11.9027C20.6492 11.9056 20.6628 11.9085 20.6718 11.9189C20.6809 11.9293 20.69 11.9397 20.693 11.9517L22.2478 18.1112C22.5792 19.4243 22.3666 20.824 21.6584 21.9932C20.9548 23.1549 19.8116 24.0021 18.4829 24.3439ZM6.52126 22.5127C5.68167 21.658 5.1657 20.5312 5.082 19.3333C5.13035 19.3465 5.2074 19.3715 5.26331 19.3891L11.378 21.0899C11.5306 21.1339 11.6923 21.1376 11.8495 21.0979C12.0067 21.0582 12.1473 20.9783 12.2608 20.8671L17.846 15.5019L18.4954 18.0744C18.4984 18.0863 18.5014 18.0982 18.4984 18.1117C18.4953 18.1252 18.4923 18.1386 18.4817 18.1477L13.8538 22.5919C12.8647 23.5399 11.5374 24.0654 10.1637 24.0503C8.78998 24.0352 7.48015 23.4833 6.52126 22.5127ZM2.21079 11.3474C2.54266 10.1907 3.27338 9.18723 4.27889 8.50804C4.29094 8.55579 4.31053 8.63338 4.32409 8.6871L5.86233 14.781C5.9015 14.9362 5.97545 15.0763 6.08719 15.1877C6.19894 15.2992 6.33489 15.3792 6.48749 15.4232L13.95 17.4948L12.0141 19.3548C12.0035 19.3639 11.9929 19.3729 11.9808 19.3759C11.9688 19.379 11.9567 19.382 11.9431 19.3791L5.76034 17.6638C4.43979 17.2987 3.32516 16.4246 2.65962 15.2403C1.99408 14.056 1.83347 12.6553 2.21079 11.3474ZM21.8438 10.931L14.3814 8.85939L16.3172 6.99938C16.3278 6.99036 16.3384 6.98134 16.3505 6.97828C16.3626 6.97523 16.3747 6.97218 16.3883 6.9751L22.571 8.69046C23.5183 8.95289 24.3657 9.48181 25.0241 10.2045C25.6764 10.9287 26.1079 11.8229 26.2613 12.7873C26.4207 13.7501 26.29 14.7355 25.9054 15.6325C25.5148 16.5311 24.8735 17.3024 24.06 17.8506L24.0133 17.6656L22.4735 11.5657C22.4359 11.4165 22.3604 11.2705 22.2487 11.159C22.1369 11.0475 22.001 10.9676 21.8438 10.931ZM23.2493 7.0209C23.201 7.0077 23.1239 6.98271 23.068 6.96508L16.9533 5.26429C16.8007 5.22028 16.639 5.21665 16.4818 5.25633C16.3246 5.29602 16.184 5.37595 16.0705 5.48712L10.4929 10.8568L9.84351 8.2843C9.84049 8.27236 9.83748 8.26042 9.84051 8.24696C9.84355 8.2335 9.84658 8.22003 9.85717 8.21101L14.4851 3.7668C15.1944 3.0862 16.0803 2.6213 17.0462 2.42194C18.012 2.22258 19.0139 2.29347 19.931 2.63973C20.8526 2.9785 21.6531 3.5764 22.2419 4.35471C22.8277 5.12109 23.1775 6.04859 23.2493 7.0209ZM10.2779 15.1775L7.6912 14.459C7.6776 14.4561 7.664 14.4532 7.65495 14.4428C7.64589 14.4324 7.63683 14.422 7.63381 14.41L6.079 8.25047C5.84095 7.30743 5.87951 6.31362 6.19306 5.39008C6.50661 4.46653 7.07699 3.64322 7.84066 3.02508C8.60432 2.40694 9.52801 2.01506 10.5074 1.89481C11.4868 1.77457 12.4795 1.93665 13.3633 2.35481C13.327 2.38937 13.2695 2.44197 13.2287 2.48402L8.65373 6.88312C8.5403 6.99429 8.45254 7.13072 8.41313 7.28035C8.36768 7.4315 8.36906 7.58987 8.40824 7.74505L10.2779 15.1775ZM10.8394 12.2549L13.3287 9.86156L16.6543 10.7808L17.4905 14.0933L15.0026 16.4927L11.677 15.5735L10.8394 12.2549Z" fill="black"></path>
  </symbol>
</svg>