<svg width="0" height="0" class="hidden">
  <symbol fill="none" xmlns="http://www.w3.org/2000/svg" viewBox="0 0 52 52" id="mouse">
    <rect x="37.0718" y="11.5" width="29" height="22.1429" rx="11.0714" transform="rotate(90 37.0718 11.5)" stroke="black" stroke-width="3" stroke-linejoin="round"></rect>
    <line x1="25.8574" y1="17.8569" x2="25.8574" y2="21.5712" stroke="#77BBE8" stroke-width="2" stroke-linecap="round"></line>
  </symbol>
  <symbol fill="none" xmlns="http://www.w3.org/2000/svg" viewBox="0 0 52 52" id="pc">
    <rect x="11.5" y="16.0713" width="29" height="15.2857" rx="2.5" stroke="black" stroke-width="3" stroke-linejoin="round"></rect>
    <line x1="19" y1="36.4282" x2="33" y2="36.4282" stroke="#77BBE8" stroke-width="2" stroke-linecap="round"></line>
  </symbol>
  <symbol fill="none" xmlns="http://www.w3.org/2000/svg" viewBox="0 0 52 52" id="list">
    <rect x="11.5" y="6.63599" width="29" height="37" rx="2.5" stroke="black" stroke-width="3" stroke-linejoin="round"></rect>
    <line x1="18.2725" y1="16.9932" x2="33.727" y2="16.9932" stroke="#77BBE8" stroke-width="2" stroke-linecap="round"></line>
    <line x1="22.6362" y1="22.7075" x2="29.3635" y2="22.7075" stroke="#77BBE8" stroke-width="2" stroke-linecap="round"></line>
  </symbol>
  <symbol fill="none" xmlns="http://www.w3.org/2000/svg" viewBox="0 0 57 76" id="arrow">
    <path d="M28.5053 75.0268C29.4973 74.9881 30.6442 74.5797 31.3672 73.8993L54.9545 51.6988C56.3066 50.1948 56.8641 47.3096 55.301 45.6285C53.7612 43.9725 50.7763 44.0219 49.2307 45.6711L32.6669 61.2804L32.6669 4.26408C32.6669 1.96547 30.8038 0.101332 28.5041 0.101332C26.2055 0.101333 24.3414 1.96539 24.3414 4.26408L24.3414 61.2804L7.7776 45.6711C6.35487 44.2503 3.26451 43.988 1.70729 45.6285C0.150018 47.268 0.647508 50.2558 2.05377 51.6988L25.641 73.8993C26.4482 74.6591 27.398 75.0288 28.5053 75.0268Z" fill="#F5F5F7"></path>
  </symbol>
  <symbol fill="none" xmlns="http://www.w3.org/2000/svg" viewBox="0 0 52 52" id="mess">
    <path d="M20.7513 27.6266C21.6489 27.6266 22.3764 26.8991 22.3764 26.0015C22.3764 25.104 21.6489 24.3765 20.7513 24.3765C19.8537 24.3765 19.126 25.104 19.126 26.0015C19.126 26.8991 19.8537 27.6266 20.7513 27.6266Z" fill="black"></path>
    <path d="M28.8766 26.0015C28.8766 26.8991 28.1491 27.6266 27.2515 27.6266C26.354 27.6266 25.6265 26.8991 25.6265 26.0015C25.6265 25.104 26.354 24.3765 27.2515 24.3765C28.1491 24.3765 28.8766 25.104 28.8766 26.0015Z" fill="black"></path>
    <path d="M33.752 27.6266C34.6496 27.6266 35.3774 26.8991 35.3774 26.0015C35.3774 25.104 34.6496 24.3765 33.752 24.3765C32.8544 24.3765 32.127 25.104 32.127 26.0015C32.127 26.8991 32.8544 27.6266 33.752 27.6266Z" fill="black"></path>
    <path fill-rule="evenodd" clip-rule="evenodd" d="M28.8766 11.375H25.6264C17.5485 11.375 11 17.9235 11 26.0014V39.003C11 39.9005 11.7275 40.628 12.6251 40.628H28.8764C36.9544 40.628 43.5029 34.0796 43.5029 26.0016C43.5029 17.9236 36.9544 11.3751 28.8764 11.3751L28.8766 11.375ZM25.6264 14.6254H28.8766C35.1595 14.6254 40.2532 19.7185 40.2532 26.0013C40.2532 32.2841 35.1597 37.3772 28.8766 37.3772H14.2501V26.0013C14.2501 19.7184 19.3436 14.6254 25.6267 14.6254H25.6264Z" fill="black"></path>
  </symbol>
  <symbol fill="none" xmlns="http://www.w3.org/2000/svg" viewBox="0 0 52 52" id="teleg">
    <path d="M11.5232 24.8251C11.5232 24.8251 26.1183 18.4865 31.1801 16.2546C33.1206 15.3618 39.701 12.5049 39.701 12.5049C39.701 12.5049 42.7382 11.2551 42.485 14.2904C42.4006 15.5404 41.7257 19.9149 41.0508 24.6466C40.0384 31.3424 38.9417 38.663 38.9417 38.663C38.9417 38.663 38.7729 40.7165 37.3388 41.0736C35.9046 41.4307 33.5423 39.8238 33.1206 39.4666C32.783 39.1988 26.7932 35.1813 24.5997 33.2172C24.0091 32.6815 23.3342 31.6103 24.684 30.3603C27.7212 27.4142 31.3488 23.7539 33.5423 21.4327C34.5547 20.3613 35.567 17.8616 31.3488 20.8969C25.359 25.2716 19.4535 29.3783 19.4535 29.3783C19.4535 29.3783 18.1036 30.271 15.5727 29.4675C13.0417 28.6641 10.0889 27.5927 10.0889 27.5927C10.0889 27.5927 8.06425 26.2536 11.5232 24.8251Z" fill="black"></path>
  </symbol>
  <symbol fill="none" xmlns="http://www.w3.org/2000/svg" viewBox="0 0 52 52" id="check">
    <path d="M11 14.76C11 12.6834 12.6834 11 14.76 11H17.02C17.8484 11 18.52 10.3284 18.52 9.5C18.52 8.67157 17.8484 8 17.02 8H13.26C10.355 8 8 10.355 8 13.26V17.02C8 17.8484 8.67157 18.52 9.5 18.52C10.3284 18.52 11 17.8484 11 17.02V14.76Z" fill="black"></path>
    <path d="M33.48 9.5C33.48 10.3284 34.1516 11 34.98 11H37.24C39.3166 11 41 12.6834 41 14.76V17.02C41 17.8484 41.6716 18.52 42.5 18.52C43.3284 18.52 44 17.8484 44 17.02V13.26C44 10.355 41.645 8 38.74 8H34.98C34.1516 8 33.48 8.67157 33.48 9.5Z" fill="black"></path>
    <path d="M18.52 42.5C18.52 41.6716 17.8484 41 17.02 41H14.76C12.6834 41 11 39.3166 11 37.24V34.98C11 34.1516 10.3284 33.48 9.5 33.48C8.67157 33.48 8 34.1516 8 34.98V38.74C8 41.645 10.355 44 13.26 44H17.02C17.8484 44 18.52 43.3284 18.52 42.5Z" fill="black"></path>
    <path d="M41 37.24C41 39.3166 39.3166 41 37.24 41H34.98C34.1516 41 33.48 41.6716 33.48 42.5C33.48 43.3284 34.1516 44 34.98 44H38.74C41.645 44 44 41.645 44 38.74V34.98C44 34.1516 43.3284 33.48 42.5 33.48C41.6716 33.48 41 34.1516 41 34.98V37.24Z" fill="black"></path>
    <rect x="23" y="14" width="6" height="23" rx="3" fill="black"></rect>
    <rect x="23" y="14" width="6" height="12" rx="3" fill="#77BBE8"></rect>
  </symbol>
</svg>