<svg width="387" height="83" fill="none" xmlns="http://www.w3.org/2000/svg"><rect x=".971" y="43.828" width="384" height="39" rx="19.5" transform="rotate(-6.428 .97 43.828)" fill="url(#paint0_linear_2830_1215)"/><path d="M61.712 54.958l-.158-2.297-6.623 9.099.158 2.296 6.623-9.098zm-6.141-.919l-1.59.18 1.108 9.837 1.344-2.365-.862-7.652zm5.983-1.378l-1.343 2.365.861 7.652 1.59-.18-1.108-9.837zm6.912 4.555c1.047-.118 1.837-.428 2.37-.931.548-.505.784-1.088.71-1.75a2.018 2.018 0 00-.557-1.186c-.307-.341-.711-.597-1.214-.769a3.748 3.748 0 00-1.648-.156c-.636.071-1.19.268-1.664.59a3.045 3.045 0 00-1.076 1.167c-.242.47-.334.964-.276 1.48l1.61-.18a1.29 1.29 0 01.107-.657c.094-.238.258-.445.494-.619.247-.189.57-.306.966-.35.478-.054.86.01 1.15.192.287.17.45.432.49.79.038.331-.062.631-.3.9-.24.255-.665.416-1.274.485l.112.994zm.696 4.752a4.654 4.654 0 001.75-.54c.517-.3.91-.679 1.18-1.139.283-.474.39-1.01.323-1.606-.097-.861-.506-1.453-1.226-1.774-.72-.321-1.65-.418-2.79-.29l.112.994c.464-.052.861-.036 1.193.047.344.082.609.227.793.434.198.206.314.468.35.786a1.32 1.32 0 01-.151.802c-.134.243-.346.441-.637.595-.278.152-.63.252-1.053.3-.69.077-1.206-.04-1.55-.35a2.556 2.556 0 01-.728-1.105l-1.61.182c.207.875.66 1.57 1.362 2.08.715.51 1.61.705 2.682.584zm4.624-5.352c.103.915.401 1.713.894 2.395a4.674 4.674 0 001.9 1.497c.761.33 1.586.445 2.474.345.9-.101 1.68-.397 2.335-.887a4.524 4.524 0 001.5-1.88c.341-.776.46-1.621.358-2.535-.105-.928-.41-1.725-.914-2.393a4.524 4.524 0 00-1.88-1.499c-.748-.332-1.573-.447-2.474-.345-.888.1-1.666.395-2.335.887a4.674 4.674 0 00-1.52 1.882c-.33.761-.442 1.606-.338 2.534zm1.61-.18c-.072-.637-.002-1.215.207-1.735.222-.535.549-.968.981-1.298a3.155 3.155 0 011.563-.599c.596-.067 1.142.013 1.637.239.508.224.923.573 1.245 1.047.334.459.536 1.006.608 1.642.071.636-.004 1.215-.227 1.736-.21.52-.537.953-.981 1.298-.433.33-.947.53-1.543.597a3.156 3.156 0 01-1.657-.236 3.283 3.283 0 01-1.245-1.047c-.32-.46-.516-1.009-.588-1.645zm13.6-4.854c.597-.067 1.142.012 1.637.238.509.225.924.574 1.245 1.047.334.46.536 1.007.608 1.643.072.636-.004 1.215-.227 1.736a3.08 3.08 0 01-.98 1.298c-.433.33-.948.53-1.544.597a3.155 3.155 0 01-1.657-.236 3.282 3.282 0 01-1.245-1.048c-.333-.459-.536-1.006-.607-1.642L84.5 54.202c.148 1.312.477 2.388.988 3.23.524.84 1.17 1.444 1.935 1.814.765.357 1.591.485 2.48.385.9-.101 1.679-.397 2.335-.887a4.523 4.523 0 001.498-1.88c.342-.776.462-1.621.359-2.536-.105-.927-.41-1.725-.914-2.392a4.523 4.523 0 00-1.88-1.5c-.748-.33-1.573-.446-2.474-.344l.168 1.49zm-3.486 3.714l.716-.08c-.06-.53-.02-1.005.121-1.424.153-.433.366-.805.639-1.118.287-.314.607-.565.962-.752a2.94 2.94 0 011.048-.34l-.168-1.49a3.65 3.65 0 00-1.532.514c-.44.264-.809.621-1.107 1.07-.298.45-.506.984-.624 1.6-.12.605-.138 1.278-.055 2.02zm-1.009-1.094l1.51.896-.23-2.047a7.922 7.922 0 01.034-2.016c.096-.695.34-1.333.73-1.914.404-.582 1.002-1.052 1.794-1.41a8.84 8.84 0 001.847-1.113c.542-.424.966-.894 1.27-1.411a3.35 3.35 0 00.454-1.682l-1.57.177c-.039.487-.259.975-.66 1.463-.39.473-1.018.913-1.884 1.32-1.02.476-1.796 1.087-2.33 1.832-.521.73-.848 1.585-.979 2.565-.13.981-.126 2.094.014 3.34zm14.277 8.656l-1.522-13.515-1.59.18 1.522 13.514 1.59-.18zm6.644-9.806c-.112-.993-.413-1.818-.903-2.474a4.315 4.315 0 00-1.835-1.464c-.719-.308-1.496-.415-2.331-.32-.755.084-1.402.352-1.942.802-.526.448-.915 1.049-1.165 1.801-.24.739-.303 1.604-.19 2.598.11.98.364 1.81.763 2.49.412.678.924 1.178 1.537 1.498.626.318 1.317.435 2.072.35.835-.094 1.568-.371 2.201-.832a4.314 4.314 0 001.464-1.835c.33-.762.44-1.633.329-2.614zm-1.61.182c.079.702.001 1.315-.235 1.838a2.79 2.79 0 01-1.008 1.24 3.215 3.215 0 01-1.507.553 2.804 2.804 0 01-1.414-.224 3.007 3.007 0 01-1.239-.987c-.346-.458-.56-1.037-.638-1.74-.08-.702-.001-1.314.235-1.837.237-.524.566-.936.988-1.239a2.8 2.8 0 011.329-.532c.569-.064 1.1.004 1.592.203.506.198.925.526 1.259.985.346.458.559 1.038.638 1.74zm4.731 1.379c-.042-.371.008-.699.151-.983.142-.285.377-.519.705-.704.342-.186.777-.309 1.307-.368a4.853 4.853 0 011.597.061c.48.094.964.274 1.45.541l-.105-.934c-.107-.108-.296-.241-.569-.398-.274-.17-.631-.305-1.071-.403-.429-.113-.935-.136-1.518-.07-.795.089-1.47.292-2.024.61-.556.304-.968.7-1.235 1.186-.267.486-.365 1.054-.291 1.703.07.623.268 1.13.594 1.523.338.378.757.646 1.258.804a3.848 3.848 0 001.606.141 4.545 4.545 0 001.693-.513 3.004 3.004 0 001.125-1.092c.27-.46.372-.981.306-1.564l-.429-.958c.064.57-.004 1.04-.204 1.411a1.95 1.95 0 01-.869.863 3.898 3.898 0 01-1.384.397c-.358.04-.688.024-.992-.049a1.72 1.72 0 01-.751-.418 1.309 1.309 0 01-.35-.786zm-.486-4.313a7.36 7.36 0 01.554-.445c.247-.188.543-.356.889-.502.344-.16.735-.264 1.172-.314.504-.056.961.013 1.372.208.423.18.66.503.713.967l.739 6.558 1.59-.18-.739-6.558c-.068-.596-.277-1.082-.628-1.459-.337-.378-.783-.643-1.337-.795-.542-.167-1.164-.21-1.867-.132-.821.093-1.509.298-2.064.615-.554.318-.99.622-1.306.912l.912 1.125zm18.228-4.227l-3.549 4.224 4.977 4.873 1.987-.224-5.153-4.652 3.726-4.445-1.988.224zm-3.577.403l-1.491.168 1.03 9.142 1.491-.168-1.03-9.142zm-5.068.57l-1.987.225 4.621 3.505-3.989 5.682 1.987-.224 3.768-5.859-4.4-3.328zm13.004 3.568l7.811-.88a1.486 1.486 0 00-.007-.241l-.027-.239c-.109-.967-.381-1.775-.817-2.423a3.93 3.93 0 00-1.694-1.46c-.692-.311-1.469-.418-2.33-.321-.782.088-1.473.327-2.073.716a4.147 4.147 0 00-1.38 1.504c-.334.615-.524 1.307-.572 2.077a6.01 6.01 0 00.031.983c.103.914.381 1.715.834 2.402a4.472 4.472 0 001.74 1.515 4.166 4.166 0 002.296.365c.795-.09 1.447-.257 1.956-.502a4.088 4.088 0 001.259-.967c.331-.4.623-.849.875-1.347l-1.383-.669a3.892 3.892 0 01-.617.955c-.252.27-.548.498-.889.684-.33.171-.72.282-1.171.333-.596.067-1.127 0-1.592-.203a2.523 2.523 0 01-1.139-.999c-.294-.463-.48-1.046-.559-1.748l-.028-.6c-.064-.57.007-1.075.212-1.514.217-.454.532-.818.944-1.093a3.138 3.138 0 011.412-.5c.53-.06.986-.005 1.368.167.393.157.71.41.951.758.252.334.431.737.538 1.208l-6.101.687.152 1.352zm10.955-1.134l6.757-.761-.168-1.49-6.757.76.168 1.491zm5.153-5.713l1.03 9.142 1.59-.179-1.03-9.142-1.59.18zm-6.658.75l1.03 9.142 1.59-.179-1.03-9.142-1.59.18zm19.068-.538l-.158-2.297-6.623 9.1.158 2.296 6.623-9.099zm-6.141-.918l-1.59.18 1.108 9.837 1.344-2.366-.862-7.651zm5.983-1.379l-1.344 2.366.862 7.651 1.59-.179-1.108-9.838zm5.499 9.344l2.841-5.15-1.749.196-2.841 5.15 1.749-.196zm5.803-.654l-1.03-9.142-1.59.179 1.03 9.142 1.59-.18zm-1.502-4.943l-2.842.32c-.385.043-.715.034-.99-.03a1.262 1.262 0 01-.628-.392c-.155-.183-.249-.428-.284-.732-.034-.305.004-.564.114-.778a1.15 1.15 0 01.527-.502c.253-.136.572-.225.956-.269l2.842-.32-.157-1.391-2.842.32a5.067 5.067 0 00-1.678.47 2.527 2.527 0 00-1.093 1.01c-.247.43-.333.976-.259 1.639.074.65.279 1.163.617 1.54.336.365.766.612 1.291.74a5.055 5.055 0 001.74.086l2.842-.32-.156-1.391zm10.153-.66c-.071-.637-.002-1.215.208-1.735.221-.535.548-.968.98-1.298a3.157 3.157 0 011.563-.599 3.896 3.896 0 011.398.084 3.7 3.7 0 011.2.469c.347.216.603.469.77.759l-.224-1.988c-.359-.335-.849-.569-1.467-.7a5.29 5.29 0 00-1.845-.114c-.887.1-1.666.395-2.335.887a4.674 4.674 0 00-1.519 1.882c-.33.761-.443 1.606-.338 2.533.103.915.401 1.713.893 2.395a4.677 4.677 0 001.9 1.497c.762.33 1.586.445 2.474.345a5.605 5.605 0 001.775-.502c.572-.279.997-.622 1.273-1.028l-.224-1.988c-.1.306-.294.61-.582.911a4.045 4.045 0 01-1.063.744 4.224 4.224 0 01-1.347.373 3.157 3.157 0 01-1.657-.236 3.29 3.29 0 01-1.245-1.047c-.32-.46-.516-1.009-.588-1.645zm7.981-.9c.103.914.401 1.713.893 2.395a4.677 4.677 0 001.9 1.497c.762.33 1.586.445 2.474.345.901-.102 1.68-.397 2.336-.887a4.532 4.532 0 001.499-1.88c.341-.776.461-1.621.358-2.536-.105-.927-.409-1.725-.914-2.392a4.524 4.524 0 00-1.879-1.5c-.749-.331-1.574-.446-2.475-.345-.887.1-1.666.396-2.335.887a4.682 4.682 0 00-1.519 1.882c-.33.762-.443 1.606-.338 2.534zm1.61-.181c-.072-.636-.003-1.214.207-1.734.221-.535.548-.968.981-1.298a3.15 3.15 0 011.562-.6c.597-.066 1.142.013 1.637.24a2.89 2.89 0 011.245 1.046c.334.46.536 1.007.608 1.643.072.636-.004 1.214-.227 1.736-.21.52-.537.953-.981 1.298-.432.33-.947.53-1.543.596a3.157 3.157 0 01-1.657-.236 3.29 3.29 0 01-1.245-1.047c-.32-.46-.516-1.008-.587-1.644zm13.274-1.496c1.046-.118 1.836-.428 2.37-.931.547-.504.783-1.088.709-1.75a2.02 2.02 0 00-.556-1.186c-.307-.34-.712-.597-1.214-.769a3.75 3.75 0 00-1.648-.156c-.636.072-1.191.268-1.664.59a3.037 3.037 0 00-1.076 1.168 2.54 2.54 0 00-.277 1.48l1.61-.181a1.287 1.287 0 01.108-.656 1.4 1.4 0 01.493-.62c.247-.188.57-.305.967-.35.477-.054.86.01 1.149.193.287.168.451.432.491.79.038.33-.063.63-.301.899-.239.255-.664.417-1.273.486l.112.993zm.696 4.752a4.658 4.658 0 001.751-.54c.516-.299.909-.679 1.179-1.139.282-.474.39-1.01.323-1.606-.097-.86-.506-1.452-1.227-1.773-.72-.322-1.65-.418-2.79-.29l.112.994c.464-.053.862-.037 1.193.046.345.082.609.227.794.434.197.206.314.468.35.786.033.292-.018.559-.151.802a1.494 1.494 0 01-.638.595c-.278.152-.629.252-1.053.3-.689.078-1.205-.039-1.549-.349a2.56 2.56 0 01-.728-1.105l-1.61.181c.206.876.66 1.57 1.362 2.08.715.51 1.609.705 2.682.584zm10.182-7.829l3.336 5.501 1.789-.201-5.513-8.738-3.43 9.745 1.788-.201 2.03-6.106zm4.795 5.94l.201 1.79 1.59-.18-.369-3.28-11.329 1.277.37 3.28 1.689-.19-.201-1.79 8.049-.906zm4.393-3.211c-.042-.371.009-.7.151-.983.142-.285.378-.52.706-.704.341-.186.777-.309 1.307-.369a4.86 4.86 0 011.597.062c.48.093.963.274 1.449.541l-.105-.934c-.106-.109-.295-.242-.568-.399-.274-.17-.631-.304-1.072-.402-.429-.113-.934-.137-1.517-.07-.795.089-1.47.292-2.025.61-.556.304-.968.699-1.235 1.185-.267.486-.364 1.054-.291 1.703.07.623.268 1.131.594 1.524.338.378.757.646 1.258.804a3.846 3.846 0 001.606.14 4.536 4.536 0 001.693-.512 2.99 2.99 0 001.125-1.093c.27-.46.373-.98.307-1.564l-.43-.958c.064.57-.004 1.04-.203 1.412a1.96 1.96 0 01-.869.863 3.913 3.913 0 01-1.384.397c-.358.04-.689.024-.992-.05a1.718 1.718 0 01-.752-.418 1.315 1.315 0 01-.35-.785zm-.486-4.313c.134-.123.319-.27.554-.445.247-.189.544-.356.889-.503.345-.16.735-.264 1.173-.313a2.49 2.49 0 011.372.208c.422.18.66.502.712.966l.739 6.559 1.59-.18-.739-6.558c-.067-.596-.276-1.083-.627-1.459-.338-.378-.784-.643-1.338-.795-.542-.167-1.164-.211-1.866-.132-.822.093-1.51.297-2.064.615-.555.317-.99.621-1.306.912l.911 1.125zm10.194 1.81l6.757-.761-.168-1.49-6.757.76.168 1.491zm5.153-5.713l1.03 9.142 1.59-.179-1.03-9.142-1.59.18zm-6.658.75l1.03 9.142 1.59-.179-1.03-9.142-1.59.18zm19.485-2.195l1.03 9.142 1.59-.179-1.03-9.142-1.59.18zm-8.247.93l1.03 9.142 1.589-.18-1.029-9.142-1.59.18zm1.48 4.743l2.842-.32c.583-.065 1.034.011 1.354.23.32.219.506.56.558 1.024.035.305-.002.577-.109.817a1.315 1.315 0 01-.54.564c-.24.135-.552.224-.936.267l-2.842.32.157 1.391 2.842-.32c.636-.072 1.194-.235 1.675-.49a2.552 2.552 0 001.087-1.069c.244-.457.329-1.01.256-1.66-.11-.98-.515-1.658-1.215-2.036-.689-.392-1.503-.535-2.444-.429l-2.842.32.157 1.391zm18.793-1.895l6.757-.762-.168-1.49-6.757.761.168 1.49zm5.152-5.713l1.03 9.142 1.59-.18-1.03-9.141-1.59.179zm-6.657.75l1.03 9.142 1.589-.179-1.029-9.142-1.59.179zm12.015 3.678l7.811-.88a1.486 1.486 0 00-.007-.24l-.027-.24c-.109-.967-.381-1.774-.816-2.423a3.936 3.936 0 00-1.694-1.46c-.693-.31-1.47-.418-2.331-.32-.782.087-1.473.326-2.073.716a4.147 4.147 0 00-1.38 1.504 4.935 4.935 0 00-.571 2.077 5.582 5.582 0 00.03.983c.103.914.381 1.714.834 2.401a4.468 4.468 0 001.741 1.515 4.163 4.163 0 002.295.365c.795-.09 1.447-.257 1.956-.502a4.05 4.05 0 001.26-.967c.33-.4.622-.848.875-1.346l-1.384-.67a3.86 3.86 0 01-.617.955 3.48 3.48 0 01-.889.684c-.33.172-.72.283-1.17.333-.596.067-1.127 0-1.593-.203a2.533 2.533 0 01-1.139-.998c-.294-.464-.48-1.047-.559-1.749l-.028-.6c-.064-.57.007-1.075.212-1.514a2.68 2.68 0 01.944-1.092 3.142 3.142 0 011.413-.502c.53-.06.986-.003 1.367.168.394.157.711.41.951.759.252.334.432.736.539 1.207l-6.102.687.152 1.352zm17.281-5.368l-.158-2.297-6.623 9.098.158 2.297 6.623-9.098zm-6.141-.919l-1.59.18 1.108 9.837 1.344-2.365-.862-7.652zm5.983-1.378l-1.344 2.365.862 7.652 1.59-.18-1.108-9.837zm-7.364-3.196a2.9 2.9 0 00.488 1.294c.286.397.677.708 1.172.934.507.212 1.105.278 1.793.2.703-.078 1.271-.276 1.705-.594.432-.33.737-.72.914-1.17a2.76 2.76 0 00.208-1.371l-1.411.159c.019.172-.004.382-.07.631-.067.236-.216.46-.447.675-.232.2-.58.327-1.044.379-.464.052-.831.006-1.102-.138-.273-.157-.468-.343-.587-.557a1.762 1.762 0 01-.208-.6l-1.411.158zm13.534 16.891l-1.522-13.514-1.59.179 1.522 13.514 1.59-.179zm6.644-9.805c-.112-.994-.412-1.819-.902-2.475a4.318 4.318 0 00-1.836-1.463c-.719-.309-1.496-.416-2.33-.322-.756.085-1.403.353-1.943.803-.526.448-.915 1.049-1.165 1.802-.239.738-.303 1.604-.191 2.597.111.98.365 1.81.764 2.49.412.679.924 1.178 1.537 1.498.626.318 1.317.435 2.072.35.835-.094 1.569-.371 2.201-.832a4.313 4.313 0 001.464-1.835c.33-.762.44-1.633.329-2.613zm-1.609.181c.079.702 0 1.315-.236 1.838a2.79 2.79 0 01-1.008 1.24 3.215 3.215 0 01-1.507.553 2.8 2.8 0 01-1.414-.223 3.001 3.001 0 01-1.238-.988c-.347-.457-.56-1.037-.639-1.74-.079-.701-.001-1.314.236-1.837.236-.523.565-.936.987-1.239a2.8 2.8 0 011.329-.532 3.216 3.216 0 011.593.203c.505.198.924.527 1.258.986.347.457.559 1.037.639 1.74zm3.007-.339c.103.915.401 1.713.894 2.395a4.667 4.667 0 001.899 1.497c.762.33 1.587.445 2.474.345.901-.101 1.68-.397 2.336-.887a4.533 4.533 0 001.499-1.88c.342-.776.461-1.621.358-2.536-.105-.927-.409-1.725-.914-2.392a4.525 4.525 0 00-1.879-1.5c-.749-.33-1.574-.446-2.474-.344-.888.1-1.667.395-2.336.887a4.68 4.68 0 00-1.519 1.881c-.33.762-.443 1.607-.338 2.534zm1.61-.181c-.072-.636-.003-1.214.207-1.734.221-.535.548-.968.981-1.298a3.152 3.152 0 011.562-.599c.597-.067 1.142.012 1.637.238.509.225.924.574 1.245 1.048.334.458.537 1.006.608 1.642.072.636-.004 1.215-.227 1.736-.21.52-.537.953-.981 1.298-.432.33-.946.53-1.543.597a3.157 3.157 0 01-1.657-.236 3.29 3.29 0 01-1.245-1.048c-.32-.46-.516-1.008-.587-1.644zm10.75-1.211c-.072-.636-.003-1.214.207-1.734.221-.535.548-.968.981-1.298a3.151 3.151 0 011.562-.599 3.903 3.903 0 011.399.084c.453.097.853.253 1.2.469.346.216.603.468.769.758l-.224-1.987c-.359-.335-.849-.569-1.467-.7a5.288 5.288 0 00-1.845-.114c-.887.1-1.666.395-2.335.886a4.68 4.68 0 00-1.519 1.882c-.33.762-.443 1.607-.338 2.534.103.914.401 1.713.894 2.395a4.667 4.667 0 001.899 1.497c.762.33 1.586.445 2.474.345a5.595 5.595 0 001.775-.502c.573-.279.997-.622 1.273-1.029l-.224-1.987c-.1.306-.293.61-.582.91a4.043 4.043 0 01-1.063.744 4.219 4.219 0 01-1.347.374 3.158 3.158 0 01-1.657-.236 3.291 3.291 0 01-1.245-1.048c-.32-.46-.516-1.008-.587-1.644zm9.038-.616l7.811-.88c.004-.08.002-.161-.007-.24l-.027-.24c-.109-.966-.381-1.774-.816-2.423a3.933 3.933 0 00-1.695-1.46c-.692-.31-1.469-.418-2.33-.32-.782.087-1.473.326-2.073.716a4.147 4.147 0 00-1.38 1.504c-.334.614-.524 1.307-.571 2.077a5.582 5.582 0 00.03.983c.103.914.381 1.715.834 2.401a4.468 4.468 0 001.741 1.515 4.162 4.162 0 002.295.365c.795-.09 1.447-.256 1.956-.502.508-.258.927-.58 1.26-.967.33-.4.622-.848.874-1.346l-1.383-.67a3.862 3.862 0 01-.617.956 3.49 3.49 0 01-.889.683c-.33.172-.72.283-1.17.334-.597.067-1.127 0-1.593-.203a2.528 2.528 0 01-1.139-1c-.294-.463-.48-1.045-.559-1.748l-.028-.6c-.064-.57.007-1.074.212-1.514.217-.453.532-.817.944-1.092a3.142 3.142 0 011.413-.501c.53-.06.985-.004 1.367.168.393.157.71.41.951.758.252.334.432.736.538 1.207l-6.101.688.152 1.351zm8.059-5.94l.168 1.491 5.366-.604-.168-1.491-5.366.605zm1.933.185l.985 8.745 1.59-.18-.985-8.744-1.59.18zm5.028-.969l1.03 9.143 1.59-.18-1.03-9.142-1.59.18zm1.481 4.744l2.842-.32c.583-.066 1.034.011 1.354.23.32.219.506.56.558 1.024.035.305-.002.577-.109.817a1.327 1.327 0 01-.54.564c-.24.135-.552.224-.936.267l-2.842.32.156 1.391 2.842-.32c.636-.072 1.195-.235 1.676-.49a2.552 2.552 0 001.087-1.069c.244-.457.329-1.01.256-1.66-.11-.98-.516-1.659-1.216-2.036-.688-.392-1.502-.535-2.443-.429l-2.842.32.157 1.391zm9.632-.863l3.378-.381-.168-1.49-3.378.38.168 1.49zm-1.505-4.963l1.03 9.142 1.589-.179-1.029-9.142-1.59.179zm3.694 4.213c.103.914.401 1.712.894 2.395a4.677 4.677 0 001.9 1.497c.761.33 1.586.445 2.474.345.901-.102 1.679-.397 2.335-.887a4.524 4.524 0 001.499-1.88c.342-.776.462-1.622.359-2.536-.105-.927-.409-1.725-.914-2.393a4.52 4.52 0 00-1.88-1.499c-.748-.331-1.573-.446-2.474-.345-.888.1-1.666.396-2.335.887a4.674 4.674 0 00-1.519 1.882c-.33.762-.443 1.606-.339 2.534zm1.61-.181c-.071-.636-.002-1.215.207-1.735.222-.534.549-.967.981-1.298a3.157 3.157 0 011.563-.598c.596-.067 1.142.012 1.637.238a2.9 2.9 0 011.245 1.047c.334.459.536 1.006.608 1.642.071.636-.004 1.215-.227 1.737-.21.52-.537.953-.981 1.298-.433.33-.947.529-1.543.596a3.155 3.155 0 01-1.657-.236 3.29 3.29 0 01-1.245-1.047c-.32-.46-.516-1.009-.588-1.645zM42.053 54.873a6.73 6.73 0 00-.39-2.847A6.673 6.673 0 0040.11 49.6a6.937 6.937 0 00-3.815-1.99 7.071 7.071 0 00-4.28.624 6.887 6.887 0 00-2.695-1.072 6.992 6.992 0 00-2.908.124 7.032 7.032 0 00-3.67 2.279 6.888 6.888 0 00-1.615 3.97 7.068 7.068 0 00-2.305 1.775 6.838 6.838 0 00-1.362 2.553 6.794 6.794 0 00.145 4.268 6.83 6.83 0 002.665 3.346 6.73 6.73 0 00.39 2.848 6.674 6.674 0 001.552 2.427 6.938 6.938 0 003.814 1.99 7.072 7.072 0 004.28-.624 6.89 6.89 0 002.696 1.072c.967.162 1.96.12 2.908-.125a7.032 7.032 0 003.67-2.278 6.842 6.842 0 001.613-3.976 7.068 7.068 0 002.305-1.775 6.838 6.838 0 001.362-2.553 6.837 6.837 0 00-.145-4.268 6.867 6.867 0 00-2.663-3.34zm-6.57 16.47a5.224 5.224 0 01-3.513-.338c.036-.034.1-.088.134-.129l4.575-4.399a.88.88 0 00.246-.862l-1.876-7.43 2.587.718c.013.003.027.005.036.016.009.01.018.02.021.033l1.555 6.16a5.094 5.094 0 01-.59 3.881 5.24 5.24 0 01-3.175 2.35zm-11.962-1.83a5.046 5.046 0 01-1.439-3.18l.181.056 6.115 1.7a.9.9 0 00.883-.222l5.585-5.365.65 2.572a.078.078 0 01.002.038c-.003.013-.006.027-.016.036l-4.628 4.444a5.255 5.255 0 01-3.69 1.458 5.198 5.198 0 01-3.643-1.537zm-4.31-11.166a5.137 5.137 0 012.068-2.839l.045.18 1.538 6.093c.04.155.113.295.225.407a.926.926 0 00.4.235l7.463 2.072-1.936 1.86a.088.088 0 01-.033.02.08.08 0 01-.038.004l-6.183-1.715a5.12 5.12 0 01-3.1-2.424 5.071 5.071 0 01-.45-3.893zm19.633-.416l-7.463-2.072L33.317 54c.01-.009.021-.018.033-.02a.08.08 0 01.038-.004l6.183 1.715a5.199 5.199 0 012.453 1.515 5.041 5.041 0 011.237 2.582c.16.963.029 1.949-.356 2.846a5.156 5.156 0 01-1.845 2.218l-.047-.185-1.54-6.1a.882.882 0 00-.224-.407.839.839 0 00-.405-.228zm1.405-3.91c-.048-.013-.125-.038-.181-.056l-6.115-1.7a.902.902 0 00-.883.222l-5.577 5.37-.65-2.573c-.003-.012-.006-.024-.003-.037.003-.014.007-.027.017-.036l4.628-4.444a5.217 5.217 0 012.561-1.345 5.197 5.197 0 012.885.218 5.111 5.111 0 012.31 1.715 4.995 4.995 0 011.008 2.666zm-12.971 8.157l-2.587-.719c-.013-.003-.027-.006-.036-.016a.074.074 0 01-.021-.033l-1.555-6.16a5.053 5.053 0 01.114-2.86 5.192 5.192 0 011.648-2.365 5.255 5.255 0 012.666-1.13c.98-.12 1.973.042 2.856.46-.036.034-.093.087-.134.129l-4.575 4.4a.88.88 0 00-.246.861l1.87 7.433zm.561-2.923l2.49-2.393 3.325.919.836 3.312-2.487 2.4-3.326-.92-.838-3.318z" fill="#000"/><defs><linearGradient id="paint0_linear_2830_1215" x1=".16" y1="65.37" x2="384.216" y2="61.819" gradientUnits="userSpaceOnUse"><stop stop-color="#56E575"/><stop offset="1" stop-color="#02FF54"/></linearGradient></defs></svg>