<svg width="312" height="187" fill="none" xmlns="http://www.w3.org/2000/svg"><mask id="a" fill="#fff"><path fill-rule="evenodd" clip-rule="evenodd" d="M0 17C0 7.611 7.611 0 17 0h177c9.389 0 17 7.611 17 17v38c0 9.389-7.611 17-17 17h-16.5c-8.008 0-14.5 6.492-14.5 14.5s6.492 14.5 14.5 14.5H295c9.389 0 17 7.611 17 17v52c0 9.389-7.611 17-17 17H17c-9.389 0-17-7.611-17-17V17z"/></mask><path d="M194-2H17v4h177v-4zm19 57V17h-4v38h4zm-35.5 19H194v-4h-16.5v4zM295 99H177.5v4H295v-4zm19 71v-52h-4v52h4zM17 189h278v-4H17v4zm-19-86v67h4v-67h-4zm4 0v-2h-4v2h4zm0-2V72h-4v29h4zm0-29v-5h-4v5h4zm-4-55v50h4V17h-4zm19 168c-8.284 0-15-6.716-15-15h-4c0 10.493 8.507 19 19 19v-4zm293-15c0 8.284-6.716 15-15 15v4c10.493 0 19-8.507 19-19h-4zm-15-67c8.284 0 15 6.716 15 15h4c0-10.493-8.507-19-19-19v4zM161 86.5c0 9.113 7.387 16.5 16.5 16.5v-4c-6.904 0-12.5-5.596-12.5-12.5h-4zM177.5 70c-9.113 0-16.5 7.387-16.5 16.5h4c0-6.904 5.596-12.5 12.5-12.5v-4zM209 55c0 8.284-6.716 15-15 15v4c10.493 0 19-8.507 19-19h-4zM17-2C6.507-2-2 6.507-2 17h4C2 8.716 8.716 2 17 2v-4zm177 4c8.284 0 15 6.716 15 15h4c0-10.493-8.507-19-19-19v4z" fill="url(#paint0_linear_2811_1433)" mask="url(#a)"/><defs><linearGradient id="paint0_linear_2811_1433" x1="0" y1="93.5" x2="312" y2="93.5" gradientUnits="userSpaceOnUse"><stop stop-color="#F5411E"/><stop offset=".493" stop-color="#FFA145"/><stop offset="1" stop-color="#CEE984"/></linearGradient></defs></svg>