<svg width="753" height="321" fill="none" xmlns="http://www.w3.org/2000/svg"><mask id="a" fill="#fff"><path fill-rule="evenodd" clip-rule="evenodd" d="M0 30C0 13.431 13.431 0 30 0h397c16.569 0 30 13.431 30 30v96c0 16.569-13.431 30-30 30h-89c-12.15 0-22 9.85-22 22s9.85 22 22 22h385c16.569 0 30 13.431 30 30v61c0 16.569-13.431 30-30 30H30c-16.569 0-30-13.431-30-30V30z"/></mask><path d="M427-6H30V6h397V-6zm36 132V30h-12v96h12zm-125 36h89v-12h-89v12zm385 32H338v12h385v-12zm36 97v-61h-12v61h12zM30 327h693v-12H30v12zM-6 206v85H6v-85H-6zm12 0v-6H-6v6H6zm0-6v-44H-6v44H6zm0-44v-7H-6v7H6zM-6 30v119H6V30H-6zm36 285c-13.255 0-24-10.745-24-24H-6c0 19.882 16.118 36 36 36v-12zm717-24c0 13.255-10.745 24-24 24v12c19.882 0 36-16.118 36-36h-12zm-24-85c13.255 0 24 10.745 24 24h12c0-19.882-16.118-36-36-36v12zm-413-28c0 15.464 12.536 28 28 28v-12c-8.837 0-16-7.163-16-16h-12zm28-28c-15.464 0-28 12.536-28 28h12c0-8.837 7.163-16 16-16v-12zm113-24c0 13.255-10.745 24-24 24v12c19.882 0 36-16.118 36-36h-12zM30-6C10.118-6-6 10.118-6 30H6C6 16.745 16.745 6 30 6V-6zM427 6c13.255 0 24 10.745 24 24h12c0-19.882-16.118-36-36-36V6z" fill="url(#paint0_linear_2811_1256)" mask="url(#a)"/><defs><linearGradient id="paint0_linear_2811_1256" x1="0" y1="160.5" x2="753" y2="160.5" gradientUnits="userSpaceOnUse"><stop stop-color="#F9CF0A"/><stop offset="1" stop-color="#F73C59"/></linearGradient></defs></svg>