<svg width="740" height="275" fill="none" xmlns="http://www.w3.org/2000/svg"><path d="M.771 217.065c0-4.635 1.543-9.27 5.398-12.36 3.856-3.862 7.712-5.407 12.34-5.407 4.626 0 8.482 1.545 11.567 4.635 3.856 3.862 5.398 7.724 5.398 12.359s-1.542 9.27-5.398 12.36c-3.085 3.862-6.94 5.407-11.568 5.407-4.627 0-9.254-1.545-12.339-4.635-3.855-3.862-5.398-7.725-5.398-12.359zm45.5 40.168c0-4.635 1.542-9.269 5.398-12.359 3.856-3.863 7.712-5.408 12.339-5.408 4.627 0 9.254 1.545 12.339 5.408 3.856 3.09 5.398 7.724 5.398 12.359s-1.542 9.27-5.398 12.36C72.49 273.455 68.635 275 64.007 275c-4.626 0-9.253-1.545-12.338-5.407-3.856-3.09-5.398-7.725-5.398-12.36zm-.771-118.96c0-4.635 1.542-9.27 5.398-12.36 3.856-3.862 7.712-5.407 12.339-5.407 4.627 0 9.254 1.545 12.339 5.407 3.856 3.862 5.398 7.725 5.398 12.36 0 4.634-1.543 9.269-5.398 12.359-3.856 3.09-7.712 4.635-12.34 4.635-4.626 0-9.253-1.545-12.338-4.635-3.085-3.09-5.398-7.725-5.398-12.359zm0-118.961c0-4.635 1.542-9.27 4.627-12.36 3.856-3.862 7.712-5.407 12.338-5.407 4.628 0 9.255 1.545 12.34 5.407 3.855 3.863 5.398 7.725 5.398 12.36s-1.543 9.27-5.399 12.36c-3.856 3.862-7.711 5.407-12.339 5.407-4.627 0-8.482-1.545-11.567-5.408-3.856-3.862-5.398-7.724-5.398-12.36zm47.04 236.376c0-4.635 1.543-9.269 4.628-12.359 3.856-3.863 7.711-5.408 12.338-5.408 4.628 0 9.255 1.545 12.339 5.408 3.856 3.09 5.399 7.724 5.399 12.359s-1.543 9.27-5.399 12.36c-3.856 3.862-7.711 5.407-12.339 5.407-4.627 0-9.254-1.545-12.338-5.407-3.085-3.09-4.627-6.952-4.627-12.36zm0-118.188c0-4.635 1.543-9.27 5.399-12.359 3.856-3.863 7.712-5.408 12.339-5.408 4.627 0 9.254 1.545 12.339 5.408 3.855 3.862 5.398 7.724 5.398 12.359s-1.543 9.27-5.398 12.36c-3.085 3.089-6.941 4.634-12.339 4.634-4.627 0-9.255-1.545-12.34-4.634-3.855-3.863-5.397-7.725-5.397-12.36zm-.77-119.733c0-4.635 1.542-9.27 5.398-12.36C101.024 1.545 104.88 0 109.507 0c4.628 0 9.255 1.545 12.339 5.407 3.856 3.863 5.399 7.725 5.399 12.36s-1.543 9.27-5.399 12.36c-3.856 3.862-7.711 5.407-12.339 5.407-4.627 0-9.254-1.545-12.338-5.407-3.085-3.09-5.399-6.953-5.399-12.36zm45.499 237.921c0-4.635 1.542-9.269 4.627-12.359 3.856-3.863 7.712-5.408 12.339-5.408 4.627 0 9.254 1.545 12.339 5.408 3.856 3.862 5.398 7.724 5.398 12.359s-1.542 9.27-5.398 12.36c-3.856 3.862-7.712 5.407-12.339 5.407-4.627 0-9.254-1.545-12.339-5.407-3.085-3.09-4.627-6.952-4.627-12.36zm-.771-118.96c0-4.635 1.542-9.27 4.627-12.36 3.856-3.862 7.712-5.407 12.339-5.407 4.627 0 9.254 1.545 12.339 5.407 3.855 3.09 5.398 7.725 5.398 12.36 0 4.634-1.543 9.269-5.398 12.359-3.856 3.862-7.712 5.407-12.339 5.407-4.627 0-9.254-1.545-12.339-5.407-2.314-3.09-4.627-6.952-4.627-12.359zm0-118.961c0-4.635 1.542-9.27 5.398-12.36C145.753 1.545 149.609 0 154.236 0s9.254 1.545 12.339 5.407c3.856 3.863 5.398 7.725 5.398 12.36s-1.542 9.27-5.398 12.36c-3.085 3.862-7.712 5.407-12.339 5.407-4.627 0-9.254-1.545-12.339-4.635-3.856-3.862-5.398-7.725-5.398-13.132zm46.27 40.94c0-4.634 1.543-9.269 5.399-12.359 3.856-3.862 7.712-5.407 12.339-5.407 4.627 0 9.254 1.545 12.338 5.407 3.856 3.09 5.399 7.725 5.399 12.36s-1.543 9.27-5.399 12.36c-3.084 3.862-6.94 5.407-12.338 5.407-4.627 0-9.255-1.545-12.339-5.407-3.856-3.863-5.399-7.725-5.399-12.36z" fill="url(#paint0_linear_2801_2586)"/><path d="M264.514 256.461c0-4.635 1.543-9.27 5.399-12.36 3.855-3.862 7.711-5.407 12.338-5.407 4.628 0 9.255 1.545 12.339 5.407 3.856 3.863 5.399 7.725 5.399 12.36s-1.543 9.27-5.399 12.359c-3.856 3.863-7.711 5.408-12.339 5.408-4.627 0-9.254-1.545-12.338-5.408-3.856-3.089-5.399-7.724-5.399-12.359zm0-39.396c0-4.635 1.543-9.27 5.399-12.36 3.855-3.862 7.711-5.407 12.338-5.407 4.628 0 9.255 1.545 12.339 5.407 3.856 3.863 5.399 7.725 5.399 12.36s-1.543 9.269-5.399 12.359c-3.084 3.09-6.94 4.635-12.339 4.635-4.627 0-9.254-1.545-12.338-4.635-3.856-3.862-5.399-7.724-5.399-12.359zm0-40.169c0-4.635 1.543-9.269 4.627-12.359 3.856-3.863 7.712-5.408 12.339-5.408 4.627 0 9.254 1.545 12.339 5.408 3.856 3.862 5.398 7.724 5.398 12.359s-1.542 9.27-5.398 12.36-7.712 4.635-12.339 4.635c-4.627 0-9.254-1.545-12.339-4.635-3.084-3.09-4.627-6.952-4.627-12.36zm0-39.396c0-4.635 1.543-9.269 5.399-12.359 3.855-3.863 7.711-5.408 12.338-5.408 4.628 0 9.255 1.545 12.339 5.408 3.856 3.09 5.399 7.724 5.399 12.359s-1.543 9.27-5.399 12.36c-3.856 3.862-7.711 5.407-12.339 5.407-4.627 0-9.254-1.545-12.338-5.407-3.856-3.863-5.399-7.725-5.399-12.36zm0-40.168c0-4.635 1.543-9.27 5.399-12.36 3.855-3.862 7.711-5.407 12.338-5.407 4.628 0 9.255 1.545 12.339 5.407 3.856 3.863 5.399 7.725 5.399 12.36s-1.543 9.269-5.399 12.359c-3.856 3.863-7.711 5.408-12.339 5.408-4.627 0-9.254-1.545-12.338-5.408-3.856-3.09-5.399-6.952-5.399-12.36zm0-39.396c0-4.635 1.543-9.27 5.399-12.36 3.855-3.862 7.711-5.407 12.338-5.407 4.628 0 9.255 1.545 12.339 5.407 3.856 3.862 5.399 7.725 5.399 12.36s-1.543 9.27-5.399 12.36c-3.084 3.861-6.94 5.406-12.339 5.406-4.627 0-9.254-1.544-12.338-5.407-3.856-3.09-5.399-7.724-5.399-12.36zm0-39.396c0-4.635 1.543-9.27 4.627-12.36 3.856-3.862 7.712-5.407 12.339-5.407 4.627 0 9.254 1.545 12.339 5.407 3.856 3.862 5.398 7.725 5.398 12.36 0 4.634-1.542 9.27-5.398 12.36-3.856 3.089-7.712 4.634-12.339 4.634-4.627 0-9.254-1.545-12.339-4.635-3.084-3.09-4.627-7.725-4.627-12.36zm182.77 237.921c0-4.635 1.542-9.27 5.398-12.36 3.856-3.862 7.712-5.407 12.339-5.407 4.627 0 9.254 1.545 12.339 5.407 3.856 3.09 5.398 7.725 5.398 12.36s-1.542 9.269-5.398 12.359c-3.856 3.863-7.712 5.408-12.339 5.408-4.627 0-9.254-1.545-12.339-5.408-3.856-3.09-5.398-6.952-5.398-12.359zm0-39.396c0-4.635 1.542-9.27 5.398-12.36 3.856-3.862 7.712-5.407 12.339-5.407 4.627 0 9.254 1.545 12.339 5.407 3.856 3.863 5.398 7.725 5.398 12.36s-1.542 9.269-5.398 12.359c-3.085 3.863-6.941 5.408-12.339 5.408-4.627 0-9.254-1.545-12.339-5.408-3.856-3.09-5.398-7.724-5.398-12.359zm-45.5-39.396c0-4.635 1.543-9.27 4.627-12.36 3.856-3.862 7.712-5.407 12.339-5.407 4.627 0 9.254 1.545 12.339 5.407 3.856 3.863 5.398 7.725 5.398 12.36s-1.542 9.269-5.398 12.359c-3.856 3.863-7.712 5.408-12.339 5.408-4.627 0-9.254-1.545-12.339-5.408-3.084-3.09-4.627-7.724-4.627-12.359zm-.771-79.565c0-4.635 1.542-9.27 5.398-12.36 3.856-3.862 7.712-5.407 12.339-5.407 4.627 0 9.254 1.545 12.339 5.408 3.856 3.09 5.398 7.724 5.398 12.36 0 4.634-1.542 9.269-5.398 12.359-3.856 3.862-7.712 5.407-12.339 5.407-4.627 0-9.254-1.545-12.339-5.407-3.084-3.09-5.398-7.725-5.398-12.36zm45.5-39.396c0-4.635 1.542-9.27 5.398-12.36 3.856-3.862 7.712-5.407 12.339-5.407 4.627 0 9.254 1.545 12.339 5.407 3.855 3.09 5.398 7.725 5.398 12.36s-1.543 9.27-5.398 12.36c-3.085 3.862-6.941 5.407-12.339 5.407-4.627 0-9.254-1.545-12.339-5.407-3.856-3.863-5.398-7.725-5.398-12.36zm0-40.168c0-4.635 1.542-9.27 4.627-12.36 3.856-3.862 7.711-5.407 12.339-5.407 4.627 0 9.254 1.545 12.338 5.407 3.856 3.862 5.399 7.725 5.399 12.36 0 4.634-1.543 9.27-5.399 12.36-3.856 3.861-7.711 5.406-12.338 5.406-4.628 0-9.255-1.544-12.339-5.407-3.085-3.09-4.627-6.952-4.627-12.36z" fill="url(#paint1_linear_2801_2586)"/><path d="M509.749 256.461c0-4.635 1.543-9.27 5.399-12.36 3.856-3.862 7.711-5.407 12.339-5.407 4.627 0 8.483 1.545 12.338 5.407 3.856 3.863 5.399 7.725 5.399 12.36s-2.314 9.27-5.399 12.359c-3.855 3.863-7.711 5.408-12.338 5.408-4.628 0-9.255-1.545-12.339-5.408-3.856-3.089-5.399-7.724-5.399-12.359z" fill="url(#paint2_linear_2801_2586)"/><path d="M847.526 256.461c0-4.635 1.542-9.27 5.398-12.36 3.856-3.862 7.712-5.407 12.339-5.407 4.627 0 9.254 1.545 12.339 5.407 3.856 3.863 5.398 7.725 5.398 12.36s-1.542 9.27-5.398 12.359c-3.856 3.863-7.712 5.408-12.339 5.408-4.627 0-9.254-1.545-12.339-5.408-3.856-3.089-5.398-7.724-5.398-12.359zm0-39.396c0-4.635 1.542-9.27 5.398-12.36 3.856-3.862 7.712-5.407 12.339-5.407 4.627 0 9.254 1.545 12.339 5.407 3.856 3.863 5.398 7.725 5.398 12.36s-1.542 9.269-5.398 12.359c-3.085 3.09-6.941 4.635-12.339 4.635-4.627 0-9.254-1.545-12.339-4.635-3.856-3.862-5.398-7.724-5.398-12.359zm0-40.169c0-4.635 1.542-9.269 4.627-12.359 3.856-3.863 7.712-5.408 12.339-5.408 4.627 0 9.254 1.545 12.339 5.408 3.855 3.862 5.398 7.724 5.398 12.359s-1.543 9.27-5.398 12.36c-3.856 3.09-7.712 4.635-12.339 4.635-4.627 0-9.254-1.545-12.339-4.635-3.085-3.09-4.627-6.952-4.627-12.36zm0-39.396c0-4.635 1.542-9.269 5.398-12.359 3.856-3.863 7.712-5.408 12.339-5.408 4.627 0 9.254 1.545 12.339 5.408 3.856 3.09 5.398 7.724 5.398 12.359s-1.542 9.27-5.398 12.36c-3.856 3.862-7.712 5.407-12.339 5.407-4.627 0-9.254-1.545-12.339-5.407-3.856-3.863-5.398-7.725-5.398-12.36zm0-40.168c0-4.635 1.542-9.27 5.398-12.36 3.856-3.862 7.712-5.407 12.339-5.407 4.627 0 9.254 1.545 12.339 5.407 3.856 3.863 5.398 7.725 5.398 12.36s-1.542 9.269-5.398 12.359c-3.856 3.863-7.712 5.408-12.339 5.408-4.627 0-9.254-1.545-12.339-5.408-3.856-3.09-5.398-6.952-5.398-12.36z" fill="url(#paint3_linear_2801_2586)"/><path d="M374.022 156.039h-46.271c-10.025 0-17.737-7.725-17.737-17.767s7.712-17.767 17.737-17.767h46.271c10.025 0 17.737 7.725 17.737 17.767 0 9.27-8.483 17.767-17.737 17.767z" fill="url(#paint4_linear_2801_2586)"/><path d="M576.842 256.461c0-4.635 1.542-9.27 5.398-12.36 3.856-3.862 7.712-5.407 12.339-5.407 4.627 0 9.254 1.545 12.339 5.407 3.856 3.863 5.398 7.725 5.398 12.36s-1.542 9.27-5.398 12.359c-3.856 3.863-7.712 5.408-12.339 5.408-4.627 0-9.254-1.545-12.339-5.408-3.085-3.089-5.398-7.724-5.398-12.359z" fill="url(#paint5_linear_2801_2586)"/><path d="M576.842 217.065c0-4.635 1.542-9.27 5.398-12.36 3.856-3.862 7.712-5.407 12.339-5.407 4.627 0 9.254 1.545 12.339 5.407 3.856 3.862 5.398 7.725 5.398 12.36 0 4.634-1.542 9.269-5.398 12.359-3.085 3.09-6.941 4.635-12.339 4.635-4.627 0-9.254-1.545-12.339-4.635-3.085-3.862-5.398-7.725-5.398-12.359z" fill="url(#paint6_linear_2801_2586)"/><path d="M576.842 176.896c0-4.635 1.542-9.27 4.627-12.36 3.856-3.862 7.712-5.407 12.339-5.407 4.627 0 9.254 1.545 12.339 5.407 3.856 3.863 5.398 7.725 5.398 12.36s-1.542 9.27-5.398 12.36c-3.856 3.089-7.712 4.634-12.339 4.634-4.627 0-9.254-1.545-12.339-4.634-3.085-3.09-4.627-6.953-4.627-12.36z" fill="url(#paint7_linear_2801_2586)"/><path d="M576.842 137.5c0-4.635 1.542-9.27 5.398-12.36 3.856-3.862 7.712-5.407 12.339-5.407 4.627 0 9.254 1.545 12.339 5.407 3.856 3.09 5.398 7.725 5.398 12.36s-1.542 9.27-5.398 12.36c-3.856 3.862-7.712 5.407-12.339 5.407-4.627 0-9.254-1.545-12.339-5.407-3.856-3.863-5.398-7.725-5.398-12.36z" fill="url(#paint8_linear_2801_2586)"/><path d="M576.842 97.332c0-4.635 1.542-9.27 5.398-12.36 3.856-3.862 7.712-5.407 12.339-5.407 4.627 0 9.254 1.545 12.339 5.407 3.856 3.863 5.398 7.725 5.398 12.36s-1.542 9.27-5.398 12.359c-3.856 3.863-7.712 5.408-12.339 5.408-4.627 0-9.254-1.545-12.339-5.408-3.856-3.089-5.398-6.952-5.398-12.36z" fill="url(#paint9_linear_2801_2586)"/><path d="M576.842 57.935c0-4.634 1.542-9.27 5.398-12.359 3.856-3.09 7.712-5.407 12.339-5.407 4.627 0 9.254 1.545 12.339 5.407 3.856 3.862 5.398 7.725 5.398 12.36 0 4.634-1.542 9.27-5.398 12.359-3.085 3.862-6.941 5.407-12.339 5.407-4.627 0-9.254-1.545-12.339-5.407-3.856-3.09-5.398-7.725-5.398-12.36z" fill="url(#paint10_linear_2801_2586)"/><path d="M622.341 19.312c0-4.635 1.543-9.27 4.628-12.36 3.855-3.862 7.711-5.407 12.338-5.407 4.627 0 9.254 1.545 12.339 5.407 3.856 3.863 5.398 7.725 5.398 12.36s-1.542 8.497-4.627 12.36c-3.084 3.862-7.711 5.407-12.339 5.407-4.627 0-9.254-1.545-12.338-5.408-3.856-3.862-5.399-7.724-5.399-12.36z" fill="url(#paint11_linear_2801_2586)"/><path d="M668.612 17.767c0-4.635 1.543-9.27 5.398-12.36C677.866 1.545 681.722 0 686.349 0c4.627 0 9.254 1.545 12.339 5.407 3.856 3.863 5.398 7.725 5.398 12.36s-1.542 9.27-5.398 12.36-7.712 5.407-12.339 5.407c-4.627 0-9.254-1.545-12.339-5.408-3.855-3.09-5.398-6.952-5.398-12.36z" fill="url(#paint12_linear_2801_2586)"/><path d="M713.34 176.896c0-4.635 1.543-9.27 5.399-12.36 3.856-3.862 7.711-5.407 12.339-5.407 4.627 0 9.254 1.545 12.338 5.407 3.856 3.863 5.399 7.725 5.399 12.36s-1.543 9.27-5.399 12.36c-3.084 3.089-6.94 4.634-12.338 4.634-4.628 0-9.255-1.545-12.339-4.634-3.085-3.09-5.399-7.725-5.399-12.36z" fill="url(#paint13_linear_2801_2586)"/><path d="M713.34 17.767c0-4.635 1.543-9.27 5.399-12.36C722.595 1.546 726.45 0 731.078 0c4.627 0 9.254 1.545 12.338 5.408 3.856 3.862 5.399 7.724 5.399 12.36 0 4.634-1.543 9.269-5.399 12.359-3.084 3.09-6.94 4.634-12.338 4.634-4.628 0-9.255-1.544-12.339-4.634-3.856-3.09-5.399-6.953-5.399-12.36z" fill="url(#paint14_linear_2801_2586)"/><path d="M759.611 256.461c0-4.635 1.543-9.27 5.399-12.36 3.856-3.862 7.711-5.407 12.339-5.407 4.627 0 9.254 1.545 12.338 5.407 3.856 3.09 5.399 7.725 5.399 12.36s-1.543 9.27-5.399 12.359c-3.855 3.863-7.711 5.408-12.338 5.408-4.628 0-9.255-1.545-12.339-5.408-3.085-3.862-5.399-6.952-5.399-12.359z" fill="url(#paint15_linear_2801_2586)"/><path d="M759.611 217.065c0-4.635 1.543-9.27 5.398-12.36 3.856-3.862 7.712-5.407 12.339-5.407 4.627 0 9.254 1.545 12.339 5.407 3.856 3.863 5.398 7.725 5.398 12.36s-1.542 9.27-5.398 12.359c-3.085 3.863-6.94 5.408-12.339 5.408-4.627 0-9.254-1.545-12.339-5.408-3.084-3.862-5.398-7.724-5.398-12.359z" fill="url(#paint16_linear_2801_2586)"/><path d="M759.611 177.669c0-4.635 1.543-9.27 4.627-12.36 3.856-3.862 7.712-5.407 12.339-5.407 4.627 0 9.254 1.545 12.339 5.407 3.856 3.862 5.398 7.725 5.398 12.36 0 4.634-1.542 9.269-5.398 12.359-3.856 3.862-7.712 5.407-12.339 5.407-4.627 0-9.254-1.545-12.339-5.407-3.084-3.09-4.627-7.725-4.627-12.359z" fill="url(#paint17_linear_2801_2586)"/><path d="M759.611 138.272c0-4.634 1.543-9.269 4.627-12.359 3.856-3.862 7.712-5.407 12.339-5.407 4.627 0 9.254 1.545 12.339 5.407 3.856 3.862 5.398 7.725 5.398 12.359 0 4.635-1.542 9.27-5.398 12.36s-7.712 4.635-12.339 4.635c-4.627 0-9.254-1.545-12.339-4.635-3.084-3.862-4.627-7.725-4.627-12.36z" fill="url(#paint18_linear_2801_2586)"/><path d="M758.84 98.104c0-4.635 1.543-9.27 5.398-12.36 3.856-3.862 7.712-5.407 12.339-5.407 4.627 0 9.254 1.545 12.339 5.408 3.856 3.09 5.398 7.724 5.398 12.36 0 4.634-1.542 9.269-5.398 12.359-3.856 3.862-7.712 5.407-12.339 5.407-4.627 0-9.254-1.545-12.339-5.407-3.084-3.09-5.398-7.725-5.398-12.36z" fill="url(#paint19_linear_2801_2586)"/><path d="M758.84 58.708c0-4.634 1.543-9.27 5.398-12.36 3.856-3.862 7.712-5.407 12.339-5.407 4.627 0 9.254 1.545 12.339 5.408 3.856 3.09 5.398 7.725 5.398 12.36 0 4.634-1.542 9.269-5.398 12.359-3.085 3.862-6.94 5.407-12.339 5.407-4.627 0-9.254-1.545-12.339-5.407-3.084-3.862-5.398-7.725-5.398-12.36z" fill="url(#paint20_linear_2801_2586)"/><path d="M687.12 194.663h-46.27c-10.026 0-17.737-7.725-17.737-17.767s7.711-17.766 17.737-17.766h46.27c10.026 0 17.738 7.724 17.738 17.766 0 9.27-8.483 17.767-17.738 17.767z" fill="url(#paint21_linear_2801_2586)"/><path d="M847.526 57.936V18.539c0-10.042 7.711-17.766 17.737-17.766C875.288.773 883 8.497 883 18.54v39.396c0 10.042-7.712 17.766-17.737 17.766-10.026 0-17.737-7.724-17.737-17.766z" fill="url(#paint22_linear_2801_2586)"/><path d="M182.77 217.064v-40.168c0-10.042 7.711-17.767 17.737-17.767 10.025 0 17.737 7.725 17.737 17.767v40.168c0 10.043-7.712 17.767-17.737 17.767-10.026 0-17.737-7.724-17.737-17.767z" fill="url(#paint23_linear_2801_2586)"/><path d="M0 98.104V57.936c0-10.042 7.712-17.767 17.737-17.767 10.025 0 17.737 7.725 17.737 17.767v40.168c0 10.042-7.712 17.767-17.737 17.767C7.712 115.871 0 107.374 0 98.104z" fill="url(#paint24_linear_2801_2586)"/><defs><linearGradient id="paint0_linear_2801_2586" x1="0" y1="137.5" x2="883" y2="137.5" gradientUnits="userSpaceOnUse"><stop stop-color="#F9CF0A"/><stop offset="1" stop-color="#F73C59"/></linearGradient><linearGradient id="paint1_linear_2801_2586" x1="0" y1="137.5" x2="883" y2="137.5" gradientUnits="userSpaceOnUse"><stop stop-color="#F9CF0A"/><stop offset="1" stop-color="#F73C59"/></linearGradient><linearGradient id="paint2_linear_2801_2586" x1="0" y1="137.5" x2="883" y2="137.5" gradientUnits="userSpaceOnUse"><stop stop-color="#F9CF0A"/><stop offset="1" stop-color="#F73C59"/></linearGradient><linearGradient id="paint3_linear_2801_2586" x1="0" y1="137.5" x2="883" y2="137.5" gradientUnits="userSpaceOnUse"><stop stop-color="#F9CF0A"/><stop offset="1" stop-color="#F73C59"/></linearGradient><linearGradient id="paint4_linear_2801_2586" x1="0" y1="137.5" x2="883" y2="137.5" gradientUnits="userSpaceOnUse"><stop stop-color="#F9CF0A"/><stop offset="1" stop-color="#F73C59"/></linearGradient><linearGradient id="paint5_linear_2801_2586" x1="0" y1="137.5" x2="883" y2="137.5" gradientUnits="userSpaceOnUse"><stop stop-color="#F9CF0A"/><stop offset="1" stop-color="#F73C59"/></linearGradient><linearGradient id="paint6_linear_2801_2586" x1="0" y1="137.5" x2="883" y2="137.5" gradientUnits="userSpaceOnUse"><stop stop-color="#F9CF0A"/><stop offset="1" stop-color="#F73C59"/></linearGradient><linearGradient id="paint7_linear_2801_2586" x1="0" y1="137.5" x2="883" y2="137.5" gradientUnits="userSpaceOnUse"><stop stop-color="#F9CF0A"/><stop offset="1" stop-color="#F73C59"/></linearGradient><linearGradient id="paint8_linear_2801_2586" x1="0" y1="137.5" x2="883" y2="137.5" gradientUnits="userSpaceOnUse"><stop stop-color="#F9CF0A"/><stop offset="1" stop-color="#F73C59"/></linearGradient><linearGradient id="paint9_linear_2801_2586" x1="0" y1="137.5" x2="883" y2="137.5" gradientUnits="userSpaceOnUse"><stop stop-color="#F9CF0A"/><stop offset="1" stop-color="#F73C59"/></linearGradient><linearGradient id="paint10_linear_2801_2586" x1="0" y1="137.5" x2="883" y2="137.5" gradientUnits="userSpaceOnUse"><stop stop-color="#F9CF0A"/><stop offset="1" stop-color="#F73C59"/></linearGradient><linearGradient id="paint11_linear_2801_2586" x1="0" y1="137.5" x2="883" y2="137.5" gradientUnits="userSpaceOnUse"><stop stop-color="#F9CF0A"/><stop offset="1" stop-color="#F73C59"/></linearGradient><linearGradient id="paint12_linear_2801_2586" x1="0" y1="137.5" x2="883" y2="137.5" gradientUnits="userSpaceOnUse"><stop stop-color="#F9CF0A"/><stop offset="1" stop-color="#F73C59"/></linearGradient><linearGradient id="paint13_linear_2801_2586" x1="0" y1="137.5" x2="883" y2="137.5" gradientUnits="userSpaceOnUse"><stop stop-color="#F9CF0A"/><stop offset="1" stop-color="#F73C59"/></linearGradient><linearGradient id="paint14_linear_2801_2586" x1="0" y1="137.5" x2="883" y2="137.5" gradientUnits="userSpaceOnUse"><stop stop-color="#F9CF0A"/><stop offset="1" stop-color="#F73C59"/></linearGradient><linearGradient id="paint15_linear_2801_2586" x1="0" y1="137.5" x2="883" y2="137.5" gradientUnits="userSpaceOnUse"><stop stop-color="#F9CF0A"/><stop offset="1" stop-color="#F73C59"/></linearGradient><linearGradient id="paint16_linear_2801_2586" x1="0" y1="137.5" x2="883" y2="137.5" gradientUnits="userSpaceOnUse"><stop stop-color="#F9CF0A"/><stop offset="1" stop-color="#F73C59"/></linearGradient><linearGradient id="paint17_linear_2801_2586" x1="0" y1="137.5" x2="883" y2="137.5" gradientUnits="userSpaceOnUse"><stop stop-color="#F9CF0A"/><stop offset="1" stop-color="#F73C59"/></linearGradient><linearGradient id="paint18_linear_2801_2586" x1="0" y1="137.5" x2="883" y2="137.5" gradientUnits="userSpaceOnUse"><stop stop-color="#F9CF0A"/><stop offset="1" stop-color="#F73C59"/></linearGradient><linearGradient id="paint19_linear_2801_2586" x1="0" y1="137.5" x2="883" y2="137.5" gradientUnits="userSpaceOnUse"><stop stop-color="#F9CF0A"/><stop offset="1" stop-color="#F73C59"/></linearGradient><linearGradient id="paint20_linear_2801_2586" x1="0" y1="137.5" x2="883" y2="137.5" gradientUnits="userSpaceOnUse"><stop stop-color="#F9CF0A"/><stop offset="1" stop-color="#F73C59"/></linearGradient><linearGradient id="paint21_linear_2801_2586" x1="0" y1="137.5" x2="883" y2="137.5" gradientUnits="userSpaceOnUse"><stop stop-color="#F9CF0A"/><stop offset="1" stop-color="#F73C59"/></linearGradient><linearGradient id="paint22_linear_2801_2586" x1="0" y1="137.5" x2="883" y2="137.5" gradientUnits="userSpaceOnUse"><stop stop-color="#F9CF0A"/><stop offset="1" stop-color="#F73C59"/></linearGradient><linearGradient id="paint23_linear_2801_2586" x1="0" y1="137.5" x2="883" y2="137.5" gradientUnits="userSpaceOnUse"><stop stop-color="#F9CF0A"/><stop offset="1" stop-color="#F73C59"/></linearGradient><linearGradient id="paint24_linear_2801_2586" x1="0" y1="137.5" x2="883" y2="137.5" gradientUnits="userSpaceOnUse"><stop stop-color="#F9CF0A"/><stop offset="1" stop-color="#F73C59"/></linearGradient></defs></svg>