<svg width="443" height="139" fill="none" xmlns="http://www.w3.org/2000/svg"><path d="M1.135 109.425c0-2.322.77-4.643 2.699-6.191 1.928-1.935 3.856-2.709 6.17-2.709 2.313 0 4.24.774 5.783 2.322 1.928 1.935 2.7 3.869 2.7 6.191 0 2.322-.772 4.643-2.7 6.191-1.542 1.935-3.47 2.709-5.784 2.709-2.313 0-4.627-.774-6.17-2.322-1.927-1.935-2.698-3.869-2.698-6.191zm22.75 20.121c0-2.322.77-4.644 2.699-6.191 1.928-1.935 3.856-2.709 6.17-2.709 2.313 0 4.626.774 6.169 2.709 1.928 1.547 2.699 3.869 2.699 6.191 0 2.321-.771 4.643-2.7 6.191-1.927 1.934-3.855 2.708-6.169 2.708-2.313 0-4.627-.774-6.17-2.708-1.927-1.548-2.698-3.87-2.698-6.191zm-.386-59.588c0-2.322.771-4.644 2.7-6.191 1.927-1.935 3.855-2.709 6.169-2.709 2.313 0 4.627.774 6.169 2.709 1.928 1.934 2.7 3.869 2.7 6.19 0 2.322-.772 4.644-2.7 6.192-1.928 1.547-3.856 2.321-6.17 2.321-2.313 0-4.626-.774-6.169-2.321-1.542-1.548-2.699-3.87-2.699-6.191zm0-59.588c0-2.322.771-4.644 2.314-6.191 1.928-1.935 3.855-2.709 6.169-2.709 2.313 0 4.627.774 6.17 2.709 1.927 1.934 2.699 3.87 2.699 6.19 0 2.322-.772 4.644-2.7 6.192-1.928 1.934-3.856 2.708-6.169 2.708-2.314 0-4.241-.774-5.784-2.708-1.928-1.935-2.699-3.87-2.699-6.191zM47.02 128.772c0-2.322.771-4.643 2.314-6.191 1.928-1.935 3.855-2.709 6.17-2.709 2.313 0 4.626.774 6.169 2.709 1.927 1.548 2.699 3.869 2.699 6.191 0 2.321-.772 4.643-2.7 6.191-1.927 1.934-3.855 2.708-6.169 2.708-2.313 0-4.627-.774-6.17-2.708-1.542-1.548-2.313-3.483-2.313-6.191zm0-59.201c0-2.322.771-4.644 2.7-6.191 1.927-1.935 3.855-2.709 6.169-2.709 2.313 0 4.627.774 6.17 2.709 1.927 1.934 2.698 3.87 2.698 6.19 0 2.322-.77 4.644-2.699 6.192-1.542 1.547-3.47 2.321-6.17 2.321-2.313 0-4.626-.774-6.169-2.321-1.928-1.935-2.699-3.87-2.699-6.191zm-.386-59.975c0-2.322.772-4.643 2.7-6.191C51.262 1.47 53.189.696 55.504.696c2.313 0 4.626.774 6.169 2.709 1.927 1.935 2.699 3.87 2.699 6.19 0 2.322-.772 4.644-2.7 6.192-1.927 1.934-3.855 2.708-6.169 2.708-2.313 0-4.627-.774-6.17-2.708-1.542-1.548-2.698-3.483-2.698-6.191zm22.75 119.176c0-2.322.772-4.643 2.314-6.191 1.928-1.935 3.856-2.709 6.17-2.709 2.313 0 4.627.774 6.169 2.709 1.928 1.934 2.699 3.869 2.699 6.191 0 2.321-.771 4.643-2.7 6.191-1.927 1.934-3.855 2.708-6.169 2.708-2.313 0-4.627-.774-6.17-2.708-1.541-1.548-2.313-3.483-2.313-6.191zM69 69.184c0-2.322.771-4.643 2.313-6.191 1.928-1.935 3.856-2.709 6.17-2.709 2.313 0 4.627.774 6.17 2.709 1.927 1.548 2.698 3.87 2.698 6.19 0 2.322-.77 4.644-2.699 6.192-1.928 1.934-3.856 2.708-6.17 2.708-2.313 0-4.626-.774-6.169-2.708C70.156 73.827 69 71.892 69 69.184zm0-59.588c0-2.322.771-4.643 2.699-6.191C73.626 1.47 75.554.696 77.868.696c2.313 0 4.627.774 6.169 2.709 1.928 1.935 2.699 3.87 2.699 6.19 0 2.322-.771 4.644-2.7 6.192-1.541 1.934-3.855 2.708-6.169 2.708-2.313 0-4.627-.774-6.17-2.321C69.77 14.239 69 12.304 69 9.596zm23.135 20.507c0-2.321.772-4.643 2.7-6.19 1.927-1.935 3.855-2.71 6.169-2.71 2.313 0 4.627.775 6.169 2.71 1.928 1.547 2.7 3.869 2.7 6.19 0 2.322-.772 4.644-2.7 6.191-1.542 1.935-3.47 2.709-6.169 2.709-2.314 0-4.627-.774-6.17-2.709-1.927-1.934-2.699-3.869-2.699-6.19zm40.872 99.056c0-2.322.771-4.643 2.699-6.191 1.928-1.935 3.856-2.709 6.17-2.709 2.313 0 4.627.774 6.169 2.709 1.928 1.934 2.699 3.869 2.699 6.191 0 2.321-.771 4.643-2.699 6.191-1.928 1.934-3.856 2.708-6.169 2.708-2.314 0-4.628-.774-6.17-2.708-1.928-1.548-2.699-3.87-2.699-6.191zm0-19.734c0-2.322.771-4.643 2.699-6.191 1.928-1.935 3.856-2.708 6.17-2.708 2.313 0 4.627.773 6.169 2.708 1.928 1.935 2.699 3.869 2.699 6.191 0 2.322-.771 4.643-2.699 6.191-1.542 1.548-3.47 2.322-6.169 2.322-2.314 0-4.628-.774-6.17-2.322-1.928-1.935-2.699-3.869-2.699-6.191zm0-20.12c0-2.322.771-4.644 2.314-6.192 1.927-1.934 3.855-2.708 6.169-2.708 2.314 0 4.627.774 6.169 2.709 1.928 1.934 2.7 3.869 2.7 6.19 0 2.322-.772 4.644-2.7 6.191-1.927 1.548-3.855 2.322-6.169 2.322-2.314 0-4.627-.774-6.169-2.322-1.543-1.547-2.314-3.482-2.314-6.19zm0-19.734c0-2.322.771-4.643 2.699-6.191 1.928-1.935 3.856-2.709 6.17-2.709 2.313 0 4.627.774 6.169 2.709 1.928 1.548 2.699 3.87 2.699 6.19 0 2.322-.771 4.644-2.699 6.192-1.928 1.934-3.856 2.708-6.169 2.708-2.314 0-4.628-.774-6.17-2.708-1.928-1.935-2.699-3.87-2.699-6.191zm0-20.12c0-2.322.771-4.644 2.699-6.192 1.928-1.934 3.856-2.708 6.17-2.708 2.313 0 4.627.774 6.169 2.708 1.928 1.935 2.699 3.87 2.699 6.191 0 2.322-.771 4.643-2.699 6.191-1.928 1.935-3.856 2.709-6.169 2.709-2.314 0-4.628-.774-6.17-2.709-1.928-1.548-2.699-3.482-2.699-6.19zm0-19.735c0-2.321.771-4.643 2.699-6.19 1.928-1.935 3.856-2.709 6.17-2.709 2.313 0 4.627.774 6.169 2.709 1.928 1.934 2.699 3.869 2.699 6.19 0 2.322-.771 4.644-2.699 6.191-1.542 1.935-3.47 2.709-6.169 2.709-2.314 0-4.628-.774-6.17-2.709-1.928-1.547-2.699-3.869-2.699-6.19zm0-19.733c0-2.322.771-4.643 2.314-6.191 1.927-1.935 3.855-2.709 6.169-2.709 2.314 0 4.627.774 6.169 2.709 1.928 1.935 2.7 3.87 2.7 6.19 0 2.322-.772 4.644-2.7 6.192-1.927 1.547-3.855 2.321-6.169 2.321-2.314 0-4.627-.774-6.169-2.321-1.543-1.548-2.314-3.87-2.314-6.191zm91.385 119.176c0-2.322.771-4.643 2.699-6.191 1.928-1.935 3.856-2.709 6.17-2.709 2.313 0 4.627.774 6.169 2.709 1.928 1.548 2.699 3.869 2.699 6.191 0 2.321-.771 4.643-2.699 6.191-1.928 1.934-3.856 2.708-6.169 2.708-2.314 0-4.627-.774-6.17-2.708-1.928-1.548-2.699-3.483-2.699-6.191zm0-19.734c0-2.322.771-4.643 2.699-6.191 1.928-1.935 3.856-2.708 6.17-2.708 2.313 0 4.627.773 6.169 2.708 1.928 1.935 2.699 3.869 2.699 6.191 0 2.322-.771 4.643-2.699 6.191-1.542 1.935-3.47 2.709-6.169 2.709-2.314 0-4.627-.774-6.17-2.709-1.928-1.548-2.699-3.869-2.699-6.191zm-22.75-19.734c0-2.321.772-4.643 2.314-6.19 1.928-1.935 3.856-2.71 6.169-2.71 2.314 0 4.627.775 6.17 2.71 1.928 1.934 2.699 3.869 2.699 6.19 0 2.322-.771 4.644-2.699 6.191-1.928 1.935-3.856 2.709-6.17 2.709-2.313 0-4.627-.774-6.169-2.709-1.542-1.547-2.314-3.869-2.314-6.19zm-.385-39.854c0-2.322.771-4.643 2.699-6.19 1.928-1.935 3.856-2.71 6.169-2.71 2.314 0 4.627.775 6.17 2.71 1.928 1.547 2.699 3.869 2.699 6.19 0 2.322-.771 4.643-2.699 6.191-1.928 1.935-3.856 2.709-6.17 2.709-2.313 0-4.627-.774-6.169-2.709-1.542-1.548-2.699-3.87-2.699-6.19zm22.75-19.734c0-2.321.771-4.643 2.699-6.19 1.928-1.935 3.856-2.709 6.169-2.709 2.314 0 4.627.774 6.17 2.709 1.928 1.547 2.699 3.869 2.699 6.19 0 2.322-.771 4.644-2.699 6.191-1.543 1.935-3.471 2.709-6.17 2.709-2.313 0-4.627-.774-6.169-2.709-1.928-1.934-2.699-3.869-2.699-6.19zm0-20.12c0-2.322.771-4.643 2.313-6.191 1.928-1.935 3.856-2.709 6.17-2.709 2.313 0 4.627.774 6.169 2.709 1.928 1.935 2.699 3.87 2.699 6.19 0 2.322-.771 4.644-2.699 6.192-1.928 1.934-3.856 2.708-6.169 2.708-2.314 0-4.627-.774-6.17-2.708-1.542-1.548-2.313-3.483-2.313-6.191zm31.618 119.176c0-2.322.771-4.643 2.699-6.191 1.928-1.935 3.856-2.709 6.17-2.709 2.313 0 4.241.774 6.169 2.709 1.928 1.934 2.699 3.869 2.699 6.191 0 2.321-1.156 4.643-2.699 6.191-1.928 1.934-3.856 2.708-6.169 2.708-2.314 0-4.627-.774-6.17-2.708-1.928-1.548-2.699-3.87-2.699-6.191zm168.889 0c0-2.322.772-4.643 2.7-6.191 1.928-1.935 3.855-2.709 6.169-2.709 2.314 0 4.627.774 6.17 2.709 1.927 1.934 2.699 3.869 2.699 6.191 0 2.321-.772 4.643-2.699 6.191-1.928 1.934-3.856 2.708-6.17 2.708s-4.627-.774-6.169-2.708c-1.928-1.548-2.7-3.87-2.7-6.191zm0-19.734c0-2.322.772-4.643 2.7-6.191 1.928-1.935 3.855-2.708 6.169-2.708 2.314 0 4.627.773 6.17 2.708 1.927 1.935 2.699 3.869 2.699 6.191 0 2.322-.772 4.643-2.699 6.191-1.543 1.548-3.471 2.322-6.17 2.322-2.314 0-4.627-.774-6.169-2.322-1.928-1.935-2.7-3.869-2.7-6.191zm0-20.12c0-2.322.772-4.644 2.314-6.192 1.928-1.934 3.856-2.708 6.169-2.708 2.314 0 4.628.774 6.17 2.709 1.928 1.934 2.699 3.869 2.699 6.19 0 2.322-.771 4.644-2.699 6.191-1.928 1.548-3.856 2.322-6.17 2.322-2.313 0-4.627-.774-6.169-2.322-1.542-1.547-2.314-3.482-2.314-6.19zm0-19.734c0-2.322.772-4.643 2.7-6.191 1.928-1.935 3.855-2.709 6.169-2.709 2.314 0 4.627.774 6.17 2.709 1.927 1.548 2.699 3.87 2.699 6.19 0 2.322-.772 4.644-2.699 6.192-1.928 1.934-3.856 2.708-6.17 2.708s-4.627-.774-6.169-2.708c-1.928-1.935-2.7-3.87-2.7-6.191zm0-20.12c0-2.322.772-4.644 2.7-6.192 1.928-1.934 3.855-2.708 6.169-2.708 2.314 0 4.627.774 6.17 2.708 1.927 1.935 2.699 3.87 2.699 6.191 0 2.322-.772 4.643-2.699 6.191-1.928 1.935-3.856 2.709-6.17 2.709s-4.627-.774-6.169-2.709c-1.928-1.548-2.7-3.482-2.7-6.19zM187.761 78.857h-23.135c-5.013 0-8.869-3.87-8.869-8.9s3.856-8.899 8.869-8.899h23.135c5.013 0 8.869 3.87 8.869 8.9 0 4.643-4.242 8.899-8.869 8.899zm101.411 50.302c0-2.322.771-4.643 2.699-6.191 1.928-1.935 3.856-2.709 6.169-2.709 2.314 0 4.627.774 6.17 2.709 1.928 1.934 2.699 3.869 2.699 6.191 0 2.321-.771 4.643-2.699 6.191-1.928 1.934-3.856 2.708-6.17 2.708-2.313 0-4.627-.774-6.169-2.708-1.543-1.548-2.699-3.87-2.699-6.191zm0-19.734c0-2.322.771-4.643 2.699-6.191 1.928-1.935 3.856-2.708 6.169-2.708 2.314 0 4.627.773 6.17 2.708 1.928 1.935 2.699 3.869 2.699 6.191 0 2.322-.771 4.643-2.699 6.191-1.543 1.548-3.471 2.322-6.17 2.322-2.313 0-4.627-.774-6.169-2.322-1.543-1.935-2.699-3.869-2.699-6.191zm0-20.121c0-2.321.771-4.643 2.313-6.19 1.928-1.935 3.856-2.71 6.17-2.71 2.313 0 4.627.775 6.169 2.71 1.928 1.934 2.699 3.869 2.699 6.19 0 2.322-.771 4.644-2.699 6.191-1.928 1.548-3.856 2.322-6.169 2.322-2.314 0-4.627-.774-6.17-2.322-1.542-1.547-2.313-3.482-2.313-6.19zm0-19.734c0-2.32.771-4.642 2.699-6.19 1.928-1.935 3.856-2.709 6.169-2.709 2.314 0 4.627.774 6.17 2.709 1.928 1.547 2.699 3.87 2.699 6.19 0 2.322-.771 4.644-2.699 6.192-1.928 1.934-3.856 2.708-6.17 2.708-2.313 0-4.627-.774-6.169-2.708-1.928-1.935-2.699-3.87-2.699-6.191zm0-20.12c0-2.321.771-4.643 2.699-6.19 1.928-1.935 3.856-2.71 6.169-2.71 2.314 0 4.627.775 6.17 2.71 1.928 1.934 2.699 3.869 2.699 6.19 0 2.322-.771 4.643-2.699 6.191-1.928 1.935-3.856 2.709-6.17 2.709-2.313 0-4.627-.774-6.169-2.709-1.928-1.547-2.699-3.482-2.699-6.19zm0-19.734c0-2.321.771-4.643 2.699-6.19 1.928-1.548 3.856-2.709 6.169-2.709 2.314 0 4.627.774 6.17 2.709 1.928 1.934 2.699 3.869 2.699 6.19 0 2.322-.771 4.644-2.699 6.191-1.543 1.935-3.471 2.709-6.17 2.709-2.313 0-4.627-.774-6.169-2.709-1.928-1.547-2.699-3.869-2.699-6.19zm22.75-19.346c0-2.322.771-4.644 2.313-6.191 1.928-1.935 3.856-2.709 6.17-2.709 2.313 0 4.627.774 6.169 2.709 1.928 1.934 2.699 3.87 2.699 6.19 0 2.322-.771 4.257-2.313 6.192-1.543 1.934-3.856 2.708-6.17 2.708-2.313 0-4.627-.774-6.169-2.708-1.928-1.935-2.699-3.87-2.699-6.191zm23.135-.774c0-2.322.771-4.643 2.699-6.191 1.928-1.935 3.856-2.709 6.17-2.709 2.313 0 4.627.774 6.169 2.709 1.928 1.934 2.699 3.87 2.699 6.19 0 2.322-.771 4.644-2.699 6.192-1.928 1.547-3.856 2.708-6.169 2.708-2.314 0-4.627-.774-6.17-2.708-1.928-1.548-2.699-3.483-2.699-6.191zm22.364 79.708c0-2.321.772-4.643 2.699-6.19 1.928-1.935 3.856-2.71 6.17-2.71s4.627.775 6.169 2.71c1.928 1.934 2.7 3.869 2.7 6.19 0 2.322-.772 4.644-2.7 6.191-1.542 1.548-3.47 2.322-6.169 2.322-2.314 0-4.627-.774-6.17-2.322-1.542-1.547-2.699-3.87-2.699-6.19zm0-79.708c0-2.322.772-4.643 2.699-6.191 1.928-1.935 3.856-2.709 6.17-2.709s4.627.774 6.169 2.709c1.928 1.935 2.7 3.87 2.7 6.19 0 2.322-.772 4.644-2.7 6.192-1.542 1.548-3.47 2.321-6.169 2.321-2.314 0-4.627-.773-6.17-2.321-1.927-1.548-2.699-3.482-2.699-6.191zm23.136 119.563c0-2.322.771-4.643 2.699-6.191 1.928-1.935 3.856-2.709 6.17-2.709 2.313 0 4.627.774 6.169 2.709 1.928 1.548 2.699 3.869 2.699 6.191 0 2.321-.771 4.643-2.699 6.191-1.928 1.934-3.856 2.708-6.169 2.708-2.314 0-4.628-.774-6.17-2.708-1.542-1.935-2.699-3.483-2.699-6.191zm0-19.734c0-2.321.771-4.643 2.699-6.191 1.928-1.934 3.856-2.708 6.169-2.708 2.314 0 4.628.774 6.17 2.708 1.928 1.935 2.699 3.87 2.699 6.191 0 2.322-.771 4.643-2.699 6.191-1.542 1.935-3.47 2.709-6.17 2.709-2.313 0-4.627-.774-6.169-2.709-1.542-1.935-2.699-3.869-2.699-6.191zm0-19.734c0-2.321.771-4.643 2.313-6.19 1.928-1.935 3.856-2.71 6.17-2.71 2.313 0 4.627.775 6.169 2.71 1.928 1.934 2.7 3.869 2.7 6.19 0 2.322-.772 4.644-2.7 6.191-1.928 1.935-3.856 2.709-6.169 2.709-2.314 0-4.627-.774-6.17-2.709-1.542-1.547-2.313-3.87-2.313-6.19zm0-19.733c0-2.322.771-4.644 2.313-6.191 1.928-1.935 3.856-2.709 6.17-2.709 2.313 0 4.627.774 6.169 2.709 1.928 1.934 2.7 3.869 2.7 6.19 0 2.322-.772 4.644-2.7 6.192-1.928 1.547-3.856 2.321-6.169 2.321-2.314 0-4.627-.774-6.17-2.321-1.542-1.935-2.313-3.87-2.313-6.191zm-.386-20.121c0-2.322.772-4.643 2.7-6.19 1.927-1.935 3.855-2.71 6.169-2.71 2.314 0 4.627.775 6.169 2.71 1.928 1.547 2.7 3.869 2.7 6.19 0 2.322-.772 4.643-2.7 6.191-1.927 1.935-3.855 2.709-6.169 2.709-2.314 0-4.627-.774-6.169-2.709-1.543-1.548-2.7-3.87-2.7-6.19zm0-19.733c0-2.322.772-4.644 2.7-6.191 1.927-1.935 3.855-2.709 6.169-2.709 2.314 0 4.627.774 6.169 2.709 1.928 1.547 2.7 3.869 2.7 6.19 0 2.322-.772 4.644-2.7 6.191-1.542 1.935-3.47 2.71-6.169 2.71-2.314 0-4.627-.775-6.169-2.71-1.543-1.934-2.7-3.869-2.7-6.19zm-35.86 68.1h-23.135c-5.013 0-8.869-3.87-8.869-8.9s3.856-8.899 8.869-8.899h23.135c5.013 0 8.869 3.87 8.869 8.9 0 4.643-4.242 8.899-8.869 8.899zm80.203-68.488V9.983c0-5.03 3.856-8.9 8.869-8.9s8.869 3.87 8.869 8.9v19.733c0 5.03-3.856 8.9-8.869 8.9s-8.869-3.87-8.869-8.9zm-332.38 79.709v-20.12c0-5.03 3.856-8.9 8.869-8.9s8.869 3.87 8.869 8.9v20.12c0 5.03-3.856 8.899-8.869 8.899s-8.869-3.869-8.869-8.899zM.749 49.837v-20.12c0-5.03 3.856-8.9 8.869-8.9 5.012 0 8.868 3.87 8.868 8.9v20.12c0 5.03-3.856 8.9-8.868 8.9-5.013 0-8.869-4.257-8.869-8.9z" fill="#F5F5F7"/></svg>