<svg width="159" height="15" fill="none" xmlns="http://www.w3.org/2000/svg"><path d="M7.73 13.51l.011.011.011.01c.101.095.17.253.172.434a.565.565 0 01-.159.422c-.087.08-.228.128-.42.109a.914.914 0 01-.478-.194L1.084 8.157s0 0 0 0a.725.725 0 01-.16-.415.548.548 0 01.16-.395h0l5.79-6.154a.821.821 0 01.466-.19c.197-.018.34.034.421.11h0c.083.08.146.228.14.427-.008.203-.084.367-.16.443l-.006.006-.005.005L3.652 6.32l-.794.843h155.054a.588.588 0 110 1.175H2.858l.794.843L7.73 13.51z" fill="#F5F5F7" stroke="#F5F5F7"/></svg>