<svg width="159" height="15" fill="none" xmlns="http://www.w3.org/2000/svg"><path d="M151.27 1.49l-.011-.011-.011-.01a.605.605 0 01-.172-.435.566.566 0 01.159-.42c.087-.081.228-.13.42-.11a.914.914 0 01.478.194l5.783 6.145h.001a.72.72 0 01.158.415.547.547 0 01-.158.395h0l-5.792 6.154a.82.82 0 01-.465.19c-.197.018-.341-.034-.421-.11h0c-.083-.08-.146-.228-.139-.427.007-.203.083-.367.159-.444l.006-.005.005-.005 4.078-4.327.794-.843H1.088a.588.588 0 010-1.175h155.054l-.794-.843-4.078-4.328z" fill="#F5F5F7" stroke="#F5F5F7"/></svg>