<svg width="31" height="16" fill="none" xmlns="http://www.w3.org/2000/svg"><path d="M23.269 2.234l-.011-.011-.011-.01a.605.605 0 01-.172-.434.565.565 0 01.159-.422c.087-.08.228-.128.42-.109a.913.913 0 01.478.194l5.784 6.145s0 0 0 0a.72.72 0 01.158.415.548.548 0 01-.159.396h0l-5.79 6.153a.821.821 0 01-.466.19c-.197.018-.34-.034-.421-.11h0c-.083-.08-.146-.228-.14-.427.008-.203.084-.367.16-.443l.006-.005.005-.006 4.078-4.327.794-.843H1.087a.588.588 0 010-1.175H28.14l-.794-.843-4.078-4.328z" fill="#F5F5F7" stroke="#F5F5F7"/></svg>