<svg width="31" height="16" fill="none" xmlns="http://www.w3.org/2000/svg"><path d="M7.731 13.766l.011.011.011.01c.101.095.17.253.172.434a.565.565 0 01-.159.421c-.087.081-.228.129-.42.11a.913.913 0 01-.478-.194L1.084 8.413s0 0 0 0a.725.725 0 01-.158-.415.548.548 0 01.158-.396h0L6.876 1.45a.82.82 0 01.465-.19c.197-.018.34.034.421.11h0c.083.08.146.228.14.427-.008.203-.084.366-.16.443l-.006.005-.005.006-4.078 4.327-.794.843h27.054a.588.588 0 010 1.175H2.86l.794.843 4.078 4.328z" fill="#F5F5F7" stroke="#F5F5F7"/></svg>